SplineFontDB: 3.0
FontName: StickNoBills-Light
FullName: Stick No Bills
FamilyName: Stick No Bills
Weight: Light
Copyright: Remove All VKern Pairs
UComments: "2015-2-15: Created with FontForge (http://fontforge.org) The  Free Font Editor"
Version: 1.0
ItalicAngle: 0
UnderlinePosition: -99
UnderlineWidth: 49
Ascent: 800
Descent: 200
InvalidEm: 0
UFOAscent: 800
UFODescent: -200
LayerCount: 2
Layer: 0 0 "Back" 1
Layer: 1 0 "Fore" 0
PreferredKerning: 4
FSType: 0
OS2Version: 0
OS2_WeightWidthSlopeOnly: 0
OS2_UseTypoMetrics: 0
CreationTime: 1446727157
ModificationTime: 1450531664
PfmFamily: 16
TTFWeight: 400
TTFWidth: 5
LineGap: 92
VLineGap: 0
OS2TypoAscent: 800
OS2TypoAOffset: 0
OS2TypoDescent: -200
OS2TypoDOffset: 0
OS2TypoLinegap: 92
OS2WinAscent: 896
OS2WinAOffset: 0
OS2WinDescent: 200
OS2WinDOffset: 0
HheadAscent: 896
HheadAOffset: 0
HheadDescent: -200
HheadDOffset: 0
OS2Vendor: 'PfEd'
OS2UnicodeRanges: 00000002.00000000.00000000.00000000
DEI: 91125
LangName: 1033 "Remove All VKern Pairs" "" "" "" "" "Version 1.0.1" "" "STICK NO BILLS is a trademark of STICK NO BILLS Gallery, Sri Lanka <http://sticknobillsonline.com>" "mooniak <http://mooniak.com>" "Martyn Hodges <allroundboatbuilder@yahoo.com> , Kosala Senavirathne <kosala@mooniak.com>, mooniak <hello@mooniak.com>" "Stick No Bills - is the bespoke typeface of STICK NO BILLS+ISIA Poster Gallery in Galle, Sri Lanka. " "https://github.com/mooniak/stick-no-bills-font" "http://type.mooniak.com/" "This Font Software is licensed under the SIL Open Font License, Version 1.1. This license is available with a FAQ at: http://scripts.sil.org/OFL" "" "" "Stick No Bills" "Regular"
PickledDataWithLists: "(dp1
S'public.glyphOrder'
p2
(lp3
S'A'
aS'Aacute'
p4
aS'Acircumflex'
p5
aS'Adieresis'
p6
aS'Agrave'
p7
aS'Aring'
p8
aS'Atilde'
p9
aS'AE'
p10
aS'B'
aS'C'
aS'Ccedilla'
p11
aS'D'
aS'Eth'
p12
aS'E'
aS'Eacute'
p13
aS'Ecircumflex'
p14
aS'Edieresis'
p15
aS'Egrave'
p16
aS'F'
aS'G'
aS'H'
aS'I'
aS'Iacute'
p17
aS'Icircumflex'
p18

StartChar: tml_A
Encoding: 3 2949 3
GlifName: tml_A_
Width: 975
VWidth: 0
GlyphClass: 2
Flags: HWO
HStem: -127 122 110 125 205 119 373 122 562 122
VStem: 20 122 206 116 479 110 662 122 743 41<224 232 232 232> 834 122 834 3
LayerCount: 2
Fore
SplineSet
323 460 m 0
 323.103515625 460 282.803710938 460 282.803710938 460 c 1
 282.803710938 460 294 289 473 289 c 256
 562 289 637 346 642 409 c 256
 610 443 l 256
 610 375 544 329 473 329 c 256
 392.875976562 329 331.083984375 375.817382812 323 460 c 0
284.891601562 516 m 0
 284.891601562 552 310 695 539 695 c 256
 693.737304688 695 784 585 784 393 c 257
 784 224 l 257
 744 224 l 257
 744 396 l 258
 744 583 652.795898438 655 539 655 c 256
 411.655273438 655 325 589 325 516 c 9
 284.891601562 516 l 0
464 192 m 257
 464 232 l 257
 536.888671875 232 711.111328125 232 784 232 c 257
 785 67 l 257
 785 -35 727.619140625 -127 628 -127 c 258
 466 -127 l 256
 466 -87 l 257
 629 -87 l 258
 692.805664062 -86 744 -29 744 69 c 257
 744 192 l 257
 708.125 192 499.875 192 464 192 c 257
60 72 m 256
 60 188 144 233 274 233 c 258
 410 233 l 257
 410 191 l 257
 256 191 l 258
 232 191 100 195.5 100 72 c 256
 100 -48.015625 201 -87 261 -87 c 258
 411 -87 l 257
 411 -127 l 257
 263 -127 l 258
 151 -127 60 -47 60 72 c 256
743 192 m 257
 743 232 l 257
 877 232 l 257
 877 192 l 257
 743 192 l 257
875 -107 m 257
 875 578 l 257
 915 578 l 257
 915 -107 l 257
 875 -107 l 257
EndSplineSet
PickledDataWithLists: "(dp1
S'com.fontlab.hintData'
p2
(dp3
S'vhints'
p4
(lp5
(dp6
S'position'
p7
L39L
sS'width'
p8
L122L
sa(dp9
g7
L225L
sg8
L116L
sa(dp10
g7
L498L
sg8
L110L
sa(dp11
g7
L681L
sg8
L122L
sa(dp12
g7
L762L
sg8
L41L
sa(dp13
g7
L853L
sg8
L122L
sa(dp14
g7
L853L
sg8
L3L
sasS'hhints'
p15
(lp16
(dp17
g7
L-127L
sg8
L122L
sa(dp18
g7
L110L
sg8
L125L
sa(dp19
g7
L205L
sg8
L119L
sa(dp20
g7
L373L
sg8
L122L
sa(dp21
g7
L562L
sg8
L122L
sass."
EndChar

StartChar: tml_Aa
Encoding: 4 2950 4
GlifName: tml_A_a
Width: 1221
VWidth: 0
GlyphClass: 2
Flags: HW
HStem: -293 122 -127 122 205 119 373 122 562 122
VStem: 39 122 225 116 498 110 681 122 762 41 853 122 853 3 1073 122
LayerCount: 2
Fore
SplineSet
683 -178 m 257
 953 -177 l 258
 1036 -176.731 1117 -155 1117 -30 c 258
 1117 21 l 258
 1117 127 1075 151 990 151 c 256
 990 190 l 257
 1081 190 1157 168 1157 21 c 258
 1157 -26 l 258
 1157 -126 1119 -218 946 -218 c 258
 683 -218 l 257
 683 -178 l 257
EndSplineSet
Refer: 3 2949 N 1 0 0 1 0 0 2
PickledDataWithLists: "(dp1
S'com.fontlab.hintData'
p2
(dp3
S'vhints'
p4
(lp5
(dp6
S'position'
p7
L39L
sS'width'
p8
L122L
sa(dp9
g7
L225L
sg8
L116L
sa(dp10
g7
L498L
sg8
L110L
sa(dp11
g7
L681L
sg8
L122L
sa(dp12
g7
L762L
sg8
L41L
sa(dp13
g7
L853L
sg8
L122L
sa(dp14
g7
L853L
sg8
L3L
sa(dp15
g7
L1073L
sg8
L122L
sasS'hhints'
p16
(lp17
(dp18
g7
L-293L
sg8
L122L
sa(dp19
g7
L-127L
sg8
L122L
sa(dp20
g7
L205L
sg8
L119L
sa(dp21
g7
L373L
sg8
L122L
sa(dp22
g7
L562L
sg8
L122L
sass."
EndChar

StartChar: tml_Above
Encoding: 5 3064 5
GlifName: tml_A_bove
Width: 1434
VWidth: 0
GlyphClass: 2
Flags: HW
LayerCount: 2
Fore
SplineSet
189 94 m 257
 189 134 l 256
 254 134 304 62 304 6 c 258
 304 -15 l 258
 304 -82 259 -148 189 -148 c 257
 189 -108 l 256
 201.245 -108 264 -99 264 -6 c 256
 264 75 205.071 94 189 94 c 257
40 7 m 258
 40 69 95.5107 134 157 134 c 257
 157 94 l 256
 145.093 94 80 78 80 -6 c 256
 80 -88 142.711 -108 157 -108 c 257
 157 -148 l 256
 97.2188 -148 40 -85 40 -13 c 258
 40 7 l 258
40 -5 m 256
 40 142 l 258
 40 311 180.065 359 303 359 c 258
 474 359 l 257
 474 319 l 257
 303 319 l 258
 139.534 319 80 239 80 141 c 258
 80 -6 l 256
 40 -5 l 256
EndSplineSet
Refer: 156 2999 N 1 0 0 1 262 0 2
Validated: 524293
EndChar

StartChar: tml_Ai
Encoding: 6 2960 6
GlifName: tml_A_i
Width: 879
VWidth: 0
GlyphClass: 2
Flags: HW
HStem: -180 122 158 122 307 125 569 127
VStem: 12 122 27 122 274 122 433 122 756 122
LayerCount: 2
Back
SplineSet
52 460 m 4
 52.103515625 460 11.8037109375 460 11.8037109375 460 c 5
 11.8037109375 460 23 289 202 289 c 260
 291 289 366 346 371 409 c 260
 339 443 l 260
 339 375 273 329 202 329 c 260
 121.875976562 329 60.083984375 375.817382812 52 460 c 4
54 516 m 4
 52.546875 515 13.8916015625 516 13.8916015625 516 c 5
 13.8916015625 516 26 695 268 695 c 260
 422.737304688 695 513 585 513 393 c 261
 513 372 l 261
 473 372 l 261
 473 396 l 262
 473 583 381.795898438 655 268 655 c 260
 140.655273438 655 60.779296875 605.159179688 54 516 c 4
EndSplineSet
Fore
SplineSet
689 196.767202753 m 0
 687 194 689 237.814112614 689 237.814112614 c 1
 689 237.814112614 794 212 799 419 c 257
 799 502 l 257
 799 617.784 711.711 638.902 675 644 c 257
 675 684 l 257
 761.271 677.805 839 617.396 839 502 c 257
 839 387 l 262
 839 248 762.324471367 201.792595353 689 196.767202753 c 0
275 236 m 0
 275 233 275 196 275 196 c 1
 227 196 l 258
 182.013 196 105 172 105 46 c 256
 105 -78 185.905 -140 258 -140 c 257
 258 -180 l 257
 131.84 -180 65 -57 65 25 c 258
 65 64 l 258
 65 138 110 236 234 236 c 258
 275 236 l 0
52 460 m 0
 52.103515625 460 11.8037109375 460 11.8037109375 460 c 1
 11.8037109375 460 23 289 202 289 c 256
 291 289 366 346 371 409 c 256
 339 443 l 256
 339 375 273 329 202 329 c 256
 121.875976562 329 60.083984375 375.817382812 52 460 c 0
54 516 m 0
 52.546875 515 13.8916015625 516 13.8916015625 516 c 1
 13.8916015625 516 26 695 268 695 c 256
 422.737304688 695 513 585 513 393 c 257
 513 372 l 257
 473 372 l 257
 473 396 l 258
 473 583 381.795898438 655 268 655 c 256
 140.655273438 655 60.779296875 605.159179688 54 516 c 0
623 236 m 0
 626 234 623 196 623 196 c 1
 347 196 l 1
 347 236 l 17
 623 236 l 0
312 -140 m 257
 383 -140 474 -129.146 474 8 c 258
 474 117 l 256
 513 118 l 256
 513 9 l 258
 513 -113.916 572.455 -140 616 -140 c 257
 616 -180 l 257
 568.555 -180 518 -161.605 491 -105 c 257
 453 -170.164 368.893 -180 312 -180 c 257
 312 -140 l 257
475 371 m 257
 475 480 l 258
 475 605.611 533.037 675.5 621 684 c 257
 621 644 l 257
 585.918 636.5 514 619.625 514 464 c 258
 514 371 l 257
 475 371 l 257
670 -140 m 257
 731.622 -140 784 -85 784 -3 c 258
 784 118 l 257
 824 118 l 257
 824 -3 l 258
 824 -87 769.937 -180 670 -180 c 257
 670 -140 l 257
EndSplineSet
Validated: 37
PickledDataWithLists: "(dp1
S'com.fontlab.hintData'
p2
(dp3
S'vhints'
p4
(lp5
(dp6
S'position'
p7
L12L
sS'width'
p8
L122L
sa(dp9
g7
L27L
sg8
L122L
sa(dp10
g7
L274L
sg8
L122L
sa(dp11
g7
L433L
sg8
L122L
sa(dp12
g7
L756L
sg8
L122L
sasS'hhints'
p13
(lp14
(dp15
g7
L-180L
sg8
L122L
sa(dp16
g7
L158L
sg8
L122L
sa(dp17
g7
L307L
sg8
L125L
sa(dp18
g7
L569L
sg8
L127L
sass."
EndChar

StartChar: tml_Anusvara
Encoding: 7 2946 7
GlifName: tml_A_nusvara
Width: 228
VWidth: 0
GlyphClass: 2
Flags: HW
LayerCount: 2
Fore
SplineSet
66 851 m 4
 66 828 85 809 108 809 c 4
 131 809 150 828 150 851 c 4
 150 874 131 893 108 893 c 4
 85 893 66 874 66 851 c 4
38 851 m 4
 38 890 69 921 108 921 c 4
 147 921 178 890 178 851 c 4
 178 812 147 781 108 781 c 4
 69 781 38 812 38 851 c 4
EndSplineSet
Validated: 1
EndChar

StartChar: tml_CI
Encoding: 10 -1 10
GlifName: tml_C_I_
Width: 778
VWidth: 0
GlyphClass: 2
Flags: HW
LayerCount: 2
Fore
SplineSet
608 718.957 m 257
 608 758.957 l 257
 705 758.957 738 694.957 738 592.957 c 258
 738 63.957 l 257
 698 63.957 l 257
 698 589.957 l 258
 698 651.957 694 718.957 608 718.957 c 257
423 590.957 m 257
 423 590.957 l 257
 423 694.957 460 758.957 554 758.957 c 256
 554 758.957 l 257
 554 718.957 l 256
 554 718.957 l 256
 474 718.957 463 651.957 463 590.957 c 256
 423 590.957 l 257
EndSplineSet
Refer: 16 2970 N 1 0 0 1 0 0 2
Validated: 524293
EndChar

StartChar: tml_CI.alt
Encoding: 11 -1 11
GlifName: tml_C_I_.alt
Width: 868
VWidth: 0
GlyphClass: 2
Flags: HW
LayerCount: 2
Fore
SplineSet
97.916015625 512.858398438 m 4
 88.4453125 456.521484375 91.8114004219 381.496788339 112.671875 308 c 261
 79.671875 274 l 261
 28 374 51.064453125 513.6953125 51.064453125 513.6953125 c 5
 51.064453125 513.6953125 98 512 97.916015625 512.858398438 c 4
119.016828304 575.865170817 m 0
 118 576 68.0004893293 580.399956504 68.0004893293 580.399956504 c 1
 68.0004893293 580.399956504 138 809 420.374 809 c 257
 420.374 809 l 257
 420.374 770 l 256
 420.374 770 l 257
 302.829631911 770 173.257407019 703.949679647 119.016828304 575.865170817 c 0
474.374 770 m 257
 474.374 809 l 257
 674.374 809 827.374 705 828.374 448 c 258
 828.374 68 l 257
 787.374 68 l 257
 787.374 445 l 258
 787.374 732 576.374 770 474.374 770 c 257
EndSplineSet
Refer: 16 2970 N 1 0 0 1 0.000275 0 2
Validated: 524325
EndChar

StartChar: tml_CIi
Encoding: 12 -1 12
GlifName: tml_C_I_i
Width: 757
VWidth: 0
GlyphClass: 2
Flags: HW
LayerCount: 2
Fore
SplineSet
603 856.031584898 m 4
 603 854 603 897.537491072 603 897.537491072 c 4
 746 897.537491072 756.195395463 662 601 662 c 260
 563 662 529 689 519 710 c 261
 545 741 l 260
 545 725 579 702 604 702 c 260
 627 702 676 718 676 777 c 260
 676 790.104876326 669.893767697 842.900262625 603 856.031584898 c 4
546 895.847405674 m 0
 545 892 546 855.968505354 546 855.968505354 c 1
 546 855.968505354 377 797 463 592.727 c 256
 463 470.656 l 257
 423 470.656 l 257
 423 594 l 256
 355.361690988 739.330961255 429.244114201 873.801032992 546 895.847405674 c 0
603 856.031584898 m 1024
EndSplineSet
Refer: 16 2970 N 1 0 0 1 0 -0.273438 2
Validated: 524325
EndChar

StartChar: tml_CIi.alt
Encoding: 13 -1 13
GlifName: tml_C_I_i.alt
Width: 731
VWidth: 0
GlyphClass: 2
Flags: HW
LayerCount: 2
Fore
SplineSet
369 861.788127205 m 0
 303.91143417 854.481798268 245.562913963 838.713492004 213.973632812 823 c 256
 80.6298828125 756.670898438 59.45703125 533.0234375 116.973632812 316 c 257
 84.9736328125 285 l 257
 14.9736328125 511 32.8358705667 768.777484915 190.973632812 855 c 256
 257 891 369 903.621828552 369 903.621828552 c 1
 369 903.621828552 368 861 369 861.788127205 c 0
424 865.724531 m 0
 425 865 424 906.541590361 424 906.541590361 c 1
 424 906.541590361 523 903 573.593 888.79 c 257
 657.882 864.126 691.84 806.319 691.651 752 c 256
 691.405 681.328 633.358 616.561 553.155 638.375 c 256
 509.732 650.186 484.011 685.162 478.468 710.506 c 257
 514.146 735 l 256
 509.947 719.562 538.678 683.538 562.764 677.515 c 256
 588.765 671.012 633.554 678.688 649.038 735.62 c 256
 662.16 783.867 619.062 834.97 564.06 849.93 c 257
 521.757696862 862.961823396 472.562125215 867.159300343 424 865.724531 c 0
EndSplineSet
Refer: 16 2970 N 1 0 0 1 -0.000167188 0 2
Validated: 524325
EndChar

StartChar: tml_CU
Encoding: 14 -1 14
GlifName: tml_C_U_
Width: 706
VWidth: 0
GlyphClass: 2
Flags: HW
HStem: -1 123 249 62 348 23 470 122
VStem: -17 121 108 163 108 122 363 122 539 160 549 122
LayerCount: 2
Fore
SplineSet
40.044576374 168 m 0
 40 168 80.7476299179 168 80.7476299179 168 c 0
 80.7476299179 82 171.588035249 39 231 39 c 257
 231 -1 l 257
 61.6242138648 -0.0287617859161 41.0858991167 120.742042327 40.044576374 168 c 0
80.677595928 205 m 0
 82 206 39.7665942503 202.025867721 40.2143454954 205 c 0
 50 270 80.0131694508 371 246 371 c 258
 452 371 l 257
 452 331 l 257
 239 331 l 258
 186.596920353 331 89.6985852093 314.659672854 80.677595928 205 c 0
284 -1 m 257
 284 39 l 257
 366.47 39 405.679 98 406 187 c 258
 406 588 l 257
 446 588 l 257
 446 191 l 258
 446 95 407.534 -1 284 -1 c 257
165 348 m 257
 165 586 l 257
 206 586 l 257
 205 348 l 257
 165 348 l 257
165 555 m 257
 165 595 l 257
 289 595 l 257
 289 555 l 257
 165 555 l 257
343 555 m 257
 343 595 l 257
 593 595 l 257
 593 555 l 257
 343 555 l 257
593 0 m 257
 593 340 l 257
 633 340 l 257
 633 0 l 257
 593 0 l 257
501 331 m 257
 501 371 l 257
 680 371 l 257
 680 331 l 257
 501 331 l 257
EndSplineSet
Validated: 37
PickledDataWithLists: "(dp1
S'com.fontlab.hintData'
p2
(dp3
S'vhints'
p4
(lp5
(dp6
S'position'
p7
L-17L
sS'width'
p8
L121L
sa(dp9
g7
L108L
sg8
L163L
sa(dp10
g7
L108L
sg8
L122L
sa(dp11
g7
L363L
sg8
L122L
sa(dp12
g7
L539L
sg8
L160L
sa(dp13
g7
L549L
sg8
L122L
sasS'hhints'
p14
(lp15
(dp16
g7
L-1L
sg8
L123L
sa(dp17
g7
L249L
sg8
L62L
sa(dp18
g7
L348L
sg8
L23L
sa(dp19
g7
L470L
sg8
L122L
sass."
EndChar

StartChar: tml_CUu
Encoding: 15 -1 15
GlifName: tml_C_U_u
Width: 1101
VWidth: 0
GlyphClass: 2
Flags: W
HStem: -208 40<176.64 549 604 967.287> -1 40<309.093 396 449 526.05> 175 40<885 955.981> 331 40<373.766 812 852 912> 331 10<812 852> 404 40<171.871 238> 555 40<372 454 508 820> 555 31<331 331 589 629>
VStem: 81 40<-93.2507 350.095> 206 40<102.607 264.505> 331 40<348 555> 589 40<103.93 588> 812 40<0 341> 1008 40<-130.647 125.229>
LayerCount: 2
Fore
SplineSet
331 348 m 257xe5fc
 331 586 l 257
 372 586 l 257
 371 348 l 257
 331 348 l 257xe5fc
331 555 m 257
 331 595 l 257
 454 595 l 257
 454 555 l 257xe6fc
 331 555 l 257
820 554.727 m 257
 508 555 l 257
 508 595 l 257
 820 594.727 l 257
 820 554.727 l 257
449 -1 m 257
 449 39 l 257
 543.637 39 588.632 98 589 187 c 258
 589 588 l 257
 629 588 l 257
 629 191 l 258
 629 95 586.261 -1 449 -1 c 257
206 172 m 258
 206 196 l 258
 206 259 238 371 412 371 c 258
 912 371 l 257
 912 331 l 257
 405 331 l 258xf4fc
 350 331 245.985 313 246 188 c 256
 246.013 58 333.632 39 396 39 c 257
 396 -1 l 257
 222.521 0 206 128 206 172 c 258
812 0 m 257
 812 341 l 257
 852 341 l 257xecfc
 852 0 l 257
 812 0 l 257
604 -168 m 257
 905 -168 l 258
 956.412109375 -168 1008 -131.5078125 1008 -84 c 258
 1008 60 l 258
 1008 159 917 175 885 175 c 257
 885 215 l 257
 946 209 1048 182 1048 64 c 258
 1048 -84 l 258
 1048 -142.284179688 998.6796875 -208 906 -208 c 258
 604 -208 l 257
 604 -168 l 257
81 30 m 258
 81 273 l 258
 81 402.364 170.94 444 238 444 c 256
 238 404 l 256
 180.604 404 121 369.609 121 268 c 258
 121 29 l 258
 121 -90 160 -168 230 -168 c 258
 549 -168 l 257
 549 -208 l 257
 233 -208 l 258
 119 -208 81 -107 81 30 c 258
EndSplineSet
Validated: 37
PickledDataWithLists: "(dp1
S'com.fontlab.hintData'
p2
(dp3
S'vhints'
p4
(lp5
(dp6
S'position'
p7
L39L
sS'width'
p8
L123L
sa(dp9
g7
L205L
sg8
L121L
sa(dp10
g7
L330L
sg8
L163L
sa(dp11
g7
L330L
sg8
L122L
sa(dp12
g7
L585L
sg8
L122L
sa(dp13
g7
L771L
sg8
L122L
sa(dp14
g7
L988L
sg8
L122L
sasS'hhints'
p15
(lp16
(dp17
g7
L-198L
sg8
L122L
sa(dp18
g7
L-1L
sg8
L123L
sa(dp19
g7
L249L
sg8
L62L
sa(dp20
g7
L348L
sg8
L23L
sa(dp21
g7
L360L
sg8
L122L
sa(dp22
g7
L470L
sg8
L122L
sass."
EndChar

StartChar: tml_Ca
Encoding: 16 2970 16
GlifName: tml_C_a
Width: 650
VWidth: 0
GlyphClass: 2
Flags: HW
HStem: -1 123 249 122 348 23 470 125 470 118
VStem: 1 121 126 163 126 122 381 122
AnchorPoint: "tml_virama" 311 0 basechar 0
LayerCount: 2
Fore
SplineSet
40.5206426746 158 m 0
 81.7334502906 158 l 0
 81.7334502906 88 154 39 230 39 c 256
 230 -1 l 257
 72.3685098638 -0.0913485524939 40.5206426746 109 40.5206426746 158 c 0
80.5979713693 204 m 0
 40.1695886834 204 l 0
 40.1695886834 306 113 371 246 371 c 258
 565 371 l 257
 565 331 l 257
 239 331 l 258
 147 331 80.5979713693 293 80.5979713693 204 c 0
283 -1 m 257
 283 39 l 257
 377.637 39 422.632 98 423 187 c 258
 423 588 l 257
 463 588 l 257
 463 191 l 258
 463 95 420.261 -1 283 -1 c 257
165 348 m 257
 165 586 l 257
 206 586 l 257
 205 348 l 257
 165 348 l 257
342 555 m 257
 342 595 l 257
 610 595 l 257
 610 555 l 257
 342 555 l 257
165 555 m 257
 165 595 l 257
 288 595 l 257
 288 555 l 257
 165 555 l 257
EndSplineSet
Validated: 8912901
PickledDataWithLists: "(dp1
S'com.fontlab.hintData'
p2
(dp3
S'vhints'
p4
(lp5
(dp6
S'position'
p7
L1L
sS'width'
p8
L121L
sa(dp9
g7
L126L
sg8
L163L
sa(dp10
g7
L126L
sg8
L122L
sa(dp11
g7
L381L
sg8
L122L
sasS'hhints'
p12
(lp13
(dp14
g7
L-1L
sg8
L123L
sa(dp15
g7
L249L
sg8
L122L
sa(dp16
g7
L348L
sg8
L23L
sa(dp17
g7
L470L
sg8
L125L
sa(dp18
g7
L470L
sg8
L118L
sass."
EndChar

StartChar: tml_Credit
Encoding: 17 3063 17
GlifName: tml_C_redit
Width: 1026
VWidth: 0
GlyphClass: 2
Flags: W
LayerCount: 2
Fore
SplineSet
750 306 m 257
 750 336 l 257
 834.829 336 860.098 259 861 197 c 257
 861 31 l 257
 927 31 l 257
 927 1 l 257
 795 1 l 257
 795 31 l 257
 799 32 831 33 831 43 c 258
 831 197 l 257
 830.129 235 817.936 306 750 306 c 257
40 172 m 258
 40 196 l 258
 40 300 116 359 192 359 c 257
 192 319 l 256
 154.616 319 79 295 79 181 c 256
 79 91 141.872 40 192 40 c 257
 192 0 l 256
 103.628 0 40 88 40 172 c 258
247 0 m 257
 247 40 l 257
 291.449 40 341 88 341 182.617 c 256
 341 282 289.264 319 247 319 c 257
 247 359 l 256
 320.184 359 383 292 383 196 c 258
 383 173 l 258
 383.805 75 319.207 0 247 0 c 257
592 84 m 258
 592 122 l 258
 592 180 648.421 200 672 200 c 257
 672 170 l 256
 659.692 170 622 158 622 100 c 256
 622 43 658.154 30 672 30 c 257
 672 0 l 256
 624.842 0 592 51 592 84 c 258
703 0 m 257
 703 30 l 257
 717.571 30 754 41 754 100 c 256
 754 156 716.762 170 703 170 c 257
 703 200 l 256
 749.161 200 784 153 784 110 c 258
 784 92 l 258
 784 51 755.258 0 703 0 c 257
40 204 m 257
 40 302 l 257
 40 464.357 126.769 597 267 597 c 257
 267 557 l 257
 150.019 557 81.708 439.146 80 306 c 256
 40 204 l 257
592 125 m 257
 592 169 l 257
 592 240 617.083 336 721 336 c 257
 721 306 l 257
 688.044 306 623.867 285 623 176 c 256
 592 125 l 257
485.991 0 m 257
 485.991 577 l 257
 525.991 577 l 257
 525.991 0 l 257
 485.991 0 l 257
321.991 555 m 257
 321.991 595 l 257
 626.991 595 l 257
 626.991 555 l 257
 321.991 555 l 257
521 150 m 257
 521 180 l 257
 622 180 l 257
 622 150 l 257
 521 150 l 257
957 1 m 257
 957 330 l 257
 986 330 l 257
 986 1 l 257
 957 1 l 257
EndSplineSet
Validated: 37
EndChar

StartChar: tml_Day
Encoding: 18 3059 18
GlifName: tml_D_ay
Width: 926
VWidth: 0
GlyphClass: 2
Flags: W
LayerCount: 2
Fore
SplineSet
247 0 m 261
 247 40 l 261
 291.449 40 341 88 341 182.617 c 260
 341 282 289.264 319 247 319 c 261
 247 359 l 260
 320.184 359 383 292 383 196 c 262
 383 173 l 262
 383.805 75 319.207 0 247 0 c 261
40 172 m 262
 40 196 l 262
 40 300 116 359 192 359 c 261
 192 319 l 260
 154.616 319 79 295 79 181 c 260
 79 91 141.872 40 192 40 c 261
 192 0 l 260
 103.628 0 40 88 40 172 c 262
40 204 m 257
 40 302 l 257
 40 468.761 125.239 605 263 605 c 257
 263 565 l 257
 148.521 565 81.6709 443.391 80 306 c 256
 40 204 l 257
314 565 m 257
 314 605 l 257
 476 605 530 466 531 355 c 257
 531 40 l 257
 886 40 l 257
 886 0 l 257
 417 0 l 257
 417 40 l 257
 484 40 490 40 490 76 c 258
 490 354 l 257
 489 473 431 565 314 565 c 257
EndSplineSet
Validated: 37
EndChar

StartChar: tml_Debit
Encoding: 19 3062 19
GlifName: tml_D_ebit
Width: 589
VWidth: 0
GlyphClass: 2
Flags: W
LayerCount: 2
Fore
SplineSet
216 -218 m 257
 275.125 -218 304 -185 304 -103 c 258
 304 21 l 257
 304 239 l 257
 344 239 l 256
 344 18 l 256
 344 -81 l 258
 344 -159 335.619 -258 216 -258 c 257
 216 -218 l 257
40 -150 m 258
 40 -98.9131 78.2256 -56 151 -56 c 258
 509 -56 l 257
 509 381 l 256
 549 381 l 256
 549 -95 l 257
 151 -95 l 258
 56 -95 57 -218 150 -218 c 258
 163 -218 l 257
 163 -258 l 257
 150 -258 l 258
 114.066 -258 40.7334 -238 40 -156 c 258
 40 -150 l 258
49 146 m 258
 49 595 l 257
 89 595 l 257
 89 146 l 258
 89 65 130.544 40 163 40 c 257
 163 0 l 257
 88.9736 0 49 68 49 146 c 258
217 0 m 257
 217 40 l 257
 259.244 40 304 44.7842 304 162 c 258
 304 487 l 257
 344 487 l 257
 344 162 l 258
 344 -14.8311 255.245 0 217 0 c 257
EndSplineSet
Validated: 37
EndChar

StartChar: tml_E
Encoding: 20 2958 20
GlifName: tml_E_
Width: 656
VWidth: 0
GlyphClass: 2
Flags: W
HStem: 1 122 238 123 472 123 472 105
VStem: 2 171 2 131 2 124 280 123 447 123
LayerCount: 2
Fore
SplineSet
40 172 m 258
 40 196 l 258
 40 300 116 359 192 359 c 257
 192 319 l 256
 154.616 319 79 295 79 181 c 256
 79 91 141.872 40 192 40 c 257
 192 0 l 256
 103.628 0 40 88 40 172 c 258
247 0 m 257
 247 40 l 257
 291.449 40 341 88 341 182.617 c 256
 341 282 289.264 319 247 319 c 257
 247 359 l 256
 320.184 359 383 292 383 196 c 258
 383 173 l 258
 383.805 75 319.207 0 247 0 c 257
40 204 m 257
 40 302 l 257
 40 464.357 126.769 597 267 597 c 257
 267 557 l 257
 150.019 557 81.708 439.146 80 306 c 256
 40 204 l 257
485.991 0 m 257
 485.991 577 l 257
 525.991 577 l 257
 525.991 0 l 257
 485.991 0 l 257
321.991 555 m 257
 321.991 595 l 257
 626.991 595 l 257
 626.991 555 l 257
 321.991 555 l 257
EndSplineSet
Validated: 37
PickledDataWithLists: "(dp1
S'com.fontlab.hintData'
p2
(dp3
S'vhints'
p4
(lp5
(dp6
S'position'
p7
L2L
sS'width'
p8
L171L
sa(dp9
g7
L2L
sg8
L131L
sa(dp10
g7
L2L
sg8
L124L
sa(dp11
g7
L280L
sg8
L123L
sa(dp12
g7
L447L
sg8
L123L
sasS'hhints'
p13
(lp14
(dp15
g7
L1L
sg8
L122L
sa(dp16
g7
L238L
sg8
L123L
sa(dp17
g7
L472L
sg8
L123L
sa(dp18
g7
L472L
sg8
L105L
sass."
EndChar

StartChar: tml_Ee
Encoding: 21 2959 21
GlifName: tml_E_e
Width: 656
VWidth: 0
GlyphClass: 2
Flags: W
HStem: 1 122 238 123 472 105 472 123
VStem: 2 124 2 131 2 171 280 123 447 123 447 123
LayerCount: 2
Fore
SplineSet
326.991 -176 m 257
 485.991 15 l 257
 485.991 577 l 257
 525.991 577 l 257
 525.991 0 l 256
 377.991 -176 l 257
 326.991 -176 l 257
EndSplineSet
Refer: 20 2958 N 1 0 0 1 0 0 2
Validated: 5
PickledDataWithLists: "(dp1
S'com.fontlab.hintData'
p2
(dp3
S'vhints'
p4
(lp5
(dp6
S'position'
p7
L2L
sS'width'
p8
L124L
sa(dp9
g7
L2L
sg8
L131L
sa(dp10
g7
L2L
sg8
L171L
sa(dp11
g7
L280L
sg8
L123L
sa(dp12
g7
L447L
sg8
L123L
sa(dp13
g7
L447L
sg8
L123L
sasS'hhints'
p14
(lp15
(dp16
g7
L1L
sg8
L122L
sa(dp17
g7
L238L
sg8
L123L
sa(dp18
g7
L472L
sg8
L105L
sa(dp19
g7
L472L
sg8
L123L
sass."
EndChar

StartChar: tml_Eight
Encoding: 22 3054 22
GlifName: tml_E_ight
Width: 937
VWidth: 0
GlyphClass: 2
Flags: HW
LayerCount: 2
Fore
SplineSet
375.414516984 441 m 0
 402.753813257 330.061923055 508.26953125 263.590820312 558 224 c 256
 495 226 l 256
 428.988059133 272.739424292 370 341 333.599716407 441 c 0
 333.599716407 441 376 441 375.414516984 441 c 0
510 733.769196376 m 0
 512.030702796 734.453235278 510 689.59375 510 689.59375 c 0
 463 676 384 644 370.177484105 498 c 0
 369.981546841 495.930417246 330.161861533 498 330.161861533 498 c 0
 348 620 386 692 510 733.769196376 c 0
563 691.220185129 m 0
 560.667799659 691.443105113 563 731.987122272 563 731.987122272 c 0
 680 731.987122272 725 605.132027986 725 429 c 257
 725 224 l 257
 685 224 l 257
 685 432 l 258
 685 597.402986601 649 683 563 691.220185129 c 0
40 72 m 256
 40 188 124 233 254 233 c 258
 329 233 l 257
 329 191 l 257
 236 191 l 258
 212 191 80 195.5 80 72 c 256
 80 -48.0156 181 -87 241 -87 c 258
 330 -87 l 257
 330 -127 l 257
 243 -127 l 258
 131 -127 40 -47 40 72 c 256
384 192 m 257
 384 232 l 257
 450.576 232 658.424 232 725 232 c 257
 726 67 l 257
 726 -35 654.365 -127 530 -127 c 258
 386 -127 l 256
 386 -87 l 257
 530 -87 l 258
 616 -86 685 -29 685 69 c 257
 685 192 l 257
 652.523 192 416.477 192 384 192 c 257
684 192 m 257
 684 232 l 257
 859 232 l 257
 859 192 l 257
 684 192 l 257
857 -107 m 257
 857 578 l 257
 897 578 l 257
 897 -107 l 257
 857 -107 l 257
EndSplineSet
Validated: 37
EndChar

StartChar: tml_Four
Encoding: 24 3050 24
GlifName: tml_F_our
Width: 826
VWidth: 0
GlyphClass: 2
Flags: W
LayerCount: 2
Fore
SplineSet
40 172 m 258
 40 196 l 258
 40 259 72 371 246 371 c 258
 751 371 l 257
 751 331 l 257
 239 331 l 258
 184 331 79.9854 313 80 188 c 256
 80.0127 58 167.632 39 230 39 c 257
 230 -1 l 257
 56.5215 0 40 128 40 172 c 258
283 -1 m 257
 283 39 l 257
 377.637 39 422.632 98 423 187 c 258
 423 588 l 257
 463 588 l 257
 463 191 l 258
 463 95 420.261 -1 283 -1 c 257
165 348 m 257
 165 586 l 257
 206 586 l 257
 205 348 l 257
 165 348 l 257
165 555 m 257
 165 595 l 257
 288 595 l 257
 288 555 l 257
 165 555 l 257
342 555 m 257
 342 595 l 257
 610 595 l 257
 610 555 l 257
 342 555 l 257
741 331 m 257
 741 487 l 257
 782 487 l 257
 781 331 l 257
 741 331 l 257
EndSplineSet
Validated: 37
EndChar

StartChar: tml_HI
Encoding: 25 -1 25
GlifName: tml_H_I_
Width: 1436
VWidth: 0
GlyphClass: 2
Flags: HW
LayerCount: 2
Fore
SplineSet
1081 597.1 m 257
 1081 597.1 l 257
 1081 701.1 1118 765.1 1212 765.1 c 256
 1212 765.1 l 257
 1212 725.1 l 256
 1212 725.1 l 256
 1132 725.1 1121 658.1 1121 597.1 c 256
 1081 597.1 l 257
1266 725.1 m 257
 1266 765.1 l 257
 1363 765.1 1396 701.1 1396 599.1 c 258
 1396 2.099609375 l 257
 1356 2.099609375 l 257
 1356 596.1 l 258
 1356 658.1 1352 725.1 1266 725.1 c 257
EndSplineSet
Refer: 29 3001 N 1 0 0 1 0 0 2
Validated: 524293
EndChar

StartChar: tml_HIi
Encoding: 26 -1 26
GlifName: tml_H_I_i
Width: 1417
VWidth: 0
GlyphClass: 2
Flags: HW
LayerCount: 2
Fore
SplineSet
1083 571.756 m 257
 1083 596.1 l 256
 1009 755.1 1104.39 901.1 1240 901.1 c 256
 1414 901.1 1423.69 664.1 1261 664.1 c 256
 1223 664.1 1189 691.1 1179 712.1 c 257
 1205 743.1 l 256
 1205 727.1 1239 704.1 1264 704.1 c 256
 1287 704.1 1336 720.1 1336 779.1 c 256
 1336 794.1 1328 861.1 1230 861.1 c 257
 1147.68 860.67 1050 753.1 1125 594.826 c 256
 1125 571.756 l 257
 1083 571.756 l 257
EndSplineSet
Refer: 29 3001 S 1 0 0 1 0 0 2
Validated: 524325
EndChar

StartChar: tml_HU
Encoding: 27 -1 27
GlifName: tml_H_U_
Width: 1653
VWidth: 0
GlyphClass: 2
Flags: HW
LayerCount: 2
Fore
SplineSet
1127 564 m 257
 1127 604 l 257
 1448 604 l 258
 1563 604 1613 553 1613 486 c 258
 1613 479 l 258
 1613 420 1561 366 1506 366 c 258
 1494 366 l 258
 1425 366 1383 429 1383 479 c 257
 1423 479 l 256
 1423 459 1440 406 1499 406 c 256
 1554 406 1573 460 1573 478 c 256
 1573 533 1541 564 1444 564 c 258
 1127 564 l 257
EndSplineSet
Refer: 29 3001 N 1 0 0 1 0 0 2
Validated: 524293
EndChar

StartChar: tml_HUu
Encoding: 28 -1 28
GlifName: tml_H_U_u
Width: 1801
VWidth: 0
GlyphClass: 2
Flags: HW
LayerCount: 2
Fore
SplineSet
1127 563.727 m 257
 1127 603.727 l 257
 1445 603.727 l 258
 1560 603.727 1610 552.727 1610 485.727 c 258
 1610 478.727 l 258
 1610 419.727 1558 365.727 1503 365.727 c 258
 1491 365.727 l 258
 1422 365.727 1380 428.727 1380 478.727 c 257
 1420 478.727 l 256
 1420 458.727 1437 405.727 1496 405.727 c 256
 1551 405.727 1570 459.727 1570 477.727 c 256
 1570 532.727 1538 563.727 1441 563.727 c 258
 1127 563.727 l 257
1377 600.727 m 256
 1377 742.727 1454 800.727 1569 800.727 c 256
 1672 800.727 1761 749.727 1761 644.727 c 258
 1761 320.727 l 258
 1761 242.727 1724 195.727 1623 195.727 c 258
 1564 195.727 l 256
 1564 235.727 l 256
 1623 235.727 l 258
 1669 235.727 1721 238.727 1721 320.727 c 258
 1721 644.727 l 258
 1721 701.727 1679 760.727 1569 760.727 c 256
 1462 760.727 1417 702.727 1417 600.727 c 257
 1377 600.727 l 256
EndSplineSet
Refer: 29 3001 N 1 0 0 1 0 0 2
Validated: 524293
EndChar

StartChar: tml_Ha
Encoding: 29 3001 29
GlifName: tml_H_a
Width: 1311
VWidth: 0
GlyphClass: 2
Flags: HW
HStem: -155 122 0 123 237 123 474 122 481 123
VStem: 39 172 39 125 92 122 312 123 487 121 731 129 982 122 1236 122
AnchorPoint: "tml_virama" 1021 0 basechar 0
LayerCount: 2
Fore
SplineSet
1211.13634961 246 m 0
 1209 246 1251.55365854 246 1251.55365854 246 c 1
 1252 63 l 258
 1252 -35.3119 1199.68 -123.275 1099 -125 c 258
 212 -125 l 258
 166.065 -125 142 -154.654 142 -256 c 257
 102 -256 l 257
 102 -135.564 138.006 -85 218 -85 c 256
 305.054 -85 1013.78 -85 1098 -85 c 256
 1165.33 -85 1214 -24 1212.91992188 69 c 258
 1211.13634961 246 l 0
1251.39268293 312 m 25
 1210.47125964 312 l 1
 1209 458 l 258
 1209 558 1141.79 564 1127 564 c 257
 1127 604 l 257
 1212.44 604 1251 528 1251 473 c 258
 1251.39268293 312 l 25
314 565 m 257
 314 605 l 257
 476 605 530 466 531 355 c 257
 531 40 l 257
 656 40 l 257
 656 0 l 257
 417 0 l 257
 417 40 l 257
 484 40 490 40 490 76 c 258
 490 354 l 257
 489 473 431 565 314 565 c 257
876 564 m 257
 876 604 l 257
 922 604 952 591.862 976 560 c 257
 1004 594.897 1037 604 1076 604 c 257
 1076 564 l 257
 1040 564 994.628 542.033 995 457 c 258
 997 0 l 257
 957 0 l 257
 955 456 l 258
 954.623 542 918 564 876 564 c 257
40 172 m 258
 40 196 l 258
 40 300 116 359 192 359 c 257
 192 319 l 256
 154.616 319 79 295 79 181 c 256
 79 91 141.872 40 192 40 c 257
 192 0 l 256
 103.628 0 40 88 40 172 c 258
247 0 m 257
 247 40 l 257
 291.449 40 341 88 341 182.617 c 256
 341 282 289.264 319 247 319 c 257
 247 359 l 256
 320.184 359 383 292 383 196 c 258
 383 173 l 258
 383.805 75 319.207 0 247 0 c 257
708 0 m 257
 708 477 l 258
 708 527 738.549 604 822 604 c 257
 822 564 l 257
 760.158 564 746.877 500.999 747 472 c 258
 749 0 l 257
 708 0 l 257
40 204 m 257
 40 302 l 257
 40 468.761 125.239 605 263 605 c 257
 263 565 l 257
 148.521 565 81.6709 443.391 80 306 c 256
 40 204 l 257
EndSplineSet
Validated: 8912933
PickledDataWithLists: "(dp1
S'com.fontlab.hintData'
p2
(dp3
S'vhints'
p4
(lp5
(dp6
S'position'
p7
L39L
sS'width'
p8
L172L
sa(dp9
g7
L39L
sg8
L125L
sa(dp10
g7
L92L
sg8
L122L
sa(dp11
g7
L312L
sg8
L123L
sa(dp12
g7
L487L
sg8
L121L
sa(dp13
g7
L731L
sg8
L129L
sa(dp14
g7
L982L
sg8
L122L
sa(dp15
g7
L1236L
sg8
L122L
sasS'hhints'
p16
(lp17
(dp18
g7
L-155L
sg8
L122L
sa(dp19
g7
L0L
sg8
L123L
sa(dp20
g7
L237L
sg8
L123L
sa(dp21
g7
L474L
sg8
L122L
sa(dp22
g7
L481L
sg8
L123L
sass."
EndChar

StartChar: tml_Hundred
Encoding: 30 3057 30
GlifName: tml_H_undred
Width: 765
VWidth: 0
GlyphClass: 2
Flags: W
LayerCount: 2
Fore
SplineSet
582 0 m 257
 582 570 l 257
 622 570 l 256
 622 0 l 256
 582 0 l 257
459 566 m 257
 459 606 l 257
 725 606 l 257
 725 566 l 257
 459 566 l 257
40 0 m 257
 40 479 l 258
 40 551 77.2832 606 151 606 c 257
 151 566 l 257
 128.062 566 78.5107 557.036 79 478 c 258
 82 0 l 257
 40 0 l 257
206 566 m 257
 206 606 l 257
 252 606 276.546 597 306 566 c 257
 334 606.667 366 606 405 606 c 257
 405 566 l 257
 358 566 324.702 555.001 325 483 c 258
 327 0 l 257
 287 0 l 257
 284 482 l 258
 283.638 541.003 255 566 206 566 c 257
EndSplineSet
Validated: 37
EndChar

StartChar: tml_I
Encoding: 31 2951 31
GlifName: tml_I_
Width: 1081
VWidth: 0
GlyphClass: 2
Flags: HW
HStem: -141 119 35 121 131 11 136 122 141 90 279 122 424 121 583 123
VStem: 7 121 310 89 627 54 752 122 912 122 949 123
LayerCount: 2
Fore
SplineSet
372 410 m 0
 372.103515625 410 331.803710938 410 331.803710938 410 c 1
 331.803710938 410 343 239 522 239 c 256
 611 239 686 296 691 359 c 256
 659 393 l 256
 659 325 593 279 522 279 c 256
 441.875976562 279 380.083984375 325.817382812 372 410 c 0
374 466 m 0
 372.546875 465 333.891601562 466 333.891601562 466 c 1
 333.891601562 466 346 645 588 645 c 256
 742.737304688 645 833 535 833 343 c 257
 833 214 l 257
 793 214 l 257
 793 346 l 258
 793 533 701.795898438 605 588 605 c 256
 460.655273438 605 380.779296875 555.159179688 374 466 c 0
45 21 m 256
 45 137 129 182 259 182 c 258
 501 182 l 257
 501 140 l 257
 241 140 l 258
 217 140 85 144.5 85 21 c 256
 85 -99.015625 186 -138 246 -138 c 258
 502 -138 l 257
 502 -178 l 257
 248 -178 l 258
 136 -178 45 -98 45 21 c 256
556 141 m 257
 556 181 l 257
 619.26953125 181 769.73046875 181 833 181 c 257
 834 16 l 257
 834 -86 776.619140625 -178 677 -178 c 258
 558 -178 l 256
 558 -138 l 257
 678 -138 l 258
 741.805664062 -137 793 -80 793 18 c 257
 793 141 l 257
 762.5390625 141 586.4609375 141 556 141 c 257
799 -169 m 257
 818 -130 l 257
 881 -138 990 -99 990 29 c 256
 990 83 968 141 833 141 c 257
 833 181 l 257
 972 181 1030 120 1030 36 c 258
 1030 2 l 257
 1030 -66 956 -188 799 -169 c 257
633 800.918945312 m 0
 633 800 633 760.927734375 633 760.927734375 c 1
 873.620117188 738.985351562 967.756835938 544.178710938 961 244 c 257
 1001 244 l 257
 1007.78417969 610.830078125 869.26953125 780.626953125 633 800.918945312 c 0
579 802.799804688 m 0
 579 762.686523438 l 1
 342.30859375 753.861328125 229.263671875 590.018554688 231.643554688 369 c 0
 232.325195312 305.66015625 251.665039062 210.088867188 269 146 c 257
 223 142 l 257
 206.532226562 211.549804688 188.4375 308.774414062 188.337890625 372 c 0
 187.926757812 632.934570312 333.688476562 795.752929688 579 802.799804688 c 0
230 114 m 257
 277 114 l 257
 299.7109375 -2 377 -95 495 -146.06640625 c 257
 455 -170.06640625 l 256
 348 -122 262.625 -18 230 114 c 257
EndSplineSet
Validated: 8912933
PickledDataWithLists: "(dp1
S'com.fontlab.hintData'
p2
(dp3
S'vhints'
p4
(lp5
(dp6
S'position'
p7
L39L
sS'width'
p8
L121L
sa(dp9
g7
L342L
sg8
L89L
sa(dp10
g7
L659L
sg8
L54L
sa(dp11
g7
L784L
sg8
L122L
sa(dp12
g7
L944L
sg8
L122L
sa(dp13
g7
L981L
sg8
L123L
sasS'hhints'
p14
(lp15
(dp16
g7
L-141L
sg8
L119L
sa(dp17
g7
L35L
sg8
L121L
sa(dp18
g7
L131L
sg8
L11L
sa(dp19
g7
L136L
sg8
L122L
sa(dp20
g7
L141L
sg8
L90L
sa(dp21
g7
L279L
sg8
L122L
sa(dp22
g7
L424L
sg8
L121L
sa(dp23
g7
L583L
sg8
L123L
sass."
EndChar

StartChar: tml_Ii
Encoding: 32 2952 32
GlifName: tml_I_i
Width: 585
VWidth: 0
GlyphClass: 2
Flags: HW
VStem: -374618 385810 -374618 264432 -73339 270934 550893 270934
LayerCount: 2
Fore
SplineSet
421.860351562 253.116210938 m 256
 421.860351562 278.41796875 442.698242188 300 468 300 c 256
 493.302734375 300 514.883789062 278.41796875 514.883789062 253.116210938 c 256
 514.883789062 227.813476562 493.302734375 206.9765625 468 206.9765625 c 256
 442.698242188 206.9765625 421.860351562 227.813476562 421.860351562 253.116210938 c 256
177.474609375 253.568359375 m 256
 177.474609375 278.870117188 198.311523438 300.452148438 223.614257812 300.452148438 c 256
 248.916992188 300.452148438 270.498046875 278.870117188 270.498046875 253.568359375 c 256
 270.498046875 228.265625 248.916992188 207.428710938 223.614257812 207.428710938 c 256
 198.311523438 207.428710938 177.474609375 228.265625 177.474609375 253.568359375 c 256
343 0 m 257
 383 0 l 257
 383 594 l 257
 343 594 l 257
 343 0 l 257
60 1 m 257
 60 593 l 257
 100 594 l 257
 100 1 l 257
 60 1 l 257
248 555 m 257
 525 555 l 257
 525 596 l 257
 248 596 l 257
 248 555 l 257
60 555 m 257
 60 596 l 257
 194 596 l 257
 194 555 l 257
 60 555 l 257
EndSplineSet
Validated: 8912901
PickledDataWithLists: "(dp1
S'com.fontlab.hintData'
p2
(dp3
S'vhints'
p4
(lp5
(dp6
S'position'
p7
L-374597L
sS'width'
p8
L385810L
sa(dp9
g7
L-374597L
sg8
L264432L
sa(dp10
g7
L-73318L
sg8
L270934L
sa(dp11
g7
L550914L
sg8
L270934L
sass."
EndChar

StartChar: tml_JI
Encoding: 33 -1 33
GlifName: tml_J_I_
Width: 995
VWidth: 0
GlyphClass: 2
Flags: W
LayerCount: 2
Fore
SplineSet
258 -180 m 257
 131.84 -180 65 -57 65 25 c 258
 65 64 l 258
 65 138 109.903 236 234 236 c 258
 651 236 l 258
 785 236 794.868 291 799 419 c 257
 799 502 l 257
 799 617.784 723 643 650 643 c 257
 584 643 514 619.625 514 464 c 258
 514 371 l 257
 475 371 l 257
 475 480 l 258
 475 605.611 530 683 647 683 c 257
 780 683 839 617.396 839 502 c 257
 839 387 l 258
 837 218 745 196 665 196 c 258
 227 196 l 258
 182.013 196 105 172 105 46 c 256
 105 -78 185.905 -140 258 -140 c 257
 258 -180 l 257
40 471 m 258
 41 496 l 258
 41 581 151.195 686.299 201 686 c 256
 314.999 685.316 372 604 372 499 c 258
 372 471 l 258
 372 410 307.122 307 232 307 c 257
 232 344 l 257
 255.52 344 335 394 335 499 c 256
 335 612 259.246 649 207.375 649 c 256
 162.351 649 81 595.727 81 481 c 256
 81 380 156.272 343 178 343 c 257
 178 307 l 257
 98.1924 307 40 397 40 471 c 258
40 472 m 257
 40 482 l 258
 40 537 68.5674 696 273 696 c 257
 443 696 514 592 514 460 c 258
 514 320 l 257
 475 320 l 257
 475 481 l 258
 475 537 434 660 274 660 c 256
 160.25 660 80.0967 616 78 483 c 257
 40 472 l 257
319 -140 m 257
 394 -140 456.302 -124.726 462 -23 c 256
 467.899 82.3105 471 140 558 140 c 257
 593 140 l 257
 593 100 l 257
 560 100 l 257
 501 100 512.373 65.0674 501 -59 c 256
 494.062 -134.682 426 -180 319 -180 c 257
 319 -140 l 257
640.133 677 m 257
 640.133 677 l 257
 640.133 781 677.133 845 771.133 845 c 256
 771.133 845 l 257
 771.133 805 l 256
 771.133 805 l 256
 691.133 805 680.133 738 680.133 677 c 256
 640.133 677 l 257
548 -137 m 256
 619 -137 795.138 -138 793 -14 c 256
 791.207 90 679 99 647 100 c 257
 647 140 l 257
 734 140 833 97 833 -16 c 256
 833 -151 703 -177 548 -177 c 256
 548 -137 l 256
825.133 805 m 257
 825.133 845 l 257
 922.133 845 955.133 781 955.133 679 c 258
 955.133 68 l 257
 915.133 68 l 257
 915.133 676 l 258
 915.133 738 911.133 805 825.133 805 c 257
EndSplineSet
Validated: 37
EndChar

StartChar: tml_JIi
Encoding: 34 -1 34
GlifName: tml_J_I_i
Width: 973
VWidth: 0
GlyphClass: 2
Flags: W
LayerCount: 2
Fore
SplineSet
258 -180 m 257
 131.84 -180 65 -57 65 25 c 258
 65 64 l 258
 65 138 109.903 236 234 236 c 258
 651 236 l 258
 785 236 794.868 291 799 419 c 257
 799 502 l 257
 799 617.784 723 643 650 643 c 257
 584 643 514 619.625 514 464 c 258
 514 371 l 257
 475 371 l 257
 475 480 l 258
 475 605.611 530 683 647 683 c 257
 780 683 839 617.396 839 502 c 257
 839 387 l 258
 837 218 745 196 665 196 c 258
 227 196 l 258
 182.013 196 105 172 105 46 c 256
 105 -78 185.905 -140 258 -140 c 257
 258 -180 l 257
40 471 m 258
 41 496 l 258
 41 581 151.195 686.299 201 686 c 256
 314.999 685.316 372 604 372 499 c 258
 372 471 l 258
 372 410 307.122 307 232 307 c 257
 232 344 l 257
 255.52 344 335 394 335 499 c 256
 335 612 259.246 649 207.375 649 c 256
 162.351 649 81 595.727 81 481 c 256
 81 380 156.272 343 178 343 c 257
 178 307 l 257
 98.1924 307 40 397 40 471 c 258
639 656.656 m 257
 639 680 l 256
 565 839 660.394 985 796 985 c 256
 970 985 979.69 748 817 748 c 256
 779 748 745 775 735 796 c 257
 761 827 l 256
 761 811 795 788 820 788 c 256
 843 788 892 804 892 863 c 256
 892 878 884 945 786 945 c 257
 703.677 944.57 604 837 679 678.727 c 256
 680 656.656 l 257
 639 656.656 l 257
40 472 m 257
 40 482 l 258
 40 537 68.5674 696 273 696 c 257
 443 696 514 592 514 460 c 258
 514 320 l 257
 475 320 l 257
 475 481 l 258
 475 537 434 660 274 660 c 256
 160.25 660 80.0967 616 78 483 c 257
 40 472 l 257
319 -140 m 257
 394 -140 456.302 -124.726 462 -23 c 256
 467.899 82.3105 471 140 558 140 c 257
 593 140 l 257
 593 100 l 257
 560 100 l 257
 501 100 512.373 65.0674 501 -59 c 256
 494.062 -134.682 426 -180 319 -180 c 257
 319 -140 l 257
548 -137 m 256
 619 -137 795.138 -138 793 -14 c 256
 791.207 90 679 99 647 100 c 257
 647 140 l 257
 734 140 833 97 833 -16 c 256
 833 -151 703 -177 548 -177 c 256
 548 -137 l 256
EndSplineSet
Validated: 37
EndChar

StartChar: tml_JU
Encoding: 35 -1 35
GlifName: tml_J_U_
Width: 1201
VWidth: 0
GlyphClass: 2
Flags: HW
LayerCount: 2
Fore
SplineSet
675 644 m 257
 675 684 l 257
 996 684 l 258
 1111 684 1161 633 1161 566 c 258
 1161 559 l 258
 1161 500 1109 446 1054 446 c 258
 1042 446 l 258
 973 446 931 509 931 559 c 257
 971 559 l 256
 971 539 988 486 1047 486 c 256
 1102 486 1121 540 1121 558 c 256
 1121 613 1089 644 992 644 c 258
 675 644 l 257
EndSplineSet
Refer: 37 2972 N 1 0 0 1 -27 0 2
Validated: 524293
EndChar

StartChar: tml_JUu
Encoding: 36 -1 36
GlifName: tml_J_U_u
Width: 1334
VWidth: 0
GlyphClass: 2
Flags: HW
LayerCount: 2
Fore
SplineSet
1097 276 m 256
 1097 316 l 256
 1156 316 l 258
 1202 316 1254 319 1254 401 c 258
 1254 725 l 258
 1254 782 1212 841 1102 841 c 256
 995 841 950 783 950 681 c 257
 910 681 l 256
 910 823 987 881 1102 881 c 256
 1205 881 1294 830 1294 725 c 258
 1294 401 l 258
 1294 323 1257 276 1156 276 c 258
 1097 276 l 256
1024 446 m 258
 955 446 913 509 913 559 c 257
 953 559 l 256
 953 539 970 486 1029 486 c 256
 1084 486 1103 540 1103 558 c 256
 1103 613 1071 644 974 644 c 258
 675 644 l 257
 675 684 l 257
 978 684 l 258
 1093 684 1143 633 1143 566 c 258
 1143 559 l 258
 1143 500 1091 446 1036 446 c 258
 1024 446 l 258
EndSplineSet
Refer: 37 2972 N 1 0 0 1 -27 0 2
Validated: 524293
EndChar

StartChar: tml_Ja
Encoding: 37 2972 37
GlifName: tml_J_a
Width: 886
VWidth: 0
GlyphClass: 2
Flags: HW
HStem: -180 40<197.568 265 326 421.057 555 707.55> 100 40<524.523 600 654 739.595> 196 40<168.15 753.995> 307 36<145.951 185 239 273.255> 644 40<578.728 628 682 740.361> 649 47<122.459 337.519> 660 26<167.25 294.46>
VStem: 47 41<401.296 581> 72 40<-45.9486 136.623> 342 37<419.896 580.566> 482 39<320 605.611> 806 40<-66.7174 36.1991 291.411 582.149>
AnchorPoint: "tml_virama" 511 0 basechar 0
LayerCount: 2
Fore
SplineSet
265 -180 m 257xf8f0
 138.83984375 -180 72 -57 72 25 c 258
 72 64 l 258
 72 138 116.903320312 236 241 236 c 258
 658 236 l 258
 792 236 801.868164062 291 806 419 c 257
 806 502 l 257
 806 617.78515625 718.7109375 638.903320312 682 644 c 257
 682 684 l 257
 768.271484375 677.803710938 846 617.396484375 846 502 c 257
 846 387 l 258
 844 218 752 196 672 196 c 258
 234 196 l 258
 189.01171875 196 112 172 112 46 c 256
 112 -78 192.90625 -140 265 -140 c 257
 265 -180 l 257xf8f0
47 471 m 258xf570
 48 496 l 258
 48 581 158.1953125 686.298828125 208 686 c 256xf370
 321.999023438 685.31640625 379 604 379 499 c 258
 379 471 l 258
 379 410 314.122070312 307 239 307 c 257
 239 344 l 257
 262.51953125 344 342 394 342 499 c 256
 342 612 266.24609375 649 214.375 649 c 256
 169.350585938 649 88 595.7265625 88 481 c 256
 88 380 163.272460938 343 185 343 c 257
 185 307 l 257
 105.193359375 307 47 397 47 471 c 258xf570
47 472 m 257
 47 482 l 258
 47 537 75.5673828125 696 280 696 c 257xf570
 450 696 521 592 521 460 c 258
 521 320 l 257
 482 320 l 257
 482 481 l 258
 482 537 441 660 281 660 c 256
 167.25 660 87.0966796875 616 85 483 c 257
 47 472 l 257
326 -140 m 257
 401 -140 463.30078125 -124.725585938 469 -23 c 256
 474.899414062 82.310546875 478 140 565 140 c 257
 600 140 l 257
 600 100 l 257
 567 100 l 257
 508 100 519.373046875 65.0673828125 508 -59 c 256
 501.061523438 -134.680664062 433 -180 326 -180 c 257
 326 -140 l 257
482 371 m 257
 482 480 l 258
 482 605.611328125 540.037109375 675.5 628 684 c 257
 628 644 l 257xf870
 592.91796875 636.5 521 619.625 521 464 c 258
 521 371 l 257
 482 371 l 257
555 -137 m 256
 626 -137 802.137695312 -138 800 -14 c 256
 798.20703125 90 686 99 654 100 c 257
 654 140 l 257
 741 140 840 97 840 -16 c 256
 840 -151 710 -177 555 -177 c 256
 555 -137 l 256
EndSplineSet
Validated: 524325
PickledDataWithLists: "(dp1
S'com.fontlab.hintData'
p2
(dp3
S'vhints'
p4
(lp5
(dp6
S'position'
p7
L39L
sS'width'
p8
L122L
sa(dp9
g7
L54L
sg8
L122L
sa(dp10
g7
L301L
sg8
L122L
sa(dp11
g7
L409L
sg8
L119L
sa(dp12
g7
L460L
sg8
L122L
sa(dp13
g7
L781L
sg8
L122L
sasS'hhints'
p14
(lp15
(dp16
g7
L-178L
sg8
L123L
sa(dp17
g7
L16L
sg8
L124L
sa(dp18
g7
L158L
sg8
L123L
sa(dp19
g7
L307L
sg8
L125L
sa(dp20
g7
L561L
sg8
L123L
sa(dp21
g7
L569L
sg8
L127L
sass."
EndChar

StartChar: tml_KI
Encoding: 38 -1 38
GlifName: tml_K_I_
Width: 873
VWidth: 0
GlyphClass: 2
Flags: HW
LayerCount: 2
Fore
SplineSet
649 727 m 257
 649 767 l 257
 794 767 833 691 833 590 c 258
 833 77 l 257
 793 77 l 257
 793 587 l 258
 793 652 785 727 649 727 c 257
422 588 m 257
 422 588 l 257
 422 692 460 767 594 767 c 256
 594 767 l 257
 594 727 l 256
 594 727 l 256
 467 727 462 649 462 588 c 256
 422 588 l 257
EndSplineSet
Refer: 49 2965 N 1 0 0 1 -48 -3 2
Validated: 524293
EndChar

StartChar: tml_KI.alt
Encoding: 39 -1 39
GlifName: tml_K_I_.alt
Width: 916
VWidth: 0
GlyphClass: 2
Flags: HW
LayerCount: 2
Fore
SplineSet
408.594 809 m 257
 408.594 809 l 257
 408.594 770 l 256
 408.594 770 l 257
 239.892 771.1 14.8916 641 100.892 338 c 257
 67.8916 304 l 257
 -33.1084 602 153.892 809 408.594 809 c 257
462.594 770 m 257
 462.594 809 l 257
 662.594 809 875.594 709 876.594 429 c 258
 876.594 68 l 257
 835.594 68 l 257
 835.594 426 l 258
 835.594 736 564.594 770 462.594 770 c 257
EndSplineSet
Refer: 49 2965 N 1 0 0 1 -43.4063 0 2
Validated: 524325
EndChar

StartChar: tml_KIi
Encoding: 40 -1 40
GlifName: tml_K_I_i
Width: 762
VWidth: 0
GlyphClass: 2
Flags: HW
LayerCount: 2
Fore
SplineSet
426 470.65625 m 257
 426 594 l 256
 352 753 447.393554688 899 583 899 c 256
 757 899 766.690429688 662 604 662 c 256
 566 662 532 689 522 710 c 257
 548 741 l 256
 548 725 582 702 607 702 c 256
 630 702 679 718 679 777 c 256
 679 792 671 859 573 859 c 257
 490.676757812 858.5703125 391 751 466 592.7265625 c 256
 466 470.65625 l 257
 426 470.65625 l 257
EndSplineSet
Refer: 49 2965 N 1 0 0 1 -15 0 2
Validated: 524325
EndChar

StartChar: tml_KIi.alt
Encoding: 41 -1 41
GlifName: tml_K_I_i.alt
Width: 739
VWidth: 0
GlyphClass: 2
Flags: HW
LayerCount: 2
Fore
SplineSet
72.2588 315 m 257
 2.25879 541 46.001 770.864 205.259 855 c 256
 311.259 911 446.432 920 557.878 888.79 c 257
 641.133 864.429 675.284 807.732 675.927 754 c 256
 676.782 682.557 618.399 616.356 537.44 638.375 c 256
 494.018 650.186 468.296 685.162 462.753 710.506 c 257
 498.432 735 l 256
 494.232 719.562 522.962 683.538 547.049 677.515 c 256
 573.049 671.012 617.839 678.688 633.323 735.62 c 256
 646.445 783.867 603.347 834.97 548.345 849.93 c 257
 431.259 886 291.364 854.391 228.259 823 c 256
 94.915 756.671 46.7422 563.023 104.259 346 c 257
 72.2588 315 l 257
EndSplineSet
Refer: 49 2965 N 1 0 0 1 -46.7416 0 2
Validated: 524325
EndChar

StartChar: tml_KSsI
Encoding: 42 -1 42
GlifName: tml_K_S_sI_
Width: 1844
VWidth: 0
GlyphClass: 2
Flags: W
LayerCount: 2
Fore
SplineSet
1341 158 m 257
 1259.41 158 1199 191 1199 334 c 258
 1199 433 l 258
 1199 566.687 1253.67 605.152 1360 606.934 c 257
 1362.63 606.978 1365.3 607 1368 607 c 257
 1485.67 607 1534 561 1534 413 c 258
 1534 123 l 257
 1494 123 l 257
 1494 413 l 258
 1494 557 1435.43 567 1368 567 c 257
 1365.09 567 1362.03 567.012 1358.85 567 c 257
 1312.14 566.821 1239 561.383 1239 435 c 258
 1239 317 l 258
 1239 201 1304.83 197 1341 197 c 257
 1341 158 l 257
852 488 m 257
 852 528 l 257
 1014 528 1068 428 1069 287 c 257
 1069 40 l 257
 1340 40 l 257
 1340 0 l 257
 955 0 l 257
 955 40 l 257
 1022 40 1028 40 1028 76 c 258
 1028 286 l 257
 1027 416 980 488 852 488 c 257
40 161 m 258
 40 185 l 258
 40 250 79 339 246 339 c 258
 616 339 l 257
 616 299 l 257
 239 299 l 258
 184 299 79.9854 286 80 177 c 256
 80.0176 47 167.632 34 230 34 c 257
 230 -6 l 257
 56.5215 -5 40 117 40 161 c 258
578 172 m 258
 578 196 l 258
 578 300 654 359 730 359 c 257
 730 319 l 256
 692.616 319 617 295 617 181 c 256
 617 91 679.872 40 730 40 c 257
 730 0 l 256
 641.628 0 578 88 578 172 c 258
785 0 m 257
 785 40 l 257
 829.449 40 879 88 879 182.617 c 256
 879 282 827.264 319 785 319 c 257
 785 359 l 256
 858.184 359 921 292 921 196 c 258
 921 173 l 258
 921.805 75 857.207 0 785 0 c 257
1350 600.1 m 257
 1350 600.1 l 257
 1350 704.1 1402 779.1 1542 779.1 c 256
 1542 779.1 l 257
 1542 739.1 l 256
 1542 739.1 l 256
 1411 739.1 1390 661.1 1390 600.1 c 256
 1350 600.1 l 257
283 -6 m 257
 283 34 l 257
 377.637 34 422.632 93 423 182 c 258
 423 663 l 257
 463 663 l 257
 463 186 l 258
 463 90 420.261 -6 283 -6 c 257
1597 739.1 m 257
 1597 779.1 l 257
 1742 779.1 1804 703.1 1804 602.1 c 258
 1804 89.0996 l 257
 1764 89.0996 l 257
 1764 599.1 l 258
 1764 664.1 1734 739.1 1597 739.1 c 257
578 204 m 257
 578 302 l 257
 578 425.761 663.239 528 801 528 c 257
 801 488 l 257
 686.521 488 619.671 404.391 618 306 c 256
 578 204 l 257
165 316 m 257
 165 661 l 257
 206 661 l 257
 205 316 l 257
 165 316 l 257
165 630 m 257
 165 670 l 257
 288 670 l 257
 288 630 l 257
 165 630 l 257
342 630 m 257
 342 670 l 257
 610 670 l 257
 610 630 l 257
 342 630 l 257
1494 83 m 257
 1534 83 l 257
 1534 -178 l 257
 1494 -178 l 257
 1494 83 l 257
1394 1 m 257
 1394 41 l 257
 1670 41 l 257
 1670 0 l 257
 1394 1 l 257
1394 158 m 257
 1394 198 l 257
 1670 198 l 256
 1670 158 l 257
 1394 158 l 257
1630 0 m 257
 1630 198 l 257
 1670 198 l 257
 1670 0 l 257
 1630 0 l 257
EndSplineSet
Validated: 37
EndChar

StartChar: tml_KSsIi
Encoding: 43 -1 43
GlifName: tml_K_S_sI_i
Width: 1710
VWidth: 0
GlyphClass: 2
Flags: W
LayerCount: 2
Fore
SplineSet
1341 157.957 m 257
 1259.41 157.957 1199 190.957 1199 333.957 c 258
 1199 432.957 l 258
 1199 569.957 1256.41 606.957 1368 606.957 c 257
 1369.68 606.957 1371.35 606.948 1373 606.929 c 257
 1487.04 605.622 1534 558.843 1534 412.957 c 258
 1534 122.957 l 257
 1494 122.957 l 257
 1494 412.957 l 258
 1494 551.95 1439.43 566.1 1375 566.916 c 257
 1372.68 566.945 1370.34 566.957 1368 566.957 c 257
 1322.45 566.957 1239 569.957 1239 434.957 c 258
 1239 316.957 l 258
 1239 200.957 1304.83 196.957 1341 196.957 c 257
 1341 157.957 l 257
1353 578.613 m 257
 1353 602.957 l 256
 1279 761.957 1374.39 907.957 1510 907.957 c 256
 1684 907.957 1693.69 670.957 1531 670.957 c 256
 1493 670.957 1459 697.957 1449 718.957 c 257
 1475 749.957 l 256
 1475 733.957 1509 710.957 1534 710.957 c 256
 1557 710.957 1606 726.957 1606 785.957 c 256
 1606 800.957 1598 867.957 1500 867.957 c 257
 1417.68 867.527 1320 759.957 1395 601.684 c 256
 1395 578.613 l 257
 1353 578.613 l 257
852 488 m 257
 852 528 l 257
 1014 528 1068 428 1069 287 c 257
 1069 40 l 257
 1340 40 l 257
 1340 0 l 257
 955 0 l 257
 955 40 l 257
 1022 40 1028 40 1028 76 c 258
 1028 286 l 257
 1027 416 980 488 852 488 c 257
40 161 m 258
 40 185 l 258
 40 250 79 339 246 339 c 258
 616 339 l 257
 616 299 l 257
 239 299 l 258
 184 299 79.9854 286 80 177 c 256
 80.0176 47 167.632 34 230 34 c 257
 230 -6 l 257
 56.5215 -5 40 117 40 161 c 258
578 172 m 258
 578 196 l 258
 578 300 654 359 730 359 c 257
 730 319 l 256
 692.616 319 617 295 617 181 c 256
 617 91 679.872 40 730 40 c 257
 730 0 l 256
 641.628 0 578 88 578 172 c 258
785 0 m 257
 785 40 l 257
 829.449 40 879 88 879 182.617 c 256
 879 282 827.264 319 785 319 c 257
 785 359 l 256
 858.184 359 921 292 921 196 c 258
 921 173 l 258
 921.805 75 857.207 0 785 0 c 257
283 -6 m 257
 283 34 l 257
 377.637 34 422.632 93 423 182 c 258
 423 663 l 257
 463 663 l 257
 463 186 l 258
 463 90 420.261 -6 283 -6 c 257
578 204 m 257
 578 302 l 257
 578 425.761 663.239 528 801 528 c 257
 801 488 l 257
 686.521 488 619.671 404.391 618 306 c 256
 578 204 l 257
165 316 m 257
 165 661 l 257
 206 661 l 257
 205 316 l 257
 165 316 l 257
165 630 m 257
 165 670 l 257
 288 670 l 257
 288 630 l 257
 165 630 l 257
342 630 m 257
 342 670 l 257
 610 670 l 257
 610 630 l 257
 342 630 l 257
1494 83 m 257
 1534 83 l 257
 1534 -178 l 257
 1494 -178 l 257
 1494 83 l 257
1394 1 m 257
 1394 41 l 257
 1670 41 l 257
 1670 0 l 257
 1394 1 l 257
1394 158 m 257
 1394 198 l 257
 1670 198 l 256
 1670 158 l 257
 1394 158 l 257
1630 0 m 257
 1630 198 l 257
 1670 198 l 257
 1670 0 l 257
 1630 0 l 257
EndSplineSet
Validated: 37
EndChar

StartChar: tml_KSsU
Encoding: 44 -1 44
GlifName: tml_K_S_sU_
Width: 1920
VWidth: 0
GlyphClass: 2
Flags: W
LayerCount: 2
Fore
SplineSet
1394 567 m 257
 1394 607 l 257
 1715 607 l 258
 1830 607 1880 556 1880 489 c 258
 1880 482 l 258
 1880 423 1828 369 1773 369 c 258
 1761 369 l 258
 1692 369 1650 432 1650 482 c 257
 1690 482 l 256
 1690 462 1707 409 1766 409 c 256
 1821 409 1840 463 1840 481 c 256
 1840 536 1808 567 1711 567 c 258
 1394 567 l 257
852 488 m 257
 852 528 l 257
 1014 528 1068 428 1069 287 c 257
 1069 40 l 257
 1340 40 l 257
 1340 0 l 257
 955 0 l 257
 955 40 l 257
 1022 40 1028 40 1028 76 c 258
 1028 286 l 257
 1027 416 980 488 852 488 c 257
40 161 m 258
 40 185 l 258
 40 250 79 339 246 339 c 258
 616 339 l 257
 616 299 l 257
 239 299 l 258
 184 299 79.9854 286 80 177 c 256
 80.0176 47 167.632 34 230 34 c 257
 230 -6 l 257
 56.5215 -5 40 117 40 161 c 258
1199 334 m 258
 1199 433 l 258
 1199 570 1259.41 607 1341 607 c 257
 1341 567 l 257
 1308.45 567 1239 570 1239 435 c 258
 1239 317 l 258
 1239 201 1304.83 197 1341 197 c 257
 1341 158 l 257
 1259.41 158 1199 191 1199 334 c 258
578 172 m 258
 578 196 l 258
 578 300 654 359 730 359 c 257
 730 319 l 256
 692.616 319 617 295 617 181 c 256
 617 91 679.872 40 730 40 c 257
 730 0 l 256
 641.628 0 578 88 578 172 c 258
785 0 m 257
 785 40 l 257
 829.449 40 879 88 879 182.617 c 256
 879 282 827.264 319 785 319 c 257
 785 359 l 256
 858.184 359 921 292 921 196 c 258
 921 173 l 258
 921.805 75 857.207 0 785 0 c 257
283 -6 m 257
 283 34 l 257
 377.637 34 422.632 93 423 182 c 258
 423 663 l 257
 463 663 l 257
 463 186 l 258
 463 90 420.261 -6 283 -6 c 257
1394 567 m 257
 1394 607 l 257
 1473.67 607 1534 561 1534 413 c 258
 1534 123 l 257
 1494 123 l 257
 1494 413 l 258
 1494 557 1434.43 567 1394 567 c 257
578 204 m 257
 578 302 l 257
 578 425.761 663.239 528 801 528 c 257
 801 488 l 257
 686.521 488 619.671 404.391 618 306 c 256
 578 204 l 257
165 316 m 257
 165 661 l 257
 206 661 l 257
 205 316 l 257
 165 316 l 257
165 630 m 257
 165 670 l 257
 288 670 l 257
 288 630 l 257
 165 630 l 257
342 630 m 257
 342 670 l 257
 610 670 l 257
 610 630 l 257
 342 630 l 257
1494 83 m 257
 1534 83 l 257
 1534 -178 l 257
 1494 -178 l 257
 1494 83 l 257
1394 1 m 257
 1394 41 l 257
 1670 41 l 257
 1670 0 l 257
 1394 1 l 257
1394 158 m 257
 1394 198 l 257
 1670 198 l 256
 1670 158 l 257
 1394 158 l 257
1630 0 m 257
 1630 198 l 257
 1670 198 l 257
 1670 0 l 257
 1630 0 l 257
EndSplineSet
Validated: 37
EndChar

StartChar: tml_KSsUu
Encoding: 45 -1 45
GlifName: tml_K_S_sU_u
Width: 2068
VWidth: 0
GlyphClass: 2
Flags: W
LayerCount: 2
Fore
SplineSet
1394 567.727 m 257
 1394 607.727 l 257
 1712 607.727 l 258
 1827 607.727 1877 556.727 1877 489.727 c 258
 1877 482.727 l 258
 1877 423.727 1825 369.727 1770 369.727 c 258
 1758 369.727 l 258
 1689 369.727 1647 432.727 1647 482.727 c 257
 1687 482.727 l 256
 1687 462.727 1704 409.727 1763 409.727 c 256
 1818 409.727 1837 463.727 1837 481.727 c 256
 1837 536.727 1805 567.727 1708 567.727 c 258
 1394 567.727 l 257
1644 604.727 m 256
 1644 746.727 1721 804.727 1836 804.727 c 256
 1939 804.727 2028 753.727 2028 648.727 c 258
 2028 324.727 l 258
 2028 246.727 1991 199.727 1890 199.727 c 258
 1831 199.727 l 256
 1831 239.727 l 256
 1890 239.727 l 258
 1936 239.727 1988 242.727 1988 324.727 c 258
 1988 648.727 l 258
 1988 705.727 1946 764.727 1836 764.727 c 256
 1729 764.727 1684 706.727 1684 604.727 c 257
 1644 604.727 l 256
852 489 m 257
 852 529 l 257
 1014 529 1068 429 1069 288 c 257
 1069 41 l 257
 1340 41 l 257
 1340 1 l 257
 955 1 l 257
 955 41 l 257
 1022 41 1028 41 1028 77 c 258
 1028 287 l 257
 1027 417 980 489 852 489 c 257
40 162 m 258
 40 186 l 258
 40 251 79 340 246 340 c 258
 616 340 l 257
 616 300 l 257
 239 300 l 258
 184 300 79.9854 287 80 178 c 256
 80.0176 48 167.632 35 230 35 c 257
 230 -5 l 257
 56.5215 -4 40 118 40 162 c 258
1199 335 m 258
 1199 434 l 258
 1199 571 1259.41 608 1341 608 c 257
 1341 568 l 257
 1308.45 568 1239 571 1239 436 c 258
 1239 318 l 258
 1239 202 1304.83 198 1341 198 c 257
 1341 159 l 257
 1259.41 159 1199 192 1199 335 c 258
578 173 m 258
 578 197 l 258
 578 301 654 360 730 360 c 257
 730 320 l 256
 692.616 320 617 296 617 182 c 256
 617 92 679.872 41 730 41 c 257
 730 1 l 256
 641.628 1 578 89 578 173 c 258
785 1 m 257
 785 41 l 257
 829.449 41 879 89 879 183.617 c 256
 879 283 827.264 320 785 320 c 257
 785 360 l 256
 858.184 360 921 293 921 197 c 258
 921 174 l 258
 921.805 76 857.207 1 785 1 c 257
283 -5 m 257
 283 35 l 257
 377.637 35 422.632 94 423 183 c 258
 423 664 l 257
 463 664 l 257
 463 187 l 258
 463 91 420.261 -5 283 -5 c 257
1394 568 m 257
 1394 608 l 257
 1473.67 608 1534 562 1534 414 c 258
 1534 124 l 257
 1494 124 l 257
 1494 414 l 258
 1494 558 1434.43 568 1394 568 c 257
578 205 m 257
 578 303 l 257
 578 426.761 663.239 529 801 529 c 257
 801 489 l 257
 686.521 489 619.671 405.391 618 307 c 256
 578 205 l 257
165 317 m 257
 165 662 l 257
 206 662 l 257
 205 317 l 257
 165 317 l 257
165 631 m 257
 165 671 l 257
 288 671 l 257
 288 631 l 257
 165 631 l 257
342 631 m 257
 342 671 l 257
 610 671 l 257
 610 631 l 257
 342 631 l 257
1494 84 m 257
 1534 84 l 257
 1534 -177 l 257
 1494 -177 l 257
 1494 84 l 257
1394 2 m 257
 1394 42 l 257
 1670 42 l 257
 1670 1 l 257
 1394 2 l 257
1394 159 m 257
 1394 199 l 257
 1670 199 l 256
 1670 159 l 257
 1394 159 l 257
1630 1 m 257
 1630 199 l 257
 1670 199 l 257
 1670 1 l 257
 1630 1 l 257
EndSplineSet
Validated: 37
EndChar

StartChar: tml_KSsa
Encoding: 46 -1 46
GlifName: tml_K_S_sa
Width: 1710
VWidth: 0
GlyphClass: 2
Flags: HW
AnchorPoint: "tml_virama" 1131 0 basechar 0
LayerCount: 2
Fore
SplineSet
852 488 m 257
 852 528 l 257
 1014 528 1068 428 1069 287 c 257
 1069 40 l 257
 1340 40 l 257
 1340 0 l 257
 955 0 l 257
 955 40 l 257
 1022 40 1028 40 1028 76 c 258
 1028 286 l 257
 1027 416 980 488 852 488 c 257
40 161 m 258
 40 185 l 258
 40 250 79 339 246 339 c 258
 616 339 l 257
 616 299 l 257
 239 299 l 258
 184 299 79.9854 286 80 177 c 256
 80.0176 47 167.632 34 230 34 c 257
 230 -6 l 257
 56.5215 -5 40 117 40 161 c 258
1199 334 m 258
 1199 433 l 258
 1199 570 1259.41 607 1341 607 c 257
 1341 567 l 257
 1308.45 567 1239 570 1239 435 c 258
 1239 317 l 258
 1239 201 1304.83 197 1341 197 c 257
 1341 158 l 257
 1259.41 158 1199 191 1199 334 c 258
578 172 m 258
 578 196 l 258
 578 300 654 359 730 359 c 257
 730 319 l 256
 692.616 319 617 295 617 181 c 256
 617 91 679.872 40 730 40 c 257
 730 0 l 256
 641.628 0 578 88 578 172 c 258
785 0 m 257
 785 40 l 257
 829.449 40 879 88 879 182.617 c 256
 879 282 827.264 319 785 319 c 257
 785 359 l 256
 858.184 359 921 292 921 196 c 258
 921 173 l 258
 921.805 75 857.207 0 785 0 c 257
283 -6 m 257
 283 34 l 257
 377.637 34 422.632 93 423 182 c 258
 423 663 l 257
 463 663 l 257
 463 186 l 258
 463 90 420.261 -6 283 -6 c 257
1394 567 m 257
 1394 607 l 257
 1473.67 607 1534 561 1534 413 c 258
 1534 123 l 257
 1494 123 l 257
 1494 413 l 258
 1494 557 1434.43 567 1394 567 c 257
578 204 m 257
 578 302 l 257
 578 425.761 663.239 528 801 528 c 257
 801 488 l 257
 686.521 488 619.671 404.391 618 306 c 256
 578 204 l 257
165 316 m 257
 165 661 l 257
 206 661 l 257
 205 316 l 257
 165 316 l 257
165 630 m 257
 165 670 l 257
 288 670 l 257
 288 630 l 257
 165 630 l 257
342 630 m 257
 342 670 l 257
 610 670 l 257
 610 630 l 257
 342 630 l 257
1494 83 m 257
 1534 83 l 257
 1534 -178 l 257
 1494 -178 l 257
 1494 83 l 257
1394 1 m 257
 1394 41 l 257
 1670 41 l 257
 1670 0 l 257
 1394 1 l 257
1394 158 m 257
 1394 198 l 257
 1670 198 l 256
 1670 158 l 257
 1394 158 l 257
1630 0 m 257
 1630 198 l 257
 1670 198 l 257
 1670 0 l 257
 1630 0 l 257
EndSplineSet
Validated: 524325
EndChar

StartChar: tml_KU
Encoding: 47 -1 47
GlifName: tml_K_U_
Width: 881
VWidth: 0
GlyphClass: 2
Flags: HW
LayerCount: 2
Fore
SplineSet
239.498703517 160 m 0
 198.385027184 160 l 0
 198.385027184 124 216 0 388 -1 c 257
 388 39 l 257
 330.416447988 39 239.498703517 74 239.498703517 160 c 0
238.035501315 192 m 0
 198 192 l 1
 198 196 l 258
 198 259 230 370 404 370 c 258
 619 370 l 257
 619 330 l 257
 397 330 l 258
 342.592158428 330 240.219076788 313.364090969 238.035501315 192 c 0
40 -77 m 258
 40 314 l 258
 40 437 127 458 199 458 c 256
 199 418 l 256
 74 418 80 339 80 309 c 258
 80 -53 l 258
 80 -121 109 -160 172 -160 c 258
 388 -160 l 257
 388 -200 l 257
 156 -200 l 258
 108 -200 40 -155 40 -77 c 258
441 -160 m 257
 692 -160 l 258
 738 -160 802 -137 802 -59 c 258
 802 217 l 258
 802 312 699 329 677 330 c 257
 677 370 l 257
 739 364 841 331 841 219 c 258
 841 -63 l 258
 841 -138 789 -200 693 -200 c 258
 441 -200 l 257
 441 -160 l 257
441 -1 m 257
 441 39 l 257
 535.637 39 580.632 98 581 187 c 258
 581 588 l 257
 621 588 l 257
 621 191 l 258
 621 95 578.261 -1 441 -1 c 257
323 347 m 257
 323 586 l 257
 364 586 l 257
 363 347 l 257
 323 347 l 257
323 555 m 257
 323 595 l 257
 446 595 l 257
 446 555 l 257
 323 555 l 257
500 555 m 257
 500 595 l 257
 792 595 l 257
 792 555 l 257
 500 555 l 257
EndSplineSet
Validated: 524325
EndChar

StartChar: tml_KUu
Encoding: 48 -1 48
GlifName: tml_K_U_u
Width: 1444
VWidth: 0
GlyphClass: 2
Flags: W
HStem: -1 40<140.093 227 280 356.622 1029.96 1099 1134 1420> 7 40<717.214 832.485> 132 1<648 688> 329 40<204.766 455 491 811.847> 555 40<203 285 339 419 459 611 743.435 913.279> 555 33<419 459>
VStem: 37 40<102.607 264.505> 162 40<348 555> 419 40<103.93 588> 637 40<395 484.705> 648 40<77.0312 294> 862 40<77.291 278.659> 979 40<50.4604 488.605>
LayerCount: 2
Fore
SplineSet
648 294 m 1x33b8
 688 294 l 1
 688 132 l 1
 648 132 l 1
 648 294 l 1x33b8
902 133 m 256
 902 55 844 7 772 7 c 256
 713 7 648 47 648 133 c 257
 688 133 l 256
 688 107 702 47 776 47 c 256x73b8
 853 47 862 118 862 132 c 256
 862 214 870 329 741 329 c 258
 491 329 l 257
 491 369 l 257
 745 369 l 258
 886 369 902 284 902 133 c 256
1099 -1 m 257xb3d8
 1006 -1 979 33 979 111 c 258
 979 399 l 258
 979 461 962 556 825 556 c 256
 701 556 677 461 677 395 c 257
 637 395 l 256
 637 505 693 596 825 596 c 256
 971 596 1019 504 1019 399 c 258
 1019 108 l 258
 1019 49 1034 41 1099 39 c 256
 1099 -1 l 257xb3d8
37 172 m 258
 37 196 l 258
 37 259 69 371 243 371 c 258
 455 371 l 257
 455 331 l 257
 236 331 l 258
 181 331 76.9853515625 313 77 188 c 256
 77.01171875 58 164.631835938 39 227 39 c 257
 227 -1 l 257
 53.521484375 0 37 128 37 172 c 258
280 -1 m 257
 280 39 l 257
 373.9609375 39 418.633789062 98 419 187 c 258
 419 588 l 257
 459 588 l 257xb798
 459 191 l 258
 459 95 416.498046875 -1 280 -1 c 257
162 348 m 257
 162 586 l 257
 203 586 l 257
 202 348 l 257
 162 348 l 257
162 555 m 257
 162 595 l 257
 285 595 l 257
 285 555 l 257x3b98
 162 555 l 257
339 555 m 257
 339 595 l 257
 611 595 l 257
 611 555 l 257
 339 555 l 257
1134 1 m 257
 1134 40 l 257
 1420 40 l 257
 1420 1 l 257
 1134 1 l 257
EndSplineSet
Validated: 524325
PickledDataWithLists: "(dp1
S'com.fontlab.hintData'
p2
(dp3
S'vhints'
p4
(lp5
(dp6
S'position'
p7
L39L
sS'width'
p8
L121L
sa(dp9
g7
L164L
sg8
L163L
sa(dp10
g7
L164L
sg8
L122L
sa(dp11
g7
L419L
sg8
L122L
sa(dp12
g7
L626L
sg8
L123L
sasS'hhints'
p13
(lp14
(dp15
g7
L-1L
sg8
L123L
sa(dp16
g7
L21L
sg8
L120L
sa(dp17
g7
L249L
sg8
L122L
sa(dp18
g7
L348L
sg8
L23L
sa(dp19
g7
L470L
sg8
L122L
sass."
EndChar

StartChar: tml_Ka
Encoding: 49 2965 49
GlifName: tml_K_a
Width: 778
VWidth: 0
GlyphClass: 2
Flags: HW
HStem: -11 123 2 124 249 122 348 23<212 225> 470 125 470 71
VStem: 20 121 145 162 145 122 400 122 636 122
AnchorPoint: "tml_virama" 392 1 basechar 0
LayerCount: 2
Fore
SplineSet
674 161 m 9
 717.47333393 160 l 0
 712 68 625 -11 502 -11 c 256
 502 29 l 256
 590.245864774 29 669 80 674 161 c 9
718 196 m 17
 677.761724106 196 l 17
 677.761724106 296 640.823111773 331 541 331 c 258
 215 331 l 258
 123.140625 331 103.005859375 281.215820312 100.3359375 208 c 0
 101 208 60 208 60 208 c 1
 60 212 l 258
 60 364 174 371 212 371 c 258
 553 371 l 258
 659 371 718 329 718 206 c 258
 718 196 l 17
100.510742188 172 m 1
 106.618164062 78.3671875 166.840820312 29 249 29 c 257
 249 -11 l 257
 126.114257812 -11 62.6240234375 76.3173828125 60.080078125 172 c 1
 60.080078125 172 100 172 100.510742188 172 c 1
303 -11 m 257
 303 29 l 257
 378.32421875 29 442 75 442 191 c 258
 442 563 l 257
 482 563 l 257
 482 191 l 258
 482 95 439.498046875 -11 303 -11 c 257
185 348 m 257
 185 561 l 257
 226 561 l 257
 225 348 l 257
 185 348 l 257
361 555 m 257
 361 595 l 257
 614 595 l 257
 614 555 l 257
 361 555 l 257
185 555 m 257
 185 595 l 257
 307 595 l 257
 307 555 l 257
 185 555 l 257
EndSplineSet
Validated: 8912933
PickledDataWithLists: "(dp1
S'com.fontlab.hintData'
p2
(dp3
S'vhints'
p4
(lp5
(dp6
S'position'
p7
L48L
sS'width'
p8
L121L
sa(dp9
g7
L173L
sg8
L162L
sa(dp10
g7
L173L
sg8
L122L
sa(dp11
g7
L428L
sg8
L122L
sa(dp12
g7
L664L
sg8
L122L
sasS'hhints'
p13
(lp14
(dp15
g7
L-11L
sg8
L123L
sa(dp16
g7
L2L
sg8
L124L
sa(dp17
g7
L249L
sg8
L122L
sa(dp18
g7
L348L
sg8
L23L
sa(dp19
g7
L470L
sg8
L125L
sa(dp20
g7
L470L
sg8
L71L
sass."
EndChar

StartChar: tml_LAi
Encoding: 50 -1 50
GlifName: tml_L_A_i
Width: 1125
VWidth: 0
GlyphClass: 2
Flags: W
LayerCount: 2
Fore
SplineSet
389.644 29 m 257
 193.019 -90 -31.3525 40.5098 106.059 250.141 c 258
 292.603 534.727 l 256
 406.603 689 321.644 804 190.603 804 c 257
 97.6025 804 84.6025 734 84.6025 719 c 256
 84.6025 674 110.603 640 156.603 640 c 256
 196.603 640 213.644 665.1 217.644 680.1 c 256
 247.729 647 l 257
 231.729 620 202.644 600 157.644 600 c 256
 -6.04688 600 0.602539 844 180.603 844 c 256
 383.209 844 431.059 681 347.603 546 c 257
 131.059 206 l 258
 36.0771 56.8672 248.729 -38 372.644 80 c 257
 389.644 29 l 257
585.644 554.957 m 257
 585.644 594.957 l 257
 751.148 594.957 784.644 469.759 784.644 381.957 c 258
 784.644 130.957 l 258
 784.644 76.7979 834.888 29.957 887.644 29.957 c 257
 887.644 -11.043 l 257
 813.888 -11.043 743.644 53.0713 743.644 128.957 c 258
 743.644 389.957 l 258
 743.644 436.222 733.83 554.957 585.644 554.957 c 257
911.644 582.957 m 257
 1031.64 583.957 1085.64 529.957 1085.64 412.957 c 258
 1085.64 134.957 l 258
 1085.64 60.1982 1036.73 -11.043 940.644 -11.043 c 257
 940.644 29.957 l 257
 1021.48 29.957 1045.64 92.457 1045.64 134.957 c 257
 1045.64 410.957 l 257
 1045.64 476.957 1036.64 542.957 911.644 542.957 c 257
 911.644 582.957 l 257
329.652 160.957 m 258
 329.652 184.957 l 258
 329.652 288.957 405.652 347.957 481.652 347.957 c 257
 481.652 307.957 l 256
 444.269 307.957 368.652 283.957 368.652 169.957 c 256
 368.652 79.957 431.524 28.957 481.652 28.957 c 257
 481.652 -11.043 l 256
 393.28 -11.043 329.652 76.957 329.652 160.957 c 258
536.652 -11.043 m 257
 536.652 28.957 l 257
 581.102 28.957 630.652 76.957 630.652 171.574 c 256
 630.652 270.957 578.916 307.957 536.652 307.957 c 257
 536.652 347.957 l 256
 609.836 347.957 672.652 280.957 672.652 184.957 c 258
 672.652 161.957 l 258
 673.457 63.957 608.859 -11.043 536.652 -11.043 c 257
329.652 192.957 m 257
 329.652 290.957 l 257
 329.652 457.718 406.864 593.957 531.652 593.957 c 257
 531.652 553.957 l 257
 430.31 553.957 371.132 432.348 369.652 294.957 c 256
 329.652 192.957 l 257
EndSplineSet
Validated: 37
EndChar

StartChar: tml_LI
Encoding: 51 -1 51
GlifName: tml_L_I_
Width: 963
VWidth: 0
GlyphClass: 2
Flags: HW
LayerCount: 2
Fore
SplineSet
770.994 734 m 257
 770.994 775 l 257
 900.994 775 923.994 687 923.994 592 c 258
 923.994 75 l 257
 882.994 75 l 257
 882.994 589 l 258
 882.994 650 880.994 734 770.994 734 c 257
624.994 554 m 257
 638.994 590 l 256
 586.994 590 563.994 735.1 716.994 735 c 256
 716.994 735 l 256
 716.994 775 l 257
 716.994 775 l 257
 507.648 774.519 535.944 553.966 624.994 554 c 257
EndSplineSet
Refer: 55 2994 N 1 0 0 1 0.000250625 0 2
Validated: 524325
EndChar

StartChar: tml_LIi
Encoding: 52 -1 52
GlifName: tml_L_I_i
Width: 958
VWidth: 0
GlyphClass: 2
Flags: W
LayerCount: 2
Fore
SplineSet
702.994 541 m 257
 780.994 513 776 450 776 424 c 258
 776 123 l 258
 776 61 745 0 651 0 c 257
 651 40 l 257
 678 40 736 46 736 123 c 257
 736 423 l 258
 735.221 445.874 739.796 476.6 690.994 501 c 256
 650.994 521 596.994 562 583 621 c 256
 554.611 740.688 619.541 874 765 874 c 256
 969.994 874 954 627.486 808 629 c 256
 767.004 629.425 735.994 652 723.994 675 c 257
 749.994 707 l 256
 749.994 691 773 669 811 669 c 256
 841 669 878 693 878 746 c 256
 878 799 829 835 772 835 c 257
 610 849 557.994 599 702.994 541 c 257
247 0 m 257
 247 40 l 257
 291.449 40 341 88 341 182.617 c 256
 341 282 289.264 319 247 319 c 257
 247 359 l 256
 320.184 359 383 292 383 196 c 258
 383 173 l 258
 383.805 75 319.207 0 247 0 c 257
40 172 m 258
 40 196 l 258
 40 300 116 359 192 359 c 257
 192 319 l 256
 154.616 319 79 295 79 181 c 256
 79 91 141.872 40 192 40 c 257
 192 0 l 256
 103.628 0 40 88 40 172 c 258
40 204 m 257
 40 302 l 257
 40 468.761 117.212 605 242 605 c 257
 242 565 l 257
 140.657 565 81.4795 443.391 80 306 c 256
 40 204 l 257
295.991 566 m 257
 295.991 606 l 257
 461.496 606 494.991 480.802 494.991 393 c 258
 494.991 142 l 258
 494.991 87.8408 545.235 41 597.991 41 c 257
 597.991 0 l 257
 524.235 0 453.991 64.1143 453.991 140 c 258
 453.991 401 l 258
 453.991 447.265 444.178 566 295.991 566 c 257
EndSplineSet
Validated: 37
EndChar

StartChar: tml_LU
Encoding: 53 -1 53
GlifName: tml_L_U_
Width: 970
VWidth: 0
GlyphClass: 2
Flags: HW
HStem: -257 94 0 122 237 123 485 121
VStem: 41 124 41 131 41 171 313 123 473 122 733 122
LayerCount: 2
Fore
SplineSet
451 -232 m 257
 451 -192 l 257
 622 -192 l 258
 698 -192 756 -159 756 -54 c 258
 756 231 l 257
 796 231 l 257
 796 -54 l 258
 796 -120 776 -232 623 -232 c 258
 451 -232 l 257
69 -134 m 258
 69 -90 113 -55 173 -55 c 258
 890 -55 l 257
 890 583 l 256
 930 583 l 256
 930 -95 l 257
 173 -95 l 258
 87 -95 81 -192 182 -192 c 258
 397 -192 l 257
 397 -232 l 257
 179 -232 l 258
 116 -232 69 -190 69 -152 c 258
 69 -134 l 258
EndSplineSet
Refer: 55 2994 N 1 0 0 1 0 0 2
Validated: 8912933
PickledDataWithLists: "(dp1
S'com.fontlab.hintData'
p2
(dp3
S'vhints'
p4
(lp5
(dp6
S'position'
p7
L41L
sS'width'
p8
L124L
sa(dp9
g7
L41L
sg8
L131L
sa(dp10
g7
L41L
sg8
L171L
sa(dp11
g7
L313L
sg8
L123L
sa(dp12
g7
L473L
sg8
L122L
sa(dp13
g7
L733L
sg8
L122L
sasS'hhints'
p14
(lp15
(dp16
g7
L-257L
sg8
L94L
sa(dp17
g7
L0L
sg8
L122L
sa(dp18
g7
L237L
sg8
L123L
sa(dp19
g7
L485L
sg8
L121L
sass."
EndChar

StartChar: tml_LUu
Encoding: 54 -1 54
GlifName: tml_L_U_u
Width: 1340
VWidth: 0
GlyphClass: 2
Flags: HW
HStem: -257 94 0 122 237 123 485 121
VStem: 41 124 41 131 41 171 313 123 473 122 733 122
LayerCount: 2
Fore
SplineSet
179 -235 m 258
 116 -235 69 -193 69 -155 c 258
 69 -137 l 258
 69 -93 113 -58 173 -58 c 258
 892 -58 l 257
 892 583 l 256
 932 583 l 256
 932 -98 l 257
 173 -98 l 258
 83 -98 85 -195 186 -195 c 258
 397 -195 l 257
 397 -235 l 257
 179 -235 l 258
451 -235 m 257
 451 -195 l 257
 622 -195 l 258
 698 -195 756 -162 756 -57 c 258
 756 231 l 257
 796 231 l 257
 796 -57 l 258
 796 -123 776 -235 623 -235 c 258
 451 -235 l 257
892 555 m 257
 892 596 l 257
 1033 596 l 257
 1033 555 l 257
 892 555 l 257
1176 1 m 257
 1176 594 l 257
 1216 594 l 257
 1216 1 l 257
 1176 1 l 257
1086 555 m 257
 1086 596 l 257
 1300 596 l 257
 1300 555 l 257
 1086 555 l 257
EndSplineSet
Refer: 55 2994 N 1 0 0 1 0 0 2
Validated: 8912933
PickledDataWithLists: "(dp1
S'com.fontlab.hintData'
p2
(dp3
S'vhints'
p4
(lp5
(dp6
S'position'
p7
L41L
sS'width'
p8
L124L
sa(dp9
g7
L41L
sg8
L131L
sa(dp10
g7
L41L
sg8
L171L
sa(dp11
g7
L313L
sg8
L123L
sa(dp12
g7
L473L
sg8
L122L
sa(dp13
g7
L733L
sg8
L122L
sasS'hhints'
p14
(lp15
(dp16
g7
L-257L
sg8
L94L
sa(dp17
g7
L0L
sg8
L122L
sa(dp18
g7
L237L
sg8
L123L
sa(dp19
g7
L485L
sg8
L121L
sass."
EndChar

StartChar: tml_La
Encoding: 55 2994 55
GlifName: tml_L_a
Width: 835
VWidth: 0
GlyphClass: 2
Flags: HW
HStem: 0 122 237 123 485 121
VStem: 1 171 1 131 1 124 273 123 434 122 693 122
AnchorPoint: "tml_virama" 551 0 basechar 0
LayerCount: 2
Fore
SplineSet
247 0 m 257
 247 40 l 257
 291.449 40 341 88 341 182.617 c 256
 341 282 289.264 319 247 319 c 257
 247 359 l 256
 320.184 359 383 292 383 196 c 258
 383 173 l 258
 383.805 75 319.207 0 247 0 c 257
40 172 m 258
 40 196 l 258
 40 300 116 359 192 359 c 257
 192 319 l 256
 154.616 319 79 295 79 181 c 256
 79 91 141.872 40 192 40 c 257
 192 0 l 256
 103.628 0 40 88 40 172 c 258
40 204 m 257
 40 302 l 257
 40 468.761 117.212 605 242 605 c 257
 242 565 l 257
 140.657 565 81.4795 443.391 80 306 c 256
 40 204 l 257
295.991 566 m 257
 295.991 606 l 257
 461.496 606 494.991 480.802 494.991 393 c 258
 494.991 142 l 258
 494.991 87.8408 545.235 41 597.991 41 c 257
 597.991 0 l 257
 524.235 0 453.991 64.1143 453.991 140 c 258
 453.991 401 l 258
 453.991 447.265 444.178 566 295.991 566 c 257
621.991 594 m 257
 741.991 595 795.991 541 795.991 424 c 258
 795.991 146 l 258
 795.991 71.2412 747.075 0 650.991 0 c 257
 650.991 41 l 257
 731.824 41 755.991 103.5 755.991 146 c 257
 755.991 422 l 257
 755.991 488 746.991 554 621.991 554 c 257
 621.991 594 l 257
EndSplineSet
Validated: 8912933
PickledDataWithLists: "(dp1
S'com.fontlab.hintData'
p2
(dp3
S'vhints'
p4
(lp5
(dp6
S'position'
p7
L1L
sS'width'
p8
L171L
sa(dp9
g7
L1L
sg8
L131L
sa(dp10
g7
L1L
sg8
L124L
sa(dp11
g7
L273L
sg8
L123L
sa(dp12
g7
L434L
sg8
L122L
sa(dp13
g7
L693L
sg8
L122L
sasS'hhints'
p14
(lp15
(dp16
g7
L0L
sg8
L122L
sa(dp17
g7
L237L
sg8
L123L
sa(dp18
g7
L485L
sg8
L121L
sass."
EndChar

StartChar: tml_LlAi
Encoding: 56 -1 56
GlifName: tml_L_lA_i
Width: 1183
VWidth: 0
GlyphClass: 2
Flags: W
LayerCount: 2
Fore
SplineSet
389.644 29 m 257
 193.019 -90 -31.3525 40.5098 106.059 250.141 c 258
 292.603 534.727 l 256
 406.603 689 321.644 804 190.603 804 c 257
 97.6025 804 84.6025 734 84.6025 719 c 256
 84.6025 674 110.603 640 156.603 640 c 256
 196.603 640 213.644 665.1 217.644 680.1 c 256
 247.729 647 l 257
 231.729 620 202.644 600 157.644 600 c 256
 -6.04688 600 0.602539 844 180.603 844 c 256
 383.209 844 431.059 681 347.603 546 c 257
 131.059 206 l 258
 36.0771 56.8672 248.729 -38 372.644 80 c 257
 389.644 29 l 257
324.661 162.957 m 258
 324.661 186.957 l 258
 324.661 290.957 400.661 349.957 476.661 349.957 c 257
 476.661 309.957 l 256
 439.277 309.957 363.661 285.957 363.661 171.957 c 256
 363.661 81.957 426.533 30.957 476.661 30.957 c 257
 476.661 -9.04297 l 256
 388.289 -9.04297 324.661 78.957 324.661 162.957 c 258
531.661 -9.04297 m 257
 531.661 30.957 l 257
 576.11 30.957 625.661 78.957 625.661 173.574 c 256
 625.661 272.957 573.925 309.957 531.661 309.957 c 257
 531.661 349.957 l 256
 604.845 349.957 667.661 282.957 667.661 186.957 c 258
 667.661 163.957 l 258
 668.466 65.957 603.868 -9.04297 531.661 -9.04297 c 257
599.644 555.957 m 257
 599.644 595.957 l 257
 761.644 595.957 802.644 444.957 802.644 345.957 c 257
 802.644 -9.04297 l 257
 762.644 -9.04297 l 257
 762.644 344.957 l 257
 762.644 462.957 712.644 555.957 599.644 555.957 c 257
324.661 194.957 m 257
 324.661 292.957 l 257
 324.661 459.718 409.136 595.957 545.661 595.957 c 257
 545.661 555.957 l 257
 432.433 555.957 366.314 434.348 364.661 296.957 c 256
 324.661 194.957 l 257
762.644 315.957 m 257
 762.644 430.957 772.644 595.957 906.644 595.957 c 257
 906.644 555.957 l 257
 819.644 555.957 802.644 444.957 802.644 316.957 c 257
 762.644 315.957 l 257
1029.64 -9.04297 m 257
 1029.64 564.957 l 257
 1069.64 564.957 l 257
 1069.64 -9.04297 l 257
 1029.64 -9.04297 l 257
960.644 555.957 m 257
 960.644 595.957 l 257
 1143.64 595.957 l 257
 1143.64 555.957 l 257
 960.644 555.957 l 257
EndSplineSet
Validated: 37
EndChar

StartChar: tml_LlI
Encoding: 57 -1 57
GlifName: tml_L_lI_
Width: 1100
VWidth: 0
GlyphClass: 2
Flags: W
LayerCount: 2
Fore
SplineSet
40 172 m 258
 40 196 l 258
 40 300 116 359 192 359 c 257
 192 319 l 256
 154.616 319 79 295 79 181 c 256
 79 91 141.872 40 192 40 c 257
 192 0 l 256
 103.628 0 40 88 40 172 c 258
247 0 m 257
 247 40 l 257
 291.449 40 341 88 341 182.617 c 256
 341 282 289.264 319 247 319 c 257
 247 359 l 256
 320.184 359 383 292 383 196 c 258
 383 173 l 258
 383.805 75 319.207 0 247 0 c 257
745 595.289 m 257
 745 595.289 l 257
 745 699.289 782 763.289 876 763.289 c 256
 876 763.289 l 257
 876 723.289 l 256
 876 723.289 l 256
 796 723.289 785 656.289 785 595.289 c 256
 745 595.289 l 257
314.982 565 m 257
 314.982 605 l 257
 476.982 605 517.982 454 517.982 355 c 257
 517.982 0 l 257
 477.982 0 l 257
 477.982 354 l 257
 477.982 472 427.982 565 314.982 565 c 257
930 723.289 m 257
 930 763.289 l 257
 1027 763.289 1060 699.289 1060 597.289 c 258
 1060 67.2891 l 257
 1020 67.2891 l 257
 1020 594.289 l 258
 1020 656.289 1016 723.289 930 723.289 c 257
40 204 m 257
 40 302 l 257
 40 468.761 124.474 605 261 605 c 257
 261 565 l 257
 147.771 565 81.653 443.391 80 306 c 256
 40 204 l 257
477.982 325 m 257
 477.982 440 487.982 605 621.982 605 c 257
 621.982 565 l 257
 534.982 565 517.982 454 517.982 326 c 257
 477.982 325 l 257
744.982 0 m 257
 744.982 574 l 257
 784.982 574 l 257
 784.982 0 l 257
 744.982 0 l 257
675.982 565 m 257
 675.982 605 l 257
 858.982 605 l 257
 858.982 565 l 257
 675.982 565 l 257
EndSplineSet
Validated: 37
EndChar

StartChar: tml_LlIi
Encoding: 58 -1 58
GlifName: tml_L_lI_i
Width: 1080
VWidth: 0
GlyphClass: 2
Flags: HW
LayerCount: 2
Fore
SplineSet
746 580.656 m 257
 746 605 l 256
 672 764 767.394 910 903 910 c 256
 1077 910 1086.69 673 924 673 c 256
 886 673 852 700 842 721 c 257
 868 752 l 256
 868 736 902 713 927 713 c 256
 950 713 999 729 999 788 c 256
 999 803 991 870 893 870 c 257
 810.677 869.57 711 762 786 603.727 c 256
 787 580.656 l 257
 746 580.656 l 257
EndSplineSet
Refer: 61 2995 N 1 0 0 1 0 0 2
Validated: 524325
EndChar

StartChar: tml_LlU
Encoding: 59 -1 59
GlifName: tml_L_lU_
Width: 1232
VWidth: 0
GlyphClass: 2
Flags: HW
HStem: -149 122 0 122 237 123 379 122 472 123
VStem: 1 123 229 172 229 132 230 123 501 123 662 123 1149 122
LayerCount: 2
Fore
SplineSet
195 -142 m 258
 107.912 -142 40 -76.6279 40 57 c 258
 40 292 l 258
 40 423.804 131.658 461 200 461 c 256
 200 421 l 256
 141.132 421 80 387.115 80 287 c 258
 80 56 l 258
 80 -55.3613 132.662 -102 192 -102 c 258
 615 -102 l 257
 615 -142 l 257
 195 -142 l 258
669 -142 m 257
 669 -102 l 257
 1038 -102 l 258
 1092.32 -102 1152 -49 1152 20 c 258
 1152 183 l 258
 1152 282 1060 300 1028 300 c 257
 1028 340 l 257
 1089 334 1192 305 1192 187 c 258
 1192 20 l 258
 1192 -47 1141.54 -142 1039 -142 c 258
 669 -142 l 257
EndSplineSet
Refer: 61 2995 N 1 0 0 1 196 0 2
Validated: 8912901
PickledDataWithLists: "(dp1
S'com.fontlab.hintData'
p2
(dp3
S'vhints'
p4
(lp5
(dp6
S'position'
p7
L1L
sS'width'
p8
L123L
sa(dp9
g7
L229L
sg8
L172L
sa(dp10
g7
L229L
sg8
L132L
sa(dp11
g7
L230L
sg8
L123L
sa(dp12
g7
L501L
sg8
L123L
sa(dp13
g7
L662L
sg8
L123L
sa(dp14
g7
L1149L
sg8
L122L
sasS'hhints'
p15
(lp16
(dp17
g7
L-149L
sg8
L122L
sa(dp18
g7
L0L
sg8
L122L
sa(dp19
g7
L237L
sg8
L123L
sa(dp20
g7
L379L
sg8
L122L
sa(dp21
g7
L472L
sg8
L123L
sass."
EndChar

StartChar: tml_LlUu
Encoding: 60 -1 60
GlifName: tml_L_lU_u
Width: 1342
VWidth: 0
GlyphClass: 2
Flags: HW
HStem: -149 122 0 122 237 123 379 122 472 123
VStem: 1 123 229 172 229 132 230 123 501 123 662 123 1149 122
LayerCount: 2
Fore
SplineSet
40 31 m 258
 40 390 l 258
 40 467.626 75.2305 526 156 526 c 258
 166 526 l 258
 243.333 526 282 461.385 282 421 c 258
 282 392 l 258
 282 344.686 230.064 296 167 296 c 257
 167 336 l 256
 221.782 336.61 242 376.911 242 405 c 256
 242 439.033 221.306 486 161 486 c 256
 102.761 486 80 452.212 80 390 c 258
 80 30 l 258
 80 -91 155 -136 234 -136 c 258
 700 -136 l 257
 700 -176 l 257
 234 -176 l 258
 125 -176 40 -108 40 31 c 258
753 -136 m 257
 1087 -136 l 258
 1158 -136 1236 -83 1236 -14 c 258
 1236 217 l 258
 1236 316 1144 332 1112 332 c 257
 1112 372 l 257
 1173 366 1276 339 1276 221 c 258
 1276 -14 l 258
 1276 -81 1214 -176 1088 -176 c 258
 753 -176 l 257
 753 -136 l 257
EndSplineSet
Refer: 61 2995 N 1 0 0 1 278 -3 2
Validated: 8912901
PickledDataWithLists: "(dp1
S'com.fontlab.hintData'
p2
(dp3
S'vhints'
p4
(lp5
(dp6
S'position'
p7
L1L
sS'width'
p8
L123L
sa(dp9
g7
L229L
sg8
L172L
sa(dp10
g7
L229L
sg8
L132L
sa(dp11
g7
L230L
sg8
L123L
sa(dp12
g7
L501L
sg8
L123L
sa(dp13
g7
L662L
sg8
L123L
sa(dp14
g7
L1149L
sg8
L122L
sasS'hhints'
p15
(lp16
(dp17
g7
L-149L
sg8
L122L
sa(dp18
g7
L0L
sg8
L122L
sa(dp19
g7
L237L
sg8
L123L
sa(dp20
g7
L379L
sg8
L122L
sa(dp21
g7
L472L
sg8
L123L
sass."
EndChar

StartChar: tml_Lla
Encoding: 61 2995 61
GlifName: tml_L_la
Width: 898
VWidth: 0
GlyphClass: 2
Flags: HW
HStem: 0 122 237 123 482 123
VStem: 3 171 3 131 3 124 275 123
AnchorPoint: "tml_virama" 531 0 basechar 0
LayerCount: 2
Fore
SplineSet
40 172 m 258
 40 196 l 258
 40 300 116 359 192 359 c 257
 192 319 l 256
 154.616 319 79 295 79 181 c 256
 79 91 141.872 40 192 40 c 257
 192 0 l 256
 103.628 0 40 88 40 172 c 258
247 0 m 257
 247 40 l 257
 291.449 40 341 88 341 182.617 c 256
 341 282 289.264 319 247 319 c 257
 247 359 l 256
 320.184 359 383 292 383 196 c 258
 383 173 l 258
 383.805 75 319.207 0 247 0 c 257
314.982 565 m 257
 314.982 605 l 257
 476.982 605 517.982 454 517.982 355 c 257
 517.982 0 l 257
 477.982 0 l 257
 477.982 354 l 257
 477.982 472 427.982 565 314.982 565 c 257
40 204 m 257
 40 302 l 257
 40 468.761 124.474 605 261 605 c 257
 261 565 l 257
 147.771 565 81.653 443.391 80 306 c 256
 40 204 l 257
477.982 325 m 257
 477.982 440 487.982 605 621.982 605 c 257
 621.982 565 l 257
 534.982 565 517.982 454 517.982 326 c 257
 477.982 325 l 257
744.982 0 m 257
 744.982 574 l 257
 784.982 574 l 257
 784.982 0 l 257
 744.982 0 l 257
675.982 565 m 257
 675.982 605 l 257
 858.982 605 l 257
 858.982 565 l 257
 675.982 565 l 257
EndSplineSet
Validated: 8912933
PickledDataWithLists: "(dp1
S'com.fontlab.hintData'
p2
(dp3
S'vhints'
p4
(lp5
(dp6
S'position'
p7
L3L
sS'width'
p8
L171L
sa(dp9
g7
L3L
sg8
L131L
sa(dp10
g7
L3L
sg8
L124L
sa(dp11
g7
L275L
sg8
L123L
sasS'hhints'
p12
(lp13
(dp14
g7
L0L
sg8
L122L
sa(dp15
g7
L237L
sg8
L123L
sa(dp16
g7
L482L
sg8
L123L
sass."
EndChar

StartChar: tml_LllI
Encoding: 62 -1 62
GlifName: tml_L_llI_
Width: 728
VWidth: 0
GlyphClass: 2
Flags: W
LayerCount: 2
Fore
SplineSet
364 565 m 257
 280.371 565 286 443 286 434 c 258
 286 39 l 257
 246 39 l 256
 246 434 l 258
 245.139 567 308.015 605 364 605 c 257
 418 605 l 257
 476.457 605 542 569 542 434 c 258
 542 197 l 258
 542 48 481.771 0 418 0 c 256
 418 40 l 257
 500.32 40 502 165 502 196 c 258
 502 434 l 258
 502 442 507.88 565 418 565 c 257
 364 565 l 257
373 594.957 m 257
 373 594.957 l 257
 373 698.957 410 762.957 504 762.957 c 256
 504 762.957 l 257
 504 722.957 l 256
 504 722.957 l 256
 424 722.957 413 655.957 413 594.957 c 256
 373 594.957 l 257
558 722.957 m 257
 558 762.957 l 257
 655 762.957 688 698.957 688 596.957 c 258
 688 67.957 l 257
 648 67.957 l 257
 648 593.957 l 258
 648 655.957 644 722.957 558 722.957 c 257
246.086 1 m 257
 286.086 1 l 257
 286.086 -112 377.086 -106 484.086 -106 c 257
 484.086 -146 l 256
 432.086 -145 l 257
 268.086 -146 246.086 -60 246.086 1 c 257
40 24 m 257
 40 595 l 257
 80 595 l 257
 80 24 l 257
 40 24 l 257
126.086 -67 m 257
 86.0859 -67 l 257
 86.0859 -191 201.853 -260 330.086 -165 c 257
 311.086 -163 288.172 -153 282.086 -148 c 257
 244.344 -189 126.086 -185 126.086 -67 c 257
40 0 m 257
 40 40 l 257
 364 40 l 257
 364 0 l 257
 40 0 l 257
EndSplineSet
Validated: 37
EndChar

StartChar: tml_LllIi
Encoding: 63 -1 63
GlifName: tml_L_llI_i
Width: 707
VWidth: 0
GlyphClass: 2
Flags: W
LayerCount: 2
Fore
SplineSet
364 565 m 257
 280.371 565 286 443 286 434 c 258
 286 39 l 257
 246 39 l 256
 246 434 l 258
 245.139 567 308.015 605 364 605 c 257
 418 605 l 257
 476.457 605 542 569 542 434 c 258
 542 197 l 258
 542 48 481.771 0 418 0 c 256
 418 40 l 257
 500.32 40 502 165 502 196 c 258
 502 434 l 258
 502 442 507.88 565 418 565 c 257
 364 565 l 257
373 579.656 m 257
 373 604 l 256
 299 763 394.394 909 530 909 c 256
 704 909 713.69 672 551 672 c 256
 513 672 479 699 469 720 c 257
 495 751 l 256
 495 735 529 712 554 712 c 256
 577 712 626 728 626 787 c 256
 626 802 618 869 520 869 c 257
 437.677 868.57 338 761 413 602.727 c 256
 414 579.656 l 257
 373 579.656 l 257
246.086 1 m 257
 286.086 1 l 257
 286.086 -112 377.086 -106 484.086 -106 c 257
 484.086 -146 l 256
 432.086 -145 l 257
 268.086 -146 246.086 -60 246.086 1 c 257
40 24 m 257
 40 595 l 257
 80 595 l 257
 80 24 l 257
 40 24 l 257
126.086 -67 m 257
 86.0859 -67 l 257
 86.0859 -191 201.853 -260 330.086 -165 c 257
 311.086 -163 288.172 -153 282.086 -148 c 257
 244.344 -189 126.086 -185 126.086 -67 c 257
40 0 m 257
 40 40 l 257
 364 40 l 257
 364 0 l 257
 40 0 l 257
EndSplineSet
Validated: 37
EndChar

StartChar: tml_LllU
Encoding: 64 -1 64
GlifName: tml_L_llU_
Width: 759
VWidth: 0
GlyphClass: 2
Flags: HW
HStem: -258 93 -146 179 0 123 107 17 122 1 483 122
VStem: 1 123 216 122 419 122 420 122 536 5 602 93 679 123
LayerCount: 2
Fore
SplineSet
40.0166 544 m 258
 39.2803 612.688 63.1484 701 157.017 701 c 258
 235.017 701 l 257
 235.017 661 l 256
 151.017 661 l 257
 95.1895 661 82.085 598.84 82.0166 550 c 258
 81.0166 -56 l 258
 81.0166 -125.679 116.712 -192 191.017 -192 c 258
 326.017 -192 l 257
 326.017 -232 l 257
 195.017 -232 l 258
 109.614 -232 43.0166 -173.456 43.0166 -52 c 258
 40.0166 544 l 258
380.017 -192 m 256
 627.017 -192 l 256
 627.017 -92 l 256
 451.017 -92 l 256
 451.017 -52 l 257
 614.017 -52 l 258
 657.017 -52 667.017 -78 667.017 -101 c 258
 667.017 -177 l 258
 667.017 -220 650.017 -232 614.017 -232 c 258
 380.017 -232 l 257
 380.017 -192 l 256
419.017 32 m 257
 459.017 32 l 257
 459.017 -146 l 257
 419.017 -146 l 257
 419.017 32 l 257
EndSplineSet
Refer: 71 2990 N 1 0 0 1 177.016 0 2
Validated: 8912933
PickledDataWithLists: "(dp1
S'com.fontlab.hintData'
p2
(dp3
S'vhints'
p4
(lp5
(dp6
S'position'
p7
L1L
sS'width'
p8
L123L
sa(dp9
g7
L216L
sg8
L122L
sa(dp10
g7
L419L
sg8
L122L
sa(dp11
g7
L420L
sg8
L122L
sa(dp12
g7
L536L
sg8
L5L
sa(dp13
g7
L602L
sg8
L93L
sa(dp14
g7
L679L
sg8
L123L
sasS'hhints'
p15
(lp16
(dp17
g7
L-258L
sg8
L93L
sa(dp18
g7
L-146L
sg8
L179L
sa(dp19
g7
L0L
sg8
L123L
sa(dp20
g7
L107L
sg8
L17L
sa(dp21
g7
L122L
sg8
L1L
sa(dp22
g7
L483L
sg8
L122L
sass."
EndChar

StartChar: tml_LllUu
Encoding: 65 -1 65
GlifName: tml_L_llU_u
Width: 863
VWidth: 0
GlyphClass: 2
Flags: HW
HStem: -258 93 -146 179 2 123 108 17 124 1 442 122 485 122
VStem: -19 125 181 122 320 122 523 122 524 122 640 5 707 93 784 123
LayerCount: 2
Fore
SplineSet
40 -25 m 258
 40 372 l 258
 40 458.188 75.4189 523 155 523 c 258
 165 523 l 258
 241.179 523 280 462.308 280 413 c 258
 280 399 l 258
 280 345.278 228.968 290 167 290 c 257
 167 330 l 256
 215.321 330.664 240 370.469 240 405 c 256
 240 437.773 219.072 483 160 483 c 256
 102 483 80 443.933 80 372 c 258
 80 -26 l 258
 80 -147 134.653 -192 193 -192 c 258
 430 -192 l 257
 430 -232 l 257
 193 -232 l 258
 106.591 -232 40 -164 40 -25 c 258
484 -192 m 256
 733 -192 l 256
 733 -93 l 256
 555 -93 l 256
 555 -53 l 257
 720 -53 l 258
 763 -53 773 -79 773 -102 c 258
 773 -177 l 258
 773 -220 756 -232 720 -232 c 258
 484 -232 l 257
 484 -192 l 256
523 32 m 257
 563 32 l 257
 563 -146 l 257
 523 -146 l 257
 523 32 l 257
EndSplineSet
Refer: 71 2990 N 1 0 0 1 281 2 2
Validated: 8912901
PickledDataWithLists: "(dp1
S'com.fontlab.hintData'
p2
(dp3
S'vhints'
p4
(lp5
(dp6
S'position'
p7
L-19L
sS'width'
p8
L125L
sa(dp9
g7
L181L
sg8
L122L
sa(dp10
g7
L320L
sg8
L122L
sa(dp11
g7
L523L
sg8
L122L
sa(dp12
g7
L524L
sg8
L122L
sa(dp13
g7
L640L
sg8
L5L
sa(dp14
g7
L707L
sg8
L93L
sa(dp15
g7
L784L
sg8
L123L
sasS'hhints'
p16
(lp17
(dp18
g7
L-258L
sg8
L93L
sa(dp19
g7
L-146L
sg8
L179L
sa(dp20
g7
L2L
sg8
L123L
sa(dp21
g7
L108L
sg8
L17L
sa(dp22
g7
L124L
sg8
L1L
sa(dp23
g7
L442L
sg8
L122L
sa(dp24
g7
L485L
sg8
L122L
sass."
EndChar

StartChar: tml_Llla
Encoding: 66 2996 66
GlifName: tml_L_lla
Width: 601
VWidth: 0
GlyphClass: 2
Flags: HW
HStem: -145 123 0 123 107 17 122 1 483 122
VStem: 1 122 205 122 465 123
AnchorPoint: "tml_virama" 441 0 basechar 0
LayerCount: 2
Fore
SplineSet
87.0859 -67 m 257
 87.0859 -191 202.853 -260 331.086 -165 c 257
 312.086 -163 289.172 -153 283.086 -148 c 257
 245.344 -189 127.086 -185 127.086 -67 c 257
 87.0859 -67 l 257
247.086 1 m 257
 287.086 1 l 257
 287.086 -112 378.086 -106 485.086 -106 c 257
 485.086 -146 l 256
 433.086 -145 l 257
 269.086 -146 247.086 -60 247.086 1 c 257
EndSplineSet
Refer: 71 2990 N 1 0 0 1 1.08594 1.45313 2
Validated: 8912933
PickledDataWithLists: "(dp1
S'com.fontlab.hintData'
p2
(dp3
S'vhints'
p4
(lp5
(dp6
S'position'
p7
L1L
sS'width'
p8
L122L
sa(dp9
g7
L205L
sg8
L122L
sa(dp10
g7
L465L
sg8
L123L
sasS'hhints'
p11
(lp12
(dp13
g7
L-145L
sg8
L123L
sa(dp14
g7
L0L
sg8
L123L
sa(dp15
g7
L107L
sg8
L17L
sa(dp16
g7
L122L
sg8
L1L
sa(dp17
g7
L483L
sg8
L122L
sass."
EndChar

StartChar: tml_MI
Encoding: 67 -1 67
GlifName: tml_M_I_
Width: 720
VWidth: 0
GlyphClass: 2
Flags: W
LayerCount: 2
Fore
SplineSet
550 723.957 m 257
 550 763.957 l 257
 647 763.957 680 699.957 680 597.957 c 258
 680 68.957 l 257
 640 68.957 l 257
 640 594.957 l 258
 640 656.957 636 723.957 550 723.957 c 257
365 595.957 m 257
 365 595.957 l 257
 365 699.957 402 763.957 496 763.957 c 256
 496 763.957 l 257
 496 723.957 l 256
 496 723.957 l 256
 416 723.957 405 656.957 405 595.957 c 256
 365 595.957 l 257
364 565 m 257
 280.371 565 286 443 286 434 c 258
 286 39 l 257
 246 39 l 256
 246 434 l 258
 245.139 567 308.015 605 364 605 c 257
 418 605 l 257
 476.457 605 542 569 542 434 c 258
 542 197 l 258
 542 48 481.771 0 418 0 c 256
 418 40 l 257
 500.32 40 502 165 502 196 c 258
 502 434 l 258
 502 442 507.88 565 418 565 c 257
 364 565 l 257
40 24 m 257
 40 595 l 257
 80 595 l 257
 80 24 l 257
 40 24 l 257
40 0 m 257
 40 40 l 257
 364 40 l 257
 364 0 l 257
 40 0 l 257
EndSplineSet
Validated: 37
EndChar

StartChar: tml_MIi
Encoding: 68 -1 68
GlifName: tml_M_I_i
Width: 707
VWidth: 0
GlyphClass: 2
Flags: W
LayerCount: 2
Fore
SplineSet
364 565 m 257
 280.371 565 286 443 286 434 c 258
 286 39 l 257
 246 39 l 256
 246 434 l 258
 245.139 567 308.015 605 364 605 c 257
 418 605 l 257
 476.457 605 542 569 542 434 c 258
 542 197 l 258
 542 48 481.771 0 418 0 c 256
 418 40 l 257
 500.32 40 502 165 502 196 c 258
 502 434 l 258
 502 442 507.88 565 418 565 c 257
 364 565 l 257
373 574.656 m 257
 373 599 l 256
 299 758 394.394 904 530 904 c 256
 704 904 713.69 667 551 667 c 256
 513 667 479 694 469 715 c 257
 495 746 l 256
 495 730 529 707 554 707 c 256
 577 707 626 723 626 782 c 256
 626 797 618 864 520 864 c 257
 437.677 863.57 338 756 413 597.727 c 256
 414 574.656 l 257
 373 574.656 l 257
40 24 m 257
 40 595 l 257
 80 595 l 257
 80 24 l 257
 40 24 l 257
40 0 m 257
 40 40 l 257
 364 40 l 257
 364 0 l 257
 40 0 l 257
EndSplineSet
Validated: 37
EndChar

StartChar: tml_MU
Encoding: 69 -1 69
GlifName: tml_M_U_
Width: 793
VWidth: 0
GlyphClass: 2
Flags: HW
HStem: -151 122 0 123 107 17 122 1 483 122 634 122
VStem: 0 123 250 122 454 122 714 123
LayerCount: 2
Fore
SplineSet
234.015 -137 m 262
 125.015 -137 40.0146 -83.335 40.0146 28 c 262
 40.0146 548 l 261
 38.9492 635.485 96.8086 730 239.015 730 c 261
 239.015 690 l 261
 125.867 690 80.0146 618.372 80.0146 555 c 262
 80.0146 24 l 262
 80.0146 -37.9941 128.015 -97 230.015 -97 c 262
 301.015 -97 l 261
 301.015 -137 l 261
 234.015 -137 l 262
355.015 -97 m 256
 454.015 -97 l 256
 454.015 15 l 257
 495.015 15 l 257
 495.015 -91 l 258
 495.015 -115 483.015 -137 453.015 -137 c 258
 355.015 -137 l 257
 355.015 -97 l 256
EndSplineSet
Refer: 71 2990 N 1 0 0 1 211.014 0 2
Validated: 8912933
PickledDataWithLists: "(dp1
S'com.fontlab.hintData'
p2
(dp3
S'vhints'
p4
(lp5
(dp6
S'position'
p7
L0L
sS'width'
p8
L123L
sa(dp9
g7
L250L
sg8
L122L
sa(dp10
g7
L454L
sg8
L122L
sa(dp11
g7
L714L
sg8
L123L
sasS'hhints'
p12
(lp13
(dp14
g7
L-151L
sg8
L122L
sa(dp15
g7
L0L
sg8
L123L
sa(dp16
g7
L107L
sg8
L17L
sa(dp17
g7
L122L
sg8
L1L
sa(dp18
g7
L483L
sg8
L122L
sa(dp19
g7
L634L
sg8
L122L
sass."
EndChar

StartChar: tml_MUu
Encoding: 70 -1 70
GlifName: tml_M_U_u
Width: 894
VWidth: 0
GlyphClass: 2
Flags: HW
HStem: -151 122 0 123 107 17 122 1 442 122 483 122
VStem: -16 125 184 122 336 122 540 122 799 123
LayerCount: 2
Fore
SplineSet
50 26 m 258
 50 387 l 258
 50 464.625976562 103.154296875 523 172 523 c 258
 178 523 l 258
 257.490234375 523 298 464.3515625 298 411 c 258
 298 400 l 258
 298 346.279296875 241.547851562 291 173 291 c 257
 173 331 l 256
 227.086914062 331.655273438 258 364.875976562 258 405 c 256
 258 451.7734375 230.6484375 483 177 483 c 256
 128.806640625 483 90 449.211914062 90 387 c 258
 90 25 l 258
 90 -64.65625 142.71875 -98 199 -98 c 258
 386 -98 l 257
 386 -138 l 257
 199 -138 l 258
 114.849609375 -138 50 -84.1259765625 50 26 c 258
440 -98 m 256
 540 -98 l 256
 540 15 l 257
 581 15 l 257
 581 -92 l 258
 581 -116 569 -138 539 -138 c 258
 440 -138 l 257
 440 -98 l 256
EndSplineSet
Refer: 71 2990 N 1 0 0 1 297 -2.34375 2
Validated: 8912901
PickledDataWithLists: "(dp1
S'com.fontlab.hintData'
p2
(dp3
S'vhints'
p4
(lp5
(dp6
S'position'
p7
L50L
sS'width'
p8
L125L
sa(dp9
g7
L250L
sg8
L122L
sa(dp10
g7
L402L
sg8
L122L
sa(dp11
g7
L606L
sg8
L122L
sa(dp12
g7
L865L
sg8
L123L
sasS'hhints'
p13
(lp14
(dp15
g7
L-151L
sg8
L122L
sa(dp16
g7
L0L
sg8
L123L
sa(dp17
g7
L107L
sg8
L17L
sa(dp18
g7
L122L
sg8
L1L
sa(dp19
g7
L442L
sg8
L122L
sa(dp20
g7
L483L
sg8
L122L
sass."
EndChar

StartChar: tml_Ma
Encoding: 71 2990 71
GlifName: tml_M_a
Width: 601
VWidth: 0
GlyphClass: 2
Flags: HW
HStem: 0 123 107 17 122 1 483 122
VStem: 1 122 205 122 465 123
AnchorPoint: "tml_virama" 411 0 basechar 0
LayerCount: 2
Fore
SplineSet
418 0 m 256
 418 40 l 257
 500.32 40 502 165 502 196 c 258
 502 434 l 258
 502 442 507.88 565 418 565 c 257
 418 605 l 257
 476.457 605 542 569 542 434 c 258
 542 197 l 258
 542 48 481.771 0 418 0 c 256
246 39 m 256
 246 434 l 258
 245.139 567 308.015 605 364 605 c 257
 364 565 l 257
 280.371 565 286 443 286 434 c 258
 286 39 l 257
 246 39 l 256
40 24 m 257
 40 595 l 257
 80 595 l 257
 80 24 l 257
 40 24 l 257
40 0 m 257
 40 40 l 257
 364 40 l 257
 364 0 l 257
 40 0 l 257
EndSplineSet
Validated: 8912933
PickledDataWithLists: "(dp1
S'com.fontlab.hintData'
p2
(dp3
S'vhints'
p4
(lp5
(dp6
S'position'
p7
L1L
sS'width'
p8
L122L
sa(dp9
g7
L205L
sg8
L122L
sa(dp10
g7
L465L
sg8
L123L
sasS'hhints'
p11
(lp12
(dp13
g7
L0L
sg8
L123L
sa(dp14
g7
L107L
sg8
L17L
sa(dp15
g7
L122L
sg8
L1L
sa(dp16
g7
L483L
sg8
L122L
sass."
EndChar

StartChar: tml_MatraAa
Encoding: 72 3006 72
GlifName: tml_M_atraA_a
Width: 490
VWidth: 0
GlyphClass: 2
Flags: HW
HStem: 0 21<61 61 61 101 344 344 344 384> 473 122
VStem: 18 179 18 122
LayerCount: 2
Fore
SplineSet
344 0 m 257
 344 593 l 257
 384 593 l 257
 384 0 l 257
 344 0 l 257
61 0 m 257
 61 592 l 257
 101 593 l 257
 101 0 l 257
 61 0 l 257
249 555 m 257
 249 595 l 257
 468 595 l 257
 468 555 l 257
 249 555 l 257
61 555 m 257
 61 595 l 257
 196 595 l 257
 196 555 l 257
 61 555 l 257
EndSplineSet
Validated: 8388613
PickledDataWithLists: "(dp1
S'com.fontlab.hintData'
p2
(dp3
S'vhints'
p4
(lp5
(dp6
S'position'
p7
L40L
sS'width'
p8
L179L
sa(dp9
g7
L40L
sg8
L122L
sasS'hhints'
p10
(lp11
(dp12
g7
L0L
sg8
L21L
sa(dp13
g7
L473L
sg8
L122L
sass."
EndChar

StartChar: tml_MatraAi
Encoding: 73 3016 73
GlifName: tml_M_atraA_i
Width: 1043
VWidth: 0
GlyphClass: 2
Flags: W
LayerCount: 2
Fore
SplineSet
423 158 m 257
 423 288 l 258
 423 584 683 605.957 748 605 c 257
 748 565 l 257
 572 565 463 477 463 290 c 258
 463 159 l 258
 463 78 507 30 568 30 c 257
 568 -10 l 256
 472 -10 423 73 423 158 c 257
389 565 m 257
 389 605 l 257
 465 605 768 594 768 301 c 258
 768 158 l 258
 768 66 722 -10 622 -10 c 257
 622 30 l 256
 690 30 728 76 728 158 c 258
 728 306 l 258
 728 440 649 565 389 565 c 257
40 157 m 257
 40 290 l 258
 40 569.727 248 604.957 335 605 c 257
 335 565 l 257
 121 564 79.2207 402.994 80 290 c 258
 81 158 l 258
 80 63 138 29 186 29 c 257
 186 -11 l 256
 89 -11 40 72 40 157 c 257
257 408 m 257
 254 421 276 437 295 437 c 257
 364 437 385 362 385 284 c 258
 385 157 l 258
 385 61 334 -11 239 -11 c 257
 239 29 l 256
 293 29 345 63 345 157 c 258
 345 284 l 258
 345 340 344 408 257 408 c 257
802 556 m 257
 802 596 l 257
 898 590 995 483 995 303 c 258
 995 162 l 258
 995 70 941 -5 841 -5 c 257
 841 35 l 256
 914 35 954.895 86 955 162 c 258
 955 303 l 258
 955 471 864 554 802 556 c 257
EndSplineSet
Validated: 37
EndChar

StartChar: tml_MatraE
Encoding: 75 3014 75
GlifName: tml_M_atraE_
Width: 633
VWidth: 0
GlyphClass: 2
Flags: W
LayerCount: 2
Fore
SplineSet
283 0 m 257
 283 40 l 257
 327.449 40 377 88 377 182.617 c 256
 377 282 325.264 319 283 319 c 257
 283 359 l 256
 356.184 359 419 292 419 196 c 258
 419 173 l 258
 419.805 75 355.207 0 283 0 c 257
76 172 m 258
 76 196 l 258
 76 300 152 359 228 359 c 257
 228 319 l 256
 190.616 319 115 295 115 181 c 256
 115 91 177.872 40 228 40 c 257
 228 0 l 256
 139.628 0 76 88 76 172 c 258
350 637 m 257
 350 677 l 257
 493.918 677 555 570.348 555 451 c 258
 555 -10 l 257
 515 -10 l 257
 515 451 l 258
 515 508.357 494.073 637 350 637 c 257
76 194 m 257
 76 248 l 257
 76 451 l 258
 76 569.502 141.914 677 296 677 c 256
 296 677 l 257
 296 637 l 256
 296 637 l 256
 150.009 637 116 524.744 116 451 c 258
 116 303 l 258
 117 246 82 224 76 194 c 257
EndSplineSet
Validated: 37
EndChar

StartChar: tml_MatraEe
Encoding: 76 3015 76
GlifName: tml_M_atraE_e
Width: 621
VWidth: 0
GlyphClass: 2
Flags: W
HStem: -42 121 194 123 346 122 582 123
VStem: 39 121 187 125 459 123
LayerCount: 2
Fore
SplineSet
413.009 346 m 257
 413.009 386 l 257
 457.458 386 507.009 434 507.009 528.617 c 256
 507.009 628 455.272 665 413.009 665 c 257
 413.009 705 l 256
 486.192 705 549.009 638 549.009 542 c 258
 549.009 519 l 258
 549.813 421 485.216 346 413.009 346 c 257
206.009 518 m 258
 206.009 542 l 258
 206.009 646 282.009 705 358.009 705 c 257
 358.009 665 l 256
 320.625 665 245.009 641 245.009 527 c 256
 245.009 437 307.881 386 358.009 386 c 257
 358.009 346 l 256
 269.637 346 206.009 434 206.009 518 c 258
413 -42 m 257
 413 -2 l 257
 457.449 -2 507 46 507 140.617 c 256
 507 240 455.264 277 413 277 c 257
 413 317 l 256
 486.184 317 549 250 549 154 c 258
 549 131 l 258
 549.805 33 485.207 -42 413 -42 c 257
206 130 m 258
 206 154 l 258
 206 258 282 317 358 317 c 257
 358 277 l 256
 320.616 277 245 253 245 139 c 256
 245 49 307.872 -2 358 -2 c 257
 358 -42 l 256
 269.628 -42 206 46 206 130 c 258
81 195 m 257
 81 466 l 257
 81 676 290.733 705 354 705 c 256
 354 666 l 257
 307.309 664 118 646 118 462 c 258
 118 208 l 258
 118 4 320.3 -2 356 -2 c 257
 356 -42 l 256
 351 -42 l 258
 267.923 -42 81 -5 81 195 c 257
EndSplineSet
Validated: 37
PickledDataWithLists: "(dp1
S'com.fontlab.hintData'
p2
(dp3
S'vhints'
p4
(lp5
(dp6
S'position'
p7
L39L
sS'width'
p8
L121L
sa(dp9
g7
L187L
sg8
L125L
sa(dp10
g7
L459L
sg8
L123L
sasS'hhints'
p11
(lp12
(dp13
g7
L-42L
sg8
L121L
sa(dp14
g7
L194L
sg8
L123L
sa(dp15
g7
L346L
sg8
L122L
sa(dp16
g7
L582L
sg8
L123L
sass."
EndChar

StartChar: tml_MatraI
Encoding: 77 3007 77
GlifName: tml_M_atraI_
Width: 556
VWidth: 0
GlyphClass: 2
Flags: W
LayerCount: 2
Fore
SplineSet
301 717 m 257
 301 757 l 257
 421 757 475 683 475 582 c 258
 475 69 l 257
 435 69 l 257
 435 579 l 258
 435 690 367 717 301 717 c 257
82 580 m 257
 82 580 l 257
 82 678 125 758 247 758 c 256
 247 758 l 257
 247 718 l 256
 247 718 l 256
 180 718 122 689 122 580 c 256
 82 580 l 257
EndSplineSet
Validated: 5
EndChar

StartChar: tml_MatraIi
Encoding: 78 3008 78
GlifName: tml_M_atraI_i
Width: 102
VWidth: 0
GlyphClass: 2
Flags: HW
LayerCount: 2
Fore
SplineSet
32 414 m 257
 -143 557 -118 880 75 880 c 256
 150.006835938 880 213 838 213 756 c 256
 213 700 169 638 103 638 c 256
 56 638 16 675 12 696 c 257
 38 727 l 256
 38 711 57 678 105 678 c 256
 147 678 173 717 173 755 c 256
 173 792 153 839 75 839 c 257
 -94 828 -83 543 84 419 c 257
 32 414 l 257
EndSplineSet
Validated: 524321
EndChar

StartChar: tml_MatraU
Encoding: 81 3009 81
GlifName: tml_M_atraU_
Width: 529
VWidth: 0
GlyphClass: 2
Flags: W
LayerCount: 2
Fore
SplineSet
39 615 m 257
 39 655 l 257
 323 655 l 258
 438 655 488 604 488 537 c 258
 488 530 l 258
 488 471 436 417 381 417 c 258
 369 417 l 258
 300 417 258 480 258 530 c 257
 298 530 l 256
 298 510 315 457 374 457 c 256
 429 457 448 511 448 529 c 256
 448 584 416 615 319 615 c 258
 39 615 l 257
EndSplineSet
Validated: 1
EndChar

StartChar: tml_MatraUu
Encoding: 82 3010 82
GlifName: tml_M_atraU_u
Width: 700
VWidth: 0
GlyphClass: 2
Flags: HW
LayerCount: 2
Fore
SplineSet
45 615 m 257
 45 655 l 257
 329 655 l 258
 444 655 494 604 494 537 c 258
 494 530 l 258
 494 471 442 417 387 417 c 258
 375 417 l 258
 306 417 264 480 264 530 c 257
 304 530 l 256
 304 510 321 457 380 457 c 256
 435 457 454 511 454 529 c 256
 454 584 422 615 325 615 c 258
 45 615 l 257
261 652 m 256
 261 794 338 852 453 852 c 256
 556 852 645 801 645 696 c 258
 645 372 l 258
 645 294 608 247 507 247 c 258
 448 247 l 256
 448 287 l 256
 507 287 l 258
 553 287 605 290 605 372 c 258
 605 696 l 258
 605 753 563 812 453 812 c 256
 346 812 301 754 301 652 c 257
 261 652 l 256
EndSplineSet
Validated: 5
EndChar

StartChar: tml_Month
Encoding: 83 3060 83
GlifName: tml_M_onth
Width: 821
VWidth: 0
GlyphClass: 2
Flags: W
LayerCount: 2
Fore
SplineSet
371 602 m 256
 371 717 435 781 499 781 c 256
 560 781 599 753 599 686 c 256
 599 639 560 602 506 602 c 256
 447 602 429 657 429 691 c 256
 429 780 492 848 560 848 c 256
 633 848 690 802 690 662 c 256
 788 662 l 256
 788 622 l 256
 649 622 l 257
 655 690 654 808 559 808 c 256
 488 808 469.51 720.995 469 695 c 256
 467.529 620 551.001 630 559 686 c 256
 566.571 739 497 761.876 444 713 c 256
 433 702.856 411.225 669.415 411 602 c 257
 371 602 l 256
417 0 m 256
 417 40 l 257
 499.32 40 501 165 501 196 c 258
 501 434 l 258
 501 442 506.88 565 417 565 c 257
 417 605 l 257
 475.457 605 541 569 541 434 c 258
 541 197 l 258
 541 48 480.771 0 417 0 c 256
245 39 m 256
 245 434 l 258
 244.139 567 307.015 605 363 605 c 257
 363 565 l 257
 279.371 565 285 443 285 434 c 258
 285 39 l 257
 245 39 l 256
39 24 m 257
 39 595 l 257
 79 595 l 257
 79 24 l 257
 39 24 l 257
39 0 m 257
 39 40 l 257
 363 40 l 257
 363 0 l 257
 39 0 l 257
EndSplineSet
Validated: 37
EndChar

StartChar: tml_NI
Encoding: 84 -1 84
GlifName: tml_N_I_
Width: 780
VWidth: 0
GlyphClass: 2
Flags: HW
LayerCount: 2
Fore
SplineSet
553 727 m 257
 553 767 l 257
 696 767 740 697 740 594 c 258
 740 68 l 257
 700 68 l 257
 700 591 l 258
 700 653 690 727 553 727 c 257
319 592 m 257
 319 592 l 257
 319 696 356 767 499 767 c 256
 499 767 l 257
 499 727 l 256
 499 727 l 256
 363 727 358 653 358 592 c 256
 319 592 l 257
EndSplineSet
Refer: 88 2984 N 1 0 0 1 -37 0 2
Validated: 524293
EndChar

StartChar: tml_NIi
Encoding: 85 -1 85
GlifName: tml_N_I_i
Width: 653
VWidth: 0
GlyphClass: 2
Flags: HW
LayerCount: 2
Fore
SplineSet
319 470.656 m 257
 319 594 l 256
 245 753 340.394 899 476 899 c 256
 650 899 659.69 662 497 662 c 256
 459 662 425 689 415 710 c 257
 441 741 l 256
 441 725 475 702 500 702 c 256
 523 702 572 718 572 777 c 256
 572 792 564 859 466 859 c 257
 383.677 858.57 283 751 358 592.727 c 256
 358 470.656 l 257
 319 470.656 l 257
EndSplineSet
Refer: 88 2984 N 1 0 0 1 -37 0 2
Validated: 524325
EndChar

StartChar: tml_NU
Encoding: 86 -1 86
GlifName: tml_N_U_
Width: 1067
VWidth: 0
GlyphClass: 2
Flags: HW
HStem: -256 94 -119 93 3 122 489 123 489 32
VStem: 217 122 377 122 600 122 756 139 772 122 948 122
LayerCount: 2
Fore
SplineSet
58 -134 m 258
 58 -90 102.010742188 -55 162 -55 c 258
 966 -55 l 257
 966 584 l 256
 1006 584 l 256
 1006 -95 l 257
 162 -95 l 258
 76.013671875 -95 70.0029296875 -192 171 -192 c 258
 430 -192 l 257
 430 -232 l 257
 168 -232 l 258
 105.001953125 -232 58 -190 58 -152 c 258
 58 -134 l 258
484 -232 m 257
 484 -192 l 257
 698 -192 l 258
 774 -192 832 -159 832 -54 c 258
 832 402 l 258
 832 433.265625 825.545898438 515.069335938 756 551 c 257
 756 591 l 257
 844.067382812 559.35546875 872 479.12890625 872 403 c 258
 872 -54 l 258
 872 -120 852 -232 699 -232 c 258
 484 -232 l 257
58 147 m 257
 58 400 l 258
 58 582.043945312 247.66796875 604.971679688 327 605 c 257
 327 565 l 257
 134.8203125 564.400390625 97.7314453125 467.797851562 98 400 c 258
 99 148 l 258
 98.375 67.728515625 134 39 164 39 c 257
 164 -1 l 256
 93.08984375 -1 58 72.119140625 58 147 c 257
196 416 m 257
 193 429 215 445 234 445 c 257
 303 445 324 370 324 292 c 258
 324 147 l 258
 324 62.4287109375 286.97265625 -1 218 -1 c 257
 218 39 l 256
 251.623046875 39 284 67.6875 284 147 c 258
 284 292 l 258
 284 348 283 416 196 416 c 257
524 0 m 256
 453.821289062 0 418 73.119140625 418 148 c 257
 418 383 l 258
 418 575.7265625 650.322265625 612.575195312 703 603.133789062 c 257
 703 562.708007812 l 257
 596.327148438 570.978515625 458 513.7578125 458 385 c 258
 458 149 l 258
 458 80.5576171875 485.657226562 40 524 40 c 257
 524 0 l 256
381 565 m 257
 381 605 l 257
 442.561523438 605 688 597.002929688 688 384 c 258
 688 168 l 258
 688 76 652.509765625 0 577 0 c 257
 577 40 l 256
 618.12109375 40 648 79 648 168 c 258
 648 389 l 258
 648 471.057617188 585.779296875 565 381 565 c 257
EndSplineSet
Validated: 8912933
PickledDataWithLists: "(dp1
S'com.fontlab.hintData'
p2
(dp3
S'vhints'
p4
(lp5
(dp6
S'position'
p7
L263L
sS'width'
p8
L122L
sa(dp9
g7
L423L
sg8
L122L
sa(dp10
g7
L646L
sg8
L122L
sa(dp11
g7
L802L
sg8
L139L
sa(dp12
g7
L818L
sg8
L122L
sa(dp13
g7
L994L
sg8
L122L
sasS'hhints'
p14
(lp15
(dp16
g7
L-256L
sg8
L94L
sa(dp17
g7
L-119L
sg8
L93L
sa(dp18
g7
L3L
sg8
L122L
sa(dp19
g7
L489L
sg8
L123L
sa(dp20
g7
L489L
sg8
L32L
sass."
EndChar

StartChar: tml_NUu
Encoding: 87 -1 87
GlifName: tml_N_U_u
Width: 1457
VWidth: 0
GlyphClass: 2
Flags: HW
HStem: -256 94 -119 93 3 122 473 122 473 111 489 123 489 32
VStem: 263 122 423 122 646 122 802 139 818 122 994 179 994 122
LayerCount: 2
Fore
SplineSet
1296 -90 m 257
 1296 603.957 l 257
 1336 603.957 l 257
 1336 -90 l 257
 1296 -90 l 257
1163 565 m 257
 1163 606 l 257
 1420 606 l 257
 1420 565 l 257
 1163 565 l 257
966 565 m 261
 966 606 l 261
 1109 606 l 257
 1109 565 l 257
 966 565 l 261
EndSplineSet
Refer: 86 -1 N 1 0 0 1 0 0 2
Validated: 8912901
PickledDataWithLists: "(dp1
S'com.fontlab.hintData'
p2
(dp3
S'vhints'
p4
(lp5
(dp6
S'position'
p7
L263L
sS'width'
p8
L122L
sa(dp9
g7
L423L
sg8
L122L
sa(dp10
g7
L646L
sg8
L122L
sa(dp11
g7
L802L
sg8
L139L
sa(dp12
g7
L818L
sg8
L122L
sa(dp13
g7
L994L
sg8
L179L
sa(dp14
g7
L994L
sg8
L122L
sasS'hhints'
p15
(lp16
(dp17
g7
L-256L
sg8
L94L
sa(dp18
g7
L-119L
sg8
L93L
sa(dp19
g7
L3L
sg8
L122L
sa(dp20
g7
L473L
sg8
L122L
sa(dp21
g7
L473L
sg8
L111L
sa(dp22
g7
L489L
sg8
L123L
sa(dp23
g7
L489L
sg8
L32L
sass."
EndChar

StartChar: tml_Na
Encoding: 88 2984 88
GlifName: tml_N_a
Width: 681
VWidth: 0
GlyphClass: 2
Flags: HW
HStem: -157 122
VStem: 39 128 520 123
AnchorPoint: "tml_virama" 331 0 basechar 0
LayerCount: 2
Fore
SplineSet
77 -257 m 257
 77 -121 126 -117 175 -117 c 258
 429 -117 l 258
 507 -117 563 -83 563 25 c 258
 564 206 l 258
 564.674 327.996 507 335 450 335 c 256
 450 375 l 257
 526 375 604 353 604 206 c 258
 604 25 l 258
 604 -41 583 -157 430 -157 c 258
 158 -157 l 258
 130 -157 117 -182 117 -257 c 257
 77 -257 l 257
355 0 m 257
 356 588 l 257
 395 588 l 257
 396 0 l 257
 355 0 l 257
112 0 m 257
 112 590 l 257
 152 590 l 257
 152 0 l 257
 112 0 l 257
112 595 m 257
 539 595 l 257
 539 555 l 257
 113 555 l 257
 112 595 l 257
EndSplineSet
Validated: 524325
PickledDataWithLists: "(dp1
S'com.fontlab.hintData'
p2
(dp3
S'vhints'
p4
(lp5
(dp6
S'position'
p7
L39L
sS'width'
p8
L128L
sa(dp9
g7
L520L
sg8
L123L
sasS'hhints'
p10
(lp11
(dp12
g7
L-157L
sg8
L122L
sass."
EndChar

StartChar: tml_NgI
Encoding: 89 -1 89
GlifName: tml_N_gI_
Width: 1015
VWidth: 0
GlyphClass: 2
Flags: HW
LayerCount: 2
Fore
SplineSet
822 727 m 257
 822 767 l 257
 952 767 975 680 975 585 c 258
 975 68 l 257
 934 68 l 257
 934 582 l 258
 934 643 932 727 822 727 c 257
768 767 m 257
 768 767 l 257
 607.654 766.519 606.95 547.966 735 548 c 257
 735 583 l 256
 660 583 660 728.1 768 728 c 256
 768 728 l 256
 768 767 l 257
EndSplineSet
Refer: 93 2969 N 1 0 0 1 -41 0 2
Validated: 524325
EndChar

StartChar: tml_NgIi
Encoding: 90 -1 90
GlifName: tml_N_gI_i
Width: 1019
VWidth: 0
GlyphClass: 2
Flags: HW
LayerCount: 2
Fore
SplineSet
827 896 m 257
 643 896 620 657 774 595 c 257
 740 566 l 257
 547 674 628 936 826 936 c 257
 1027 936 1019 689 872 689 c 256
 827 689 793 716 781 739 c 257
 809 772 l 256
 809 756 835 729.289 871 729.289 c 256
 901 729.289 939 749 939 808 c 256
 939 858 884 896 827 896 c 257
EndSplineSet
Refer: 93 2969 N 1 0 0 1 -41 0 2
Validated: 524325
EndChar

StartChar: tml_NgU
Encoding: 91 -1 91
GlifName: tml_N_gU_
Width: 782
VWidth: 0
GlyphClass: 2
Flags: HW
LayerCount: 2
Fore
SplineSet
683 -257 m 257
 683 595 l 257
 723 595 l 257
 723 -257 l 257
 683 -257 l 257
255 0 m 257
 255 40 l 257
 685 40 l 257
 685 0 l 257
 255 0 l 257
212 0 m 257
 212 40 l 257
 394 40 l 258
 452 40 508 51 508 125 c 258
 508 230 l 258
 508 303 429 313 394 314 c 256
 394 354 l 257
 464 354 548 321 548 230 c 258
 548 112 l 258
 548 44 487 0 393 0 c 258
 212 0 l 257
300 176 m 257
 300 589 l 257
 340 589 l 257
 340 176 l 257
 300 176 l 257
56 0 m 257
 56 591 l 257
 97 591 l 257
 97 0 l 257
 56 0 l 257
56 595 m 257
 449 595 l 257
 449 555 l 257
 57 555 l 257
 56 595 l 257
EndSplineSet
Validated: 5
EndChar

StartChar: tml_NgUu
Encoding: 92 -1 92
GlifName: tml_N_gU_u
Width: 935
VWidth: 0
GlyphClass: 2
Flags: W
HStem: -258 93 -106 93 0 122
VStem: -17 88 143 88 493 123 669 122 788 3 854 89
LayerCount: 2
Fore
SplineSet
129 -233 m 258
 103.414 -233 40 -204.591 40 -149 c 258
 40 -137 l 258
 40 -84.7227 77.6826 -40 137 -40 c 257
 200.935 -40 241 -85.208 241 -135 c 258
 241 -143 l 256
 200 -143 l 256
 200 -89.5791 160.111 -80 137 -80 c 257
 113.419 -80 80 -91.6865 80 -139 c 256
 80 -184.949 133.854 -193 149 -193 c 258
 396 -193 l 257
 396 -233 l 257
 129 -233 l 258
450 -193 m 256
 855 -193 l 256
 855 -84 l 256
 740 -84 l 256
 740 -44 l 257
 842 -44 l 258
 885 -44 895 -69 895 -92 c 258
 895 -178 l 258
 895 -221 878 -233 842 -233 c 258
 450 -233 l 257
 450 -193 l 256
712 -153 m 257
 712 595 l 257
 752 595 l 257
 752 -153 l 257
 712 -153 l 257
284 0 m 257
 284 40 l 257
 714 40 l 257
 714 0 l 257
 284 0 l 257
241 0 m 257
 241 40 l 257
 423 40 l 258
 481 40 537 51 537 125 c 258
 537 230 l 258
 537 303 458 313 423 314 c 256
 423 354 l 257
 493 354 577 321 577 230 c 258
 577 112 l 258
 577 44 516 0 422 0 c 258
 241 0 l 257
329 176 m 257
 329 589 l 257
 369 589 l 257
 369 176 l 257
 329 176 l 257
85 0 m 257
 85 591 l 257
 126 591 l 257
 126 0 l 257
 85 0 l 257
85 595 m 257
 478 595 l 257
 478 555 l 257
 86 555 l 257
 85 595 l 257
EndSplineSet
Validated: 5
PickledDataWithLists: "(dp1
S'com.fontlab.hintData'
p2
(dp3
S'vhints'
p4
(lp5
(dp6
S'position'
p7
L-17L
sS'width'
p8
L88L
sa(dp9
g7
L143L
sg8
L88L
sa(dp10
g7
L493L
sg8
L123L
sa(dp11
g7
L669L
sg8
L122L
sa(dp12
g7
L788L
sg8
L3L
sa(dp13
g7
L854L
sg8
L89L
sasS'hhints'
p14
(lp15
(dp16
g7
L-258L
sg8
L93L
sa(dp17
g7
L-106L
sg8
L93L
sa(dp18
g7
L0L
sg8
L122L
sass."
EndChar

StartChar: tml_Nga
Encoding: 93 2969 93
GlifName: tml_N_ga
Width: 841
VWidth: 0
GlyphClass: 2
Flags: HW
HStem: 0 122
VStem: 479 123 710 122
AnchorPoint: "tml_virama" 301 0 basechar 0
LayerCount: 2
Fore
SplineSet
751 0 m 257
 751 595 l 257
 791 595 l 257
 791 0 l 257
 751 0 l 257
309 0 m 257
 309 40 l 257
 698 40 l 257
 698 0 l 257
 309 0 l 257
251 0 m 257
 251 40 l 257
 277.526367188 40 365.143554688 40 419 40 c 256
 483 40 521 70 521 123 c 258
 521 224 l 258
 521 304 442 314 392 314 c 256
 392 354 l 257
 478 354 561 322 561 229 c 258
 561 118 l 258
 561 33 483 0 419 0 c 258
 251 0 l 257
298 80 m 257
 338 80 l 257
 338 589 l 257
 298 589 l 257
 298 80 l 257
57 0 m 257
 97 0 l 257
 97 591 l 257
 57 591 l 257
 57 0 l 257
57 595 m 257
 58 555 l 257
 447 555 l 257
 447 595 l 257
 57 595 l 257
EndSplineSet
Validated: 524293
PickledDataWithLists: "(dp1
S'com.fontlab.hintData'
p2
(dp3
S'vhints'
p4
(lp5
(dp6
S'position'
p7
L503L
sS'width'
p8
L123L
sa(dp9
g7
L734L
sg8
L122L
sasS'hhints'
p10
(lp11
(dp12
g7
L0L
sg8
L122L
sass."
EndChar

StartChar: tml_Nine
Encoding: 94 3055 94
GlifName: tml_N_ine
Width: 945
VWidth: 0
GlyphClass: 2
Flags: W
LayerCount: 2
Fore
SplineSet
512 331 m 257
 512 371 l 257
 688 371 l 258
 799 371 895 336 895 215 c 258
 895 200 l 258
 895 100 806 50 751 50 c 258
 737 50 l 258
 647 50 583 120 583 205 c 257
 623 205 l 256
 623 107 712 90 743.133 90 c 256
 766.133 90 855 108 855 204 c 256
 855 339 741 331 685 331 c 258
 512 331 l 257
40 172 m 258
 40 196 l 258
 40 259 72 371 246 371 c 258
 565 371 l 257
 565 331 l 257
 239 331 l 258
 184 331 79.9854 313 80 188 c 256
 80.0127 58 167.632 39 230 39 c 257
 230 -1 l 257
 56.5215 0 40 128 40 172 c 258
283 -1 m 257
 283 39 l 257
 377.637 39 422.632 98 423 187 c 258
 423 588 l 257
 463 588 l 257
 463 191 l 258
 463 95 420.261 -1 283 -1 c 257
165 348 m 257
 165 586 l 257
 206 586 l 257
 205 348 l 257
 165 348 l 257
165 555 m 257
 165 595 l 257
 288 595 l 257
 288 555 l 257
 165 555 l 257
342 555 m 257
 342 595 l 257
 610 595 l 257
 610 555 l 257
 342 555 l 257
EndSplineSet
Validated: 524325
EndChar

StartChar: tml_NnAa.alt
Encoding: 95 -1 95
GlifName: tml_N_nA_a.alt
Width: 1083
VWidth: 0
GlyphClass: 2
Flags: W
LayerCount: 2
Fore
SplineSet
40 40 m 258
 40 519 l 258
 40 682 154 732 239 732 c 257
 326 732 l 257
 292 692 l 257
 240 692 l 257
 100 692 80 566 80 519 c 258
 80 40 l 258
 80 -83 163 -126 250 -126 c 258
 592 -126 l 257
 592 -166 l 257
 234 -166 l 258
 134 -166 40 -94 40 40 c 258
661 -126.039 m 257
 899 -126.039 l 258
 968 -126.039 1002 -84.0391 1002 -30.0391 c 258
 1002 131.961 l 258
 1002 207.961 915 199.961 893 199.961 c 257
 893 243.961 l 257
 955 237.961 1043 233.961 1043 135.961 c 258
 1043 -31.0391 l 258
 1043 -105.039 996 -166.039 900 -166.039 c 258
 661 -166.039 l 257
 661 -126.039 l 257
214.173 155 m 257
 214.173 301 l 258
 214.173 580.727 394.675 605.957 470.173 606 c 257
 470.173 566 l 257
 288.902 565 253.394 413.993 254.173 301 c 258
 255.173 156 l 258
 254.544 61 291.001 27 321.173 27 c 257
 321.173 -13 l 256
 250.084 -13 214.173 70 214.173 155 c 257
351.173 409 m 257
 348.173 422 371.173 438 390.173 438 c 257
 459.173 438 481.173 379 481.173 301 c 258
 481.173 155 l 258
 481.173 59 443.796 -13 374.173 -13 c 257
 374.173 27 l 256
 408.305 27 441.173 61 441.173 155 c 258
 441.173 301 l 258
 441.173 357 438.173 409 351.173 409 c 257
524.173 566 m 257
 524.173 606 l 257
 583.887 606 821.173 605 821.173 312 c 258
 821.173 156 l 258
 821.173 64 788.897 -12 717.173 -12 c 257
 717.173 28 l 256
 758.62 28 781.173 74 781.173 156 c 258
 781.173 317 l 258
 781.173 451 721.104 565 524.173 566 c 257
558.173 156 m 257
 558.173 299 l 258
 558.173 595 797.768 606.957 841.173 606 c 257
 841.173 566 l 257
 708.627 566 598.173 488 598.173 301 c 258
 598.173 157 l 258
 598.173 76 625.768 28 663.173 28 c 257
 663.173 -12 l 256
 594.132 -12 558.173 71 558.173 156 c 257
893 204.961 m 257
 893 244.961 l 257
 964.189 244.961 1002 268.986 1002 315.961 c 258
 1002 466.961 l 258
 1002 520.961 997 565.961 895 565.961 c 257
 895 605.961 l 257
 1008 605.961 1043 558.961 1043 474.961 c 258
 1043 335.961 l 258
 1043 275.439 1029.25 204.961 893 204.961 c 257
EndSplineSet
Validated: 37
EndChar

StartChar: tml_NnAi
Encoding: 96 -1 96
GlifName: tml_N_nA_i
Width: 1216
VWidth: 0
GlyphClass: 2
Flags: W
LayerCount: 2
Fore
SplineSet
389.644 29 m 257
 193.019 -90 -31.3525 40.5098 106.059 250.141 c 258
 292.603 534.727 l 256
 406.603 689 321.644 804 190.603 804 c 257
 97.6025 804 84.6025 734 84.6025 719 c 256
 84.6025 674 110.603 640 156.603 640 c 256
 196.603 640 213.644 665.1 217.644 680.1 c 256
 247.729 647 l 257
 231.729 620 202.644 600 157.644 600 c 256
 -6.04688 600 0.602539 844 180.603 844 c 256
 383.209 844 431.059 681 347.603 546 c 257
 131.059 206 l 258
 36.0771 56.8672 248.729 -38 372.644 80 c 257
 389.644 29 l 257
342.644 154 m 257
 342.644 300 l 258
 342.644 579.727 523.146 604.957 598.644 605 c 257
 598.644 565 l 257
 417.373 564 381.864 412.993 382.644 300 c 258
 383.644 155 l 258
 383.015 60 419.472 26 449.644 26 c 257
 449.644 -14 l 256
 378.555 -14 342.644 69 342.644 154 c 257
479.644 408 m 257
 476.644 421 499.644 437 518.644 437 c 257
 587.644 437 609.644 378 609.644 300 c 258
 609.644 154 l 258
 609.644 58 572.267 -14 502.644 -14 c 257
 502.644 26 l 256
 536.775 26 569.644 60 569.644 154 c 258
 569.644 300 l 258
 569.644 356 566.644 408 479.644 408 c 257
652.644 565 m 257
 652.644 605 l 257
 712.357 605 949.644 604 949.644 311 c 258
 949.644 155 l 258
 949.644 63 917.368 -13 845.644 -13 c 257
 845.644 27 l 256
 887.091 27 909.644 73 909.644 155 c 258
 909.644 316 l 258
 909.644 450 849.575 564 652.644 565 c 257
686.644 155 m 257
 686.644 298 l 258
 686.644 594 926.238 605.957 969.644 605 c 257
 969.644 565 l 257
 837.098 565 726.644 487 726.644 300 c 258
 726.644 156 l 258
 726.644 75 754.238 27 791.644 27 c 257
 791.644 -13 l 256
 722.603 -13 686.644 70 686.644 155 c 257
1040.64 0 m 257
 1040.64 573 l 257
 1080.64 573 l 257
 1080.64 0 l 257
 1040.64 0 l 257
1022.64 566 m 257
 1022.64 605 l 257
 1176.64 605 l 257
 1176.64 565 l 257
 1022.64 566 l 257
EndSplineSet
Validated: 37
EndChar

StartChar: tml_NnI
Encoding: 97 -1 97
GlifName: tml_N_nI_
Width: 1438
VWidth: 0
GlyphClass: 2
Flags: W
LayerCount: 2
Fore
SplineSet
1029 566 m 257
 883.589 566 768 479 768 289 c 258
 768 158 l 258
 768 72 799.086 30 832 30 c 257
 832 -10 l 256
 763.862 -10 728 72 728 157 c 257
 728 287 l 258
 728 587 974.533 606.957 1029 606 c 257
 1220 606 l 257
 1220 566 l 257
 1029 566 l 257
40 156 m 257
 40 290 l 258
 40 569.727 218.387 605.957 293 606 c 257
 293 566 l 257
 114.247 565 79.3486 402.994 80 290 c 258
 81 157 l 258
 80.4043 62 114.385 28 143 28 c 257
 143 -12 l 256
 74.0967 -12 40 71 40 156 c 257
173 400 m 257
 170 413 193 429 212 429 c 257
 281 429 302 370 302 292 c 258
 302 156 l 258
 302 60 266.021 -12 199 -12 c 257
 199 28 l 256
 231.095 28 262 62 262 156 c 258
 262 292 l 258
 262 348 260 400 173 400 c 257
384 157 m 257
 384 288 l 258
 384 584 618.198 605.957 675 605 c 257
 675 565 l 257
 524.229 565 424 477 424 290 c 258
 424 158 l 258
 424 77 451.238 29 489 29 c 257
 489 -11 l 256
 419.482 -11 384 72 384 157 c 257
347 566 m 257
 347 606 l 257
 407.158 606 647 594 647 301 c 258
 647 157 l 258
 647 65 613.429 -11 542 -11 c 257
 542 29 l 256
 583.309 29 607 75 607 157 c 258
 607 306 l 258
 607 440 546.41 566 347 566 c 257
729 565 m 257
 729 605 l 257
 787.053 605 991 593 991 300 c 258
 991 157 l 258
 991 65 952.164 -10 886 -10 c 257
 886 30 l 256
 922.792 30 951 78 951 157 c 258
 951 305 l 258
 951 415 920.96 564 729 565 c 257
1083 599.1 m 257
 1083 599.1 l 257
 1083 703.1 1120 767.1 1214 767.1 c 256
 1214 767.1 l 257
 1214 727.1 l 256
 1214 727.1 l 256
 1134 727.1 1123 660.1 1123 599.1 c 256
 1083 599.1 l 257
1268 727.1 m 257
 1268 767.1 l 257
 1365 767.1 1398 703.1 1398 601.1 c 258
 1398 59.0996 l 257
 1358 59.0996 l 257
 1358 598.1 l 258
 1358 660.1 1354 727.1 1268 727.1 c 257
1083 1 m 257
 1083 575 l 257
 1123 575 l 257
 1123 1 l 257
 1083 1 l 257
EndSplineSet
Validated: 37
EndChar

StartChar: tml_NnIi
Encoding: 98 -1 98
GlifName: tml_N_nI_i
Width: 1417
VWidth: 0
GlyphClass: 2
Flags: W
LayerCount: 2
Fore
SplineSet
1083 577.656 m 257
 1083 602 l 256
 1009 761 1104.39 907 1240 907 c 256
 1414 907 1423.69 670 1261 670 c 256
 1223 670 1189 697 1179 718 c 257
 1205 749 l 256
 1205 733 1239 710 1264 710 c 256
 1287 710 1336 726 1336 785 c 256
 1336 800 1328 867 1230 867 c 257
 1147.68 866.57 1048 759 1123 600.727 c 256
 1123 577.656 l 257
 1083 577.656 l 257
1029 566 m 257
 883.589 566 768 479 768 289 c 258
 768 158 l 258
 768 72 799.086 30 832 30 c 257
 832 -10 l 256
 763.862 -10 728 72 728 157 c 257
 728 287 l 258
 728 587 974.533 606.957 1029 606 c 257
 1220 606 l 257
 1220 566 l 257
 1029 566 l 257
40 156 m 257
 40 290 l 258
 40 569.727 218.387 605.957 293 606 c 257
 293 566 l 257
 114.247 565 79.3486 402.994 80 290 c 258
 81 157 l 258
 80.4043 62 114.385 28 143 28 c 257
 143 -12 l 256
 74.0967 -12 40 71 40 156 c 257
173 400 m 257
 170 413 193 429 212 429 c 257
 281 429 302 370 302 292 c 258
 302 156 l 258
 302 60 266.021 -12 199 -12 c 257
 199 28 l 256
 231.095 28 262 62 262 156 c 258
 262 292 l 258
 262 348 260 400 173 400 c 257
384 157 m 257
 384 288 l 258
 384 584 618.198 605.957 675 605 c 257
 675 565 l 257
 524.229 565 424 477 424 290 c 258
 424 158 l 258
 424 77 451.238 29 489 29 c 257
 489 -11 l 256
 419.482 -11 384 72 384 157 c 257
347 566 m 257
 347 606 l 257
 407.158 606 647 594 647 301 c 258
 647 157 l 258
 647 65 613.429 -11 542 -11 c 257
 542 29 l 256
 583.309 29 607 75 607 157 c 258
 607 306 l 258
 607 440 546.41 566 347 566 c 257
729 565 m 257
 729 605 l 257
 787.053 605 991 593 991 300 c 258
 991 157 l 258
 991 65 952.164 -10 886 -10 c 257
 886 30 l 256
 922.792 30 951 78 951 157 c 258
 951 305 l 258
 951 415 920.96 564 729 565 c 257
1083 1 m 257
 1083 575 l 257
 1123 575 l 257
 1123 1 l 257
 1083 1 l 257
EndSplineSet
Validated: 37
EndChar

StartChar: tml_NnU
Encoding: 99 -1 99
GlifName: tml_N_nU_
Width: 792
VWidth: 0
GlyphClass: 2
Flags: W
HStem: -258 94 -121 93
VStem: 512 122 688 122
LayerCount: 2
Fore
SplineSet
79 -136 m 258
 79 -92 123.003 -57 183 -57 c 258
 688 -57 l 257
 688 582 l 256
 728 582 l 256
 728 -97 l 257
 183 -97 l 258
 95.0039 -97 95 -194 196 -194 c 258
 302 -194 l 257
 302 -234 l 257
 189 -234 l 258
 126 -234 79 -192 79 -154 c 258
 79 -136 l 258
355 -234 m 257
 355 -194 l 257
 420 -194 l 258
 500 -194 554 -161 554 -56 c 258
 554 151 l 257
 594 151 l 257
 594 -56 l 258
 594 -122 574 -234 421 -234 c 258
 355 -234 l 257
100 1 m 257
 100 590 l 257
 140 590 l 257
 140 1 l 257
 100 1 l 257
345 1 m 257
 346 588 l 257
 385 588 l 257
 386 1 l 257
 345 1 l 257
100 595 m 257
 529 595 l 257
 529 555 l 257
 101 555 l 257
 100 595 l 257
441 334 m 257
 441 374 l 257
 509 374 594 352 594 205 c 257
 554 205 l 257
 554 276.252 535.02 334 441 334 c 257
EndSplineSet
Validated: 524325
PickledDataWithLists: "(dp1
S'com.fontlab.hintData'
p2
(dp3
S'vhints'
p4
(lp5
(dp6
S'position'
p7
L512L
sS'width'
p8
L122L
sa(dp9
g7
L688L
sg8
L122L
sasS'hhints'
p10
(lp11
(dp12
g7
L-258L
sg8
L94L
sa(dp13
g7
L-121L
sg8
L93L
sass."
EndChar

StartChar: tml_NnUu
Encoding: 100 -1 100
GlifName: tml_N_nU_u
Width: 1097
VWidth: 0
GlyphClass: 2
Flags: HW
LayerCount: 2
Fore
SplineSet
40 -136 m 258
 40 -92 84.0029 -57 144 -57 c 258
 649 -57 l 257
 649 582 l 256
 689 582 l 256
 689 -97 l 257
 144 -97 l 258
 56.0039 -97 56 -194 157 -194 c 258
 263 -194 l 257
 263 -234 l 257
 150 -234 l 258
 87 -234 40 -192 40 -154 c 258
 40 -136 l 258
316 -234 m 257
 316 -194 l 257
 381 -194 l 258
 461 -194 515 -161 515 -56 c 258
 515 151 l 257
 555 151 l 257
 555 -56 l 258
 555 -122 535 -234 382 -234 c 258
 316 -234 l 257
402 334 m 256
 402 374 l 257
 470 374 555 352 555 205 c 257
 515 205 l 256
 515 207 l 258
 515 277 495 334 402 334 c 256
61 1 m 257
 61 590 l 257
 101 590 l 257
 101 1 l 257
 61 1 l 257
306 1 m 257
 307 588 l 257
 346 588 l 257
 347 1 l 257
 306 1 l 257
61 595 m 257
 490 595 l 257
 490 555 l 257
 62 555 l 257
 61 595 l 257
649 555 m 257
 649 595 l 257
 745 595 l 257
 745 555 l 257
 649 555 l 257
933 -90 m 261
 933 593 l 257
 973 593 l 257
 973 -90 l 261
 933 -90 l 261
799 555 m 257
 799 595 l 257
 1057 595 l 257
 1057 555 l 257
 799 555 l 257
EndSplineSet
Validated: 37
EndChar

StartChar: tml_Nna
Encoding: 101 2979 101
GlifName: tml_N_na
Width: 1260
VWidth: 0
GlyphClass: 2
Flags: HW
AnchorPoint: "tml_virama" 781 0 basechar 0
LayerCount: 2
Fore
SplineSet
40 156 m 257
 40 290 l 258
 40 569.727 218.387 605.957 293 606 c 257
 293 566 l 257
 114.247 565 79.3486 402.994 80 290 c 258
 81 157 l 258
 80.4043 62 114.385 28 143 28 c 257
 143 -12 l 256
 74.0967 -12 40 71 40 156 c 257
173 400 m 257
 170 413 193 429 212 429 c 257
 281 429 302 370 302 292 c 258
 302 156 l 258
 302 60 266.021 -12 199 -12 c 257
 199 28 l 256
 231.095 28 262 62 262 156 c 258
 262 292 l 258
 262 348 260 400 173 400 c 257
384 157 m 257
 384 288 l 258
 384 584 618.198 605.957 675 605 c 257
 675 565 l 257
 524.229 565 424 477 424 290 c 258
 424 158 l 258
 424 77 451.238 29 489 29 c 257
 489 -11 l 256
 419.482 -11 384 72 384 157 c 257
347 566 m 257
 347 606 l 257
 407.158 606 647 594 647 301 c 258
 647 157 l 258
 647 65 613.429 -11 542 -11 c 257
 542 29 l 256
 583.309 29 607 75 607 157 c 258
 607 306 l 258
 607 440 546.41 566 347 566 c 257
729 565 m 257
 729 605 l 257
 787.053 605 991 593 991 300 c 258
 991 157 l 258
 991 65 952.164 -10 886 -10 c 257
 886 30 l 256
 922.792 30 951 78 951 157 c 258
 951 305 l 258
 951 415 920.96 564 729 565 c 257
728 157 m 257
 728 287 l 258
 728 587 965.533 606.957 1019 606 c 257
 1019 566 l 257
 874.589 566 768 479 768 289 c 258
 768 158 l 258
 768 72 799.086 30 832 30 c 257
 832 -10 l 256
 763.862 -10 728 72 728 157 c 257
1083 1 m 257
 1083 575 l 257
 1123 575 l 257
 1123 1 l 257
 1083 1 l 257
1074 566 m 257
 1074 606 l 257
 1220 606 l 257
 1220 566 l 257
 1074 566 l 257
EndSplineSet
Validated: 524325
EndChar

StartChar: tml_NnnAa.alt
Encoding: 102 -1 102
GlifName: tml_N_nnA_a.alt
Width: 1403
VWidth: 0
GlyphClass: 2
Flags: W
LayerCount: 2
Fore
SplineSet
40 41 m 258
 40 519 l 258
 40 682 154 732 239 732 c 257
 326 732 l 257
 292 692 l 257
 240 692 l 257
 100 692 80 566 80 519 c 258
 80 41 l 258
 80 -82 163 -125 250 -125 c 258
 718 -125 l 257
 718 -165 l 257
 234 -165 l 258
 134 -165 40 -93 40 41 c 258
773 -125.273 m 257
 1219 -125.273 l 258
 1288 -125.273 1322 -83.2734 1322 -29.2734 c 258
 1322 118.727 l 258
 1322 194.727 1235 186.727 1213 186.727 c 257
 1213 230.727 l 257
 1275 224.727 1363 220.727 1363 122.727 c 258
 1363 -30.2734 l 258
 1363 -104.273 1316 -165.273 1220 -165.273 c 258
 773 -165.273 l 257
 773 -125.273 l 257
181 166.727 m 257
 181 280.727 l 258
 181 560.453 359.387 596.684 434 596.727 c 257
 434 556.727 l 257
 255.247 555.727 220.349 393.721 221 280.727 c 258
 222 167.727 l 258
 221.404 72.7266 255.385 38.7266 284 38.7266 c 257
 284 -1.27344 l 256
 215.097 -1.27344 181 81.7266 181 166.727 c 257
314 390.727 m 257
 311 403.727 334 419.727 353 419.727 c 257
 422 419.727 443 360.727 443 282.727 c 258
 443 166.727 l 258
 443 70.7266 407.021 -1.27344 340 -1.27344 c 257
 340 38.7266 l 256
 372.095 38.7266 403 72.7266 403 166.727 c 258
 403 282.727 l 258
 403 338.727 401 390.727 314 390.727 c 257
525 167.727 m 257
 525 278.727 l 258
 525 574.727 759.198 596.684 816 595.727 c 257
 816 555.727 l 257
 665.229 555.727 565 467.727 565 280.727 c 258
 565 168.727 l 258
 565 87.7266 592.238 39.7266 630 39.7266 c 257
 630 -0.273438 l 256
 560.482 -0.273438 525 82.7266 525 167.727 c 257
488 556.727 m 257
 488 596.727 l 257
 548.158 596.727 788 584.727 788 291.727 c 258
 788 167.727 l 258
 788 75.7266 754.429 -0.273438 683 -0.273438 c 257
 683 39.7266 l 256
 724.309 39.7266 748 85.7266 748 167.727 c 258
 748 296.727 l 258
 748 430.727 687.41 556.727 488 556.727 c 257
869 167.727 m 257
 869 277.727 l 258
 869 577.727 1106.53 597.684 1160 596.727 c 257
 1160 556.727 l 257
 1015.59 556.727 909 469.727 909 279.727 c 258
 909 168.727 l 258
 909 82.7266 940.086 40.7266 973 40.7266 c 257
 973 0.726562 l 256
 904.862 0.726562 869 82.7266 869 167.727 c 257
870 555.727 m 257
 870 595.727 l 257
 928.053 595.727 1132 583.727 1132 290.727 c 258
 1132 167.727 l 258
 1132 75.7266 1093.16 0.726562 1027 0.726562 c 257
 1027 40.7266 l 256
 1063.79 40.7266 1092 88.7266 1092 167.727 c 258
 1092 295.727 l 258
 1092 405.727 1061.96 554.727 870 555.727 c 257
1213 191.727 m 257
 1213 231.727 l 257
 1284.19 231.727 1322 255.752 1322 302.727 c 258
 1322 453.727 l 258
 1322 507.727 1317 552.727 1215 552.727 c 257
 1215 592.727 l 257
 1328 592.727 1363 545.727 1363 461.727 c 258
 1363 322.727 l 258
 1363 262.205 1349.25 191.727 1213 191.727 c 257
EndSplineSet
Validated: 37
EndChar

StartChar: tml_NnnAi
Encoding: 103 -1 103
GlifName: tml_N_nnA_i
Width: 1565
VWidth: 0
GlyphClass: 2
Flags: W
LayerCount: 2
Fore
SplineSet
389.644 29 m 257
 193.019 -90 -31.3525 40.5098 106.059 250.141 c 258
 292.603 534.727 l 256
 406.603 689 321.644 804 190.603 804 c 257
 97.6025 804 84.6025 734 84.6025 719 c 256
 84.6025 674 110.603 640 156.603 640 c 256
 196.603 640 213.644 665.1 217.644 680.1 c 256
 247.729 647 l 257
 231.729 620 202.644 600 157.644 600 c 256
 -6.04688 600 0.602539 844 180.603 844 c 256
 383.209 844 431.059 681 347.603 546 c 257
 131.059 206 l 258
 36.0771 56.8672 248.729 -38 372.644 80 c 257
 389.644 29 l 257
345.644 157.957 m 257
 345.644 291.957 l 258
 345.644 571.684 524.03 607.914 598.644 607.957 c 257
 598.644 567.957 l 257
 419.891 566.957 384.992 404.951 385.644 291.957 c 258
 386.644 158.957 l 258
 386.048 63.957 420.028 29.957 448.644 29.957 c 257
 448.644 -10.043 l 256
 379.74 -10.043 345.644 72.957 345.644 157.957 c 257
478.644 401.957 m 257
 475.644 414.957 498.644 430.957 517.644 430.957 c 257
 586.644 430.957 607.644 371.957 607.644 293.957 c 258
 607.644 157.957 l 258
 607.644 61.957 571.664 -10.043 504.644 -10.043 c 257
 504.644 29.957 l 256
 536.738 29.957 567.644 63.957 567.644 157.957 c 258
 567.644 293.957 l 258
 567.644 349.957 565.644 401.957 478.644 401.957 c 257
652.644 567.957 m 257
 652.644 607.957 l 257
 712.802 607.957 952.644 595.957 952.644 302.957 c 258
 952.644 158.957 l 258
 952.644 66.957 919.072 -9.04297 847.644 -9.04297 c 257
 847.644 30.957 l 256
 888.952 30.957 912.644 76.957 912.644 158.957 c 258
 912.644 307.957 l 258
 912.644 441.957 852.054 567.957 652.644 567.957 c 257
689.644 158.957 m 257
 689.644 289.957 l 258
 689.644 585.957 923.842 607.914 980.644 606.957 c 257
 980.644 566.957 l 257
 829.872 566.957 729.644 478.957 729.644 291.957 c 258
 729.644 159.957 l 258
 729.644 78.957 756.882 30.957 794.644 30.957 c 257
 794.644 -9.04297 l 256
 725.126 -9.04297 689.644 73.957 689.644 158.957 c 257
1033.64 158.957 m 257
 1033.64 288.957 l 258
 1033.64 588.957 1271.18 608.914 1324.64 607.957 c 257
 1324.64 567.957 l 257
 1180.23 567.957 1073.64 480.957 1073.64 290.957 c 258
 1073.64 159.957 l 258
 1073.64 73.957 1104.73 31.957 1137.64 31.957 c 257
 1137.64 -8.04297 l 256
 1069.51 -8.04297 1033.64 73.957 1033.64 158.957 c 257
1034.64 566.957 m 257
 1034.64 606.957 l 257
 1092.7 606.957 1296.64 594.957 1296.64 301.957 c 258
 1296.64 158.957 l 258
 1296.64 66.957 1257.81 -8.04297 1191.64 -8.04297 c 257
 1191.64 31.957 l 256
 1228.44 31.957 1256.64 79.957 1256.64 158.957 c 258
 1256.64 306.957 l 258
 1256.64 416.957 1226.6 565.957 1034.64 566.957 c 257
1388.64 2.95703 m 257
 1388.64 576.957 l 257
 1428.64 576.957 l 257
 1428.64 2.95703 l 257
 1388.64 2.95703 l 257
1379.64 567.957 m 257
 1379.64 607.957 l 257
 1525.64 607.957 l 257
 1525.64 567.957 l 257
 1379.64 567.957 l 257
EndSplineSet
Validated: 37
EndChar

StartChar: tml_NnnI
Encoding: 104 -1 104
GlifName: tml_N_nnI_
Width: 1094
VWidth: 0
GlyphClass: 2
Flags: HW
LayerCount: 2
Fore
SplineSet
924 723.1 m 257
 924 763.1 l 257
 1021 763.1 1054 699.1 1054 597.1 c 258
 1054 57.0996 l 257
 1014 57.0996 l 257
 1014 594.1 l 258
 1014 656.1 1010 723.1 924 723.1 c 257
739 595.1 m 257
 739 595.1 l 257
 739 699.1 776 763.1 870 763.1 c 256
 870 763.1 l 257
 870 723.1 l 256
 870 723.1 l 256
 790 723.1 779 656.1 779 595.1 c 256
 739 595.1 l 257
EndSplineSet
Refer: 108 2985 N 1 0 0 1 0 0 2
Validated: 524293
EndChar

StartChar: tml_NnnIi
Encoding: 105 -1 105
GlifName: tml_N_nnI_i
Width: 1072
VWidth: 0
GlyphClass: 2
Flags: HW
LayerCount: 2
Fore
SplineSet
738 469.656 m 257
 738 593 l 256
 664 752 759.394 898 895 898 c 256
 1069 898 1078.69 661 916 661 c 256
 878 661 844 688 834 709 c 257
 860 740 l 256
 860 724 894 701 919 701 c 256
 942 701 991 717 991 776 c 256
 991 791 983 858 885 858 c 257
 802.677 857.57 703 750 778 591.727 c 256
 778 469.656 l 257
 738 469.656 l 257
EndSplineSet
Refer: 108 2985 N 1 0 0 1 0 0 2
Validated: 524325
EndChar

StartChar: tml_NnnU
Encoding: 106 -1 106
GlifName: tml_N_nnU_
Width: 1230
VWidth: 0
GlyphClass: 2
Flags: HW
HStem: -256 94 -119 93 0 122 470 52 472 122
VStem: -97 122 126 122 286 122 509 122 671 122 893 122 1056 133 1067 122 1243 122
LayerCount: 2
Fore
SplineSet
79 -134 m 258
 79 -90 123 -55 183 -55 c 258
 1130 -55 l 257
 1130 584 l 256
 1170 584 l 256
 1170 -95 l 257
 183 -95 l 258
 97 -95 91 -192 192 -192 c 258
 515 -192 l 257
 515 -232 l 257
 189 -232 l 258
 126 -232 79 -190 79 -152 c 258
 79 -134 l 258
569 -232 m 257
 569 -192 l 257
 891 -192 l 258
 967 -192 1025 -159 1025 -54 c 258
 1025 392 l 258
 1025 423.265625 1018.54980469 505.069335938 949 541 c 257
 949 581 l 257
 1037.0703125 549.35546875 1065 469.12890625 1065 393 c 258
 1065 -54 l 258
 1065 -120 1045 -232 892 -232 c 258
 569 -232 l 257
64 167 m 257
 64 290 l 258
 64 569.7265625 243.091796875 594.95703125 318 595 c 257
 318 555 l 257
 138.408203125 554 103.07421875 402.9921875 104 290 c 258
 105 168 l 258
 104.393554688 73 138.922851562 39 168 39 c 257
 168 -1 l 256
 98.427734375 -1 64 82 64 167 c 257
198 406 m 257
 195 419 218 435 237 435 c 257
 306 435 327 370 327 292 c 258
 327 167 l 258
 327 71 290.322265625 -1 222 -1 c 257
 222 39 l 256
 255.11328125 39 287 73 287 167 c 258
 287 292 l 258
 287 348 285 406 198 406 c 257
367 168 m 257
 367 288 l 258
 367 584 569.005859375 595.95703125 618 595 c 257
 618 555 l 257
 491.255859375 555 407 477 407 290 c 258
 407 169 l 258
 407 88 433.819335938 40 471 40 c 257
 471 0 l 256
 402.14453125 0 367 83 367 168 c 257
372 555 m 257
 372 595 l 257
 423.736328125 595 630 594 630 301 c 258
 630 168 l 258
 630 76 596.109375 0 524 0 c 257
 524 40 l 256
 565.944335938 40 590 86 590 168 c 258
 590 306 l 258
 590 440 539.198242188 555 372 555 c 257
781 0 m 256
 710.821289062 0 675 73.119140625 675 148 c 257
 675 312 l 258
 675 559.131835938 855.151367188 595.19140625 896 593.133789062 c 257
 896 552.708007812 l 257
 838.192382812 563.818359375 715 493.956054688 715 314 c 258
 715 149 l 258
 715 80.5576171875 742.657226562 40 781 40 c 257
 781 0 l 256
672 555 m 257
 672 595 l 257
 729.831054688 595 933 593 933 300 c 258
 933 168 l 258
 933 76 893.790039062 1 827 1 c 257
 827 41 l 256
 864.360351562 41 893 89 893 168 c 258
 893 305 l 258
 893 415 863.095703125 554 672 555 c 257
EndSplineSet
Validated: 8912933
PickledDataWithLists: "(dp1
S'com.fontlab.hintData'
p2
(dp3
S'vhints'
p4
(lp5
(dp6
S'position'
p7
L39L
sS'width'
p8
L122L
sa(dp9
g7
L262L
sg8
L122L
sa(dp10
g7
L422L
sg8
L122L
sa(dp11
g7
L645L
sg8
L122L
sa(dp12
g7
L807L
sg8
L122L
sa(dp13
g7
L1029L
sg8
L122L
sa(dp14
g7
L1192L
sg8
L133L
sa(dp15
g7
L1203L
sg8
L122L
sa(dp16
g7
L1379L
sg8
L122L
sasS'hhints'
p17
(lp18
(dp19
g7
L-256L
sg8
L94L
sa(dp20
g7
L-119L
sg8
L93L
sa(dp21
g7
L0L
sg8
L122L
sa(dp22
g7
L470L
sg8
L52L
sa(dp23
g7
L472L
sg8
L122L
sass."
EndChar

StartChar: tml_NnnUu
Encoding: 107 -1 107
GlifName: tml_N_nnU_u
Width: 1908
VWidth: 0
GlyphClass: 2
Flags: HW
HStem: -256 94 -119 93 0 122 470 52 473 122 473 111
VStem: 39 122 262 122 422 122 645 122 807 122 1029 122 1192 133 1203 122 1379 179 1379 122
LayerCount: 2
Fore
SplineSet
1550 0 m 257
 1550 593 l 257
 1590 593 l 257
 1590 0 l 257
 1550 0 l 257
1416 555 m 257
 1416 595 l 257
 1674 595 l 257
 1674 555 l 257
 1416 555 l 257
1266 555 m 257
 1266 595 l 257
 1363 595 l 257
 1363 555 l 257
 1266 555 l 257
EndSplineSet
Refer: 106 -1 N 1 0 0 1 0 0 2
Validated: 8912901
PickledDataWithLists: "(dp1
S'com.fontlab.hintData'
p2
(dp3
S'vhints'
p4
(lp5
(dp6
S'position'
p7
L39L
sS'width'
p8
L122L
sa(dp9
g7
L262L
sg8
L122L
sa(dp10
g7
L422L
sg8
L122L
sa(dp11
g7
L645L
sg8
L122L
sa(dp12
g7
L807L
sg8
L122L
sa(dp13
g7
L1029L
sg8
L122L
sa(dp14
g7
L1192L
sg8
L133L
sa(dp15
g7
L1203L
sg8
L122L
sa(dp16
g7
L1379L
sg8
L179L
sa(dp17
g7
L1379L
sg8
L122L
sasS'hhints'
p18
(lp19
(dp20
g7
L-256L
sg8
L94L
sa(dp21
g7
L-119L
sg8
L93L
sa(dp22
g7
L0L
sg8
L122L
sa(dp23
g7
L470L
sg8
L52L
sa(dp24
g7
L473L
sg8
L122L
sa(dp25
g7
L473L
sg8
L111L
sass."
EndChar

StartChar: tml_Nnna
Encoding: 108 2985 108
GlifName: tml_N_nna
Width: 914
VWidth: 0
GlyphClass: 2
Flags: HW
AnchorPoint: "tml_virama" 581 0 basechar 0
LayerCount: 2
Fore
SplineSet
384 155 m 257
 384 298 l 258
 384 594 623.595 605.957 667 605 c 257
 667 565 l 257
 534.454 565 424 487 424 300 c 258
 424 156 l 258
 424 75 451.595 27 489 27 c 257
 489 -13 l 256
 419.959 -13 384 70 384 155 c 257
350 565 m 257
 350 605 l 257
 409.714 605 647 604 647 311 c 258
 647 155 l 258
 647 63 614.725 -13 543 -13 c 257
 543 27 l 256
 584.447 27 607 73 607 155 c 258
 607 316 l 258
 607 450 546.932 564 350 565 c 257
40 154 m 257
 40 300 l 258
 40 579.727 220.502 604.957 296 605 c 257
 296 565 l 257
 114.729 564 79.2207 412.993 80 300 c 258
 81 155 l 258
 80.3711 60 116.828 26 147 26 c 257
 147 -14 l 256
 75.9111 -14 40 69 40 154 c 257
177 408 m 257
 174 421 197 437 216 437 c 257
 285 437 307 378 307 300 c 258
 307 154 l 258
 307 58 269.623 -14 200 -14 c 257
 200 26 l 256
 234.132 26 267 60 267 154 c 258
 267 300 l 258
 267 356 264 408 177 408 c 257
720 566 m 257
 720 605 l 257
 874 605 l 257
 874 565 l 257
 720 566 l 257
738 0 m 257
 738 573 l 257
 778 573 l 257
 778 0 l 257
 738 0 l 257
EndSplineSet
Validated: 524325
EndChar

StartChar: tml_Number
Encoding: 109 3066 109
GlifName: tml_N_umber
Width: 775
VWidth: 0
GlyphClass: 2
Flags: HW
LayerCount: 2
Fore
SplineSet
497 690.4296875 m 0
 509.94140625 697.600585938 520.4140625 710.896484375 523 729 c 256
 530.571289062 782 461 804.875976562 408 756 c 256
 397 745.856445312 375 708 375 585 c 257
 335 585 l 260
 335 750 379 824 463 824 c 260
 524 824 563 796 563 729 c 256
 563 662 497 648.293945312 497 648.293945312 c 1
 497 648.293945312 497 690 497 690.4296875 c 0
458 687.741210938 m 0
 459 687 458 645.810546875 458 645.810546875 c 1
 458 645.810546875 393 653 393 734 c 256
 393 823 456 891 524 891 c 256
 597 891 654 845 654 705 c 256
 752 705 l 256
 752 665 l 256
 613 665 l 257
 619 733 618 851 523 851 c 256
 452 851 433.509765625 763.995117188 433 738 c 256
 432.45703125 710.331054688 443.475585938 694.23046875 458 687.741210938 c 0
EndSplineSet
Refer: 88 2984 N 1 0 0 1 -37 0 2
Validated: 524325
EndChar

StartChar: tml_NyI
Encoding: 110 -1 110
GlifName: tml_N_yI_
Width: 1150
VWidth: 0
GlyphClass: 2
Flags: HW
LayerCount: 2
Fore
SplineSet
930.993164062 728 m 257
 930.993164062 768 l 257
 1065.99316406 768 1110.99316406 698 1110.99316406 595 c 258
 1110.99316406 69 l 257
 1070.99316406 69 l 257
 1070.99316406 592 l 258
 1070.99316406 641 1067.99316406 728 930.993164062 728 c 257
709.993164062 593 m 257
 709.993164062 593 l 257
 709.993164062 697 752.993164062 768 876.993164062 768 c 256
 876.993164062 768 l 257
 876.993164062 728 l 256
 876.993164062 728 l 256
 761.993164062 728 749.993164062 654 749.993164062 593 c 256
 709.993164062 593 l 257
EndSplineSet
Refer: 114 2974 N 1 0 0 1 -6.00048 0 2
Validated: 524293
EndChar

StartChar: tml_NyIi
Encoding: 111 -1 111
GlifName: tml_N_yI_i
Width: 1036
VWidth: 0
GlyphClass: 2
Flags: HW
LayerCount: 2
Fore
SplineSet
722.994140625 470.65625 m 257
 722.994140625 594 l 256
 648.994140625 753 744.387695312 899 879.994140625 899 c 256
 1053.99414062 899 1063.68457031 662 900.994140625 662 c 256
 862.994140625 662 828.994140625 689 818.994140625 710 c 257
 844.994140625 741 l 256
 844.994140625 725 878.994140625 702 903.994140625 702 c 256
 926.994140625 702 975.994140625 718 975.994140625 777 c 256
 975.994140625 792 967.994140625 859 869.994140625 859 c 257
 787.670898438 858.5703125 687.994140625 751 762.994140625 592.7265625 c 256
 762.994140625 470.65625 l 257
 722.994140625 470.65625 l 257
EndSplineSet
Refer: 114 2974 N 1 0 0 1 2.00025 0 2
Validated: 524325
EndChar

StartChar: tml_NyU
Encoding: 112 -1 112
GlifName: tml_N_yU_
Width: 912
VWidth: 0
GlyphClass: 2
Flags: W
HStem: -257 94 1 122 238 123 472 105 472 123
VStem: 39 124 39 131 39 171 317 123 484 123 695 122
LayerCount: 2
Fore
SplineSet
448 -192 m 257
 561 -192 l 258
 637 -192 695 -159 695 -54 c 258
 695 154 l 257
 695 252 658 283 581 283 c 256
 581 323 l 257
 651 323 735 299 735 157 c 257
 735 -54 l 258
 735 -120 715 -232 562 -232 c 258
 448 -232 l 257
 448 -192 l 257
78 -134 m 258
 78 -90 122 -55 182 -55 c 258
 832 -55 l 257
 832 583 l 256
 872 583 l 256
 872 -95 l 257
 182 -95 l 258
 96 -95 90 -192 191 -192 c 258
 395 -192 l 257
 395 -232 l 257
 188 -232 l 258
 125 -232 78 -190 78 -152 c 258
 78 -134 l 258
EndSplineSet
Refer: 20 2958 N 1 0 0 1 0 0 2
Refer: 20 2958 N 1 0 0 1 0 0 2
Validated: 37
PickledDataWithLists: "(dp1
S'com.fontlab.hintData'
p2
(dp3
S'vhints'
p4
(lp5
(dp6
S'position'
p7
L39L
sS'width'
p8
L124L
sa(dp9
g7
L39L
sg8
L131L
sa(dp10
g7
L39L
sg8
L171L
sa(dp11
g7
L317L
sg8
L123L
sa(dp12
g7
L484L
sg8
L123L
sa(dp13
g7
L695L
sg8
L122L
sasS'hhints'
p14
(lp15
(dp16
g7
L-257L
sg8
L94L
sa(dp17
g7
L1L
sg8
L122L
sa(dp18
g7
L238L
sg8
L123L
sa(dp19
g7
L472L
sg8
L105L
sa(dp20
g7
L472L
sg8
L123L
sass."
EndChar

StartChar: tml_NyUu
Encoding: 113 -1 113
GlifName: tml_N_yU_u
Width: 1276
VWidth: 0
GlyphClass: 2
Flags: W
HStem: -257 94 1 122 238 123 472 105 472 123
VStem: 31 124 31 131 31 171 309 123 476 123 687 122
LayerCount: 2
Fore
SplineSet
1112 0 m 257
 1112 593 l 257
 1152 593 l 257
 1152 0 l 257
 1112 0 l 257
1019 554 m 257
 1019 595 l 257
 1236 595 l 257
 1236 554 l 257
 1019 554 l 257
828 554 m 257
 828 595 l 257
 965 595 l 257
 965 554 l 257
 828 554 l 257
401 -192 m 257
 560 -192 l 258
 636 -192 694 -159 694 -54 c 258
 694 154 l 257
 694 252 657 283 580 283 c 256
 580 323 l 257
 650 323 734 299 734 157 c 257
 734 -54 l 258
 734 -120 714 -232 561 -232 c 258
 401 -232 l 257
 401 -192 l 257
58 -134 m 258
 58 -90 102 -55 162 -55 c 258
 828 -55 l 257
 828 583 l 256
 868 583 l 256
 868 -95 l 257
 162 -95 l 258
 76 -95 70 -192 171 -192 c 258
 348 -192 l 257
 348 -232 l 257
 168 -232 l 258
 105 -232 58 -190 58 -152 c 258
 58 -134 l 258
EndSplineSet
Refer: 20 2958 N 1 0 0 1 0 0 2
Validated: 37
PickledDataWithLists: "(dp1
S'com.fontlab.hintData'
p2
(dp3
S'vhints'
p4
(lp5
(dp6
S'position'
p7
L31L
sS'width'
p8
L124L
sa(dp9
g7
L31L
sg8
L131L
sa(dp10
g7
L31L
sg8
L171L
sa(dp11
g7
L309L
sg8
L123L
sa(dp12
g7
L476L
sg8
L123L
sa(dp13
g7
L687L
sg8
L122L
sasS'hhints'
p14
(lp15
(dp16
g7
L-257L
sg8
L94L
sa(dp17
g7
L1L
sg8
L122L
sa(dp18
g7
L238L
sg8
L123L
sa(dp19
g7
L472L
sg8
L105L
sa(dp20
g7
L472L
sg8
L123L
sass."
EndChar

StartChar: tml_Nya
Encoding: 114 2974 114
GlifName: tml_N_ya
Width: 1031
VWidth: 0
GlyphClass: 2
Flags: HW
HStem: -165 122 1 122 238 123 472 105 472 123
VStem: 273 124 273 131 273 171 551 123 718 123 940 123
AnchorPoint: "tml_virama" 631 0 basechar 0
LayerCount: 2
Fore
SplineSet
247.014648438 -163 m 258
 138.014648438 -163 53.0146484375 -109.334960938 53.0146484375 2 c 258
 53.0146484375 414 l 257
 51.94921875 501.485351562 109.80859375 596 252.014648438 596 c 257
 252.014648438 556 l 257
 138.8671875 556 93.0146484375 484.372070312 93.0146484375 421 c 258
 93.0146484375 -2 l 258
 93.0146484375 -63.994140625 141.014648438 -123 243.014648438 -123 c 258
 434.014648438 -123 l 257
 434.014648438 -163 l 257
 247.014648438 -163 l 258
474 -125 m 257
 791 -125 l 258
 870 -125 944 -89 944 26 c 258
 944 154 l 258
 944 259 896 283 815 283 c 256
 815 323 l 257
 900 323 984 296 984 154 c 258
 984 26 l 258
 984 -82 926 -165 791 -165 c 258
 474 -165 l 257
 474 -125 l 257
EndSplineSet
Refer: 20 2958 N 1 0 0 1 234 0 2
Validated: 8912933
PickledDataWithLists: "(dp1
S'com.fontlab.hintData'
p2
(dp3
S'vhints'
p4
(lp5
(dp6
S'position'
p7
L39L
sS'width'
p8
L124L
sa(dp9
g7
L39L
sg8
L131L
sa(dp10
g7
L39L
sg8
L171L
sa(dp11
g7
L317L
sg8
L123L
sa(dp12
g7
L484L
sg8
L123L
sa(dp13
g7
L706L
sg8
L123L
sasS'hhints'
p14
(lp15
(dp16
g7
L-165L
sg8
L122L
sa(dp17
g7
L1L
sg8
L122L
sa(dp18
g7
L238L
sg8
L123L
sa(dp19
g7
L472L
sg8
L105L
sa(dp20
g7
L472L
sg8
L123L
sass."
EndChar

StartChar: tml_O
Encoding: 115 2962 115
GlifName: tml_O_
Width: 819
VWidth: 0
GlyphClass: 2
Flags: W
LayerCount: 2
Fore
SplineSet
442 655 m 257
 442 695 l 257
 679.148 695 779 494 779 398 c 258
 779 165 l 258
 779 -17 446 -16 446 166 c 258
 446 350 l 256
 486 350 l 257
 486 162 l 257
 486 47 732.977 30 739 163.5 c 256
 739 397.5 l 258
 739 488 643.222 655 442 655 c 257
40.0088 202 m 258
 40.0088 226 l 258
 40.0088 330 116.009 389 192.009 389 c 257
 192.009 349 l 256
 154.625 349 79.0088 325 79.0088 211 c 256
 79.0088 121 141.881 70 192.009 70 c 257
 192.009 30 l 256
 103.637 30 40.0088 118 40.0088 202 c 258
247.009 30 m 257
 247.009 70 l 257
 291.458 70 341.009 118 341.009 212.617 c 256
 341.009 312 289.272 349 247.009 349 c 257
 247.009 389 l 256
 320.192 389 383.009 322 383.009 226 c 258
 383.009 203 l 258
 383.813 105 319.216 30 247.009 30 c 257
40 228 m 257
 40 310 l 257
 40 467 116.653 695 389 695 c 256
 389 695 l 257
 389 655 l 257
 178.104 655 90.0088 502 82 332 c 257
 55 283 51 256 40 228 c 257
446 25 m 258
 446 276 l 257
 486 175 l 256
 486 27 l 258
 486 -61 619 -94 715 -92 c 256
 715 -132 l 257
 552 -132 446 -66 446 25 c 258
185 -124 m 257
 226 -114 l 257
 281.18 -243 428.92 -252 493 -134 c 256
 530 -155 l 257
 450.596 -298 253.452 -296 185 -124 c 257
EndSplineSet
Validated: 37
EndChar

StartChar: tml_Om
Encoding: 116 3024 116
GlifName: tml_O_m
Width: 819
VWidth: 0
GlyphClass: 2
Flags: HW
LayerCount: 2
Fore
SplineSet
369.83984375 6.0400390625 m 0
 369.83984375 11.7998046875 374.959960938 16.2802734375 381.360351562 16.2802734375 c 0
 387.759765625 16.2802734375 392.879882812 11.7998046875 392.879882812 6.0400390625 c 0
 392.879882812 0.2802734375 387.759765625 -4.2001953125 381.360351562 -4.2001953125 c 0
 374.959960938 -4.2001953125 369.83984375 0.2802734375 369.83984375 6.0400390625 c 0
388.130859375 -157.368164062 m 256
 388.130859375 -148.791992188 l 257
 409.731445312 -148.791992188 410.172851562 -121.9921875 410.172851562 -115.345703125 c 258
 410.172851562 -64.318359375 l 258
 410.172851562 -62.603515625 411.715820312 -36.2314453125 388.130859375 -36.2314453125 c 257
 388.130859375 -27.65625 l 257
 403.469726562 -27.65625 420.668945312 -35.3740234375 420.668945312 -64.318359375 c 258
 420.668945312 -115.130859375 l 258
 420.668945312 -147.077148438 404.864257812 -157.368164062 388.130859375 -157.368164062 c 256
342.998046875 -149.005859375 m 256
 342.998046875 -64.318359375 l 258
 342.772460938 -35.802734375 359.270507812 -27.65625 373.9609375 -27.65625 c 257
 373.9609375 -36.2314453125 l 257
 352.016601562 -36.2314453125 353.494140625 -62.388671875 353.494140625 -64.318359375 c 258
 353.494140625 -149.005859375 l 257
 342.998046875 -149.005859375 l 256
288.943359375 -152.22265625 m 257
 288.943359375 -29.7998046875 l 257
 299.440429688 -29.7998046875 l 257
 299.440429688 -152.22265625 l 257
 288.943359375 -152.22265625 l 257
442 655 m 257
 442 695 l 257
 679.148 695 779 494 779 398 c 258
 779 165 l 258
 779 -17 446 -16 446 166 c 258
 446 350 l 256
 486 350 l 257
 486 162 l 257
 486 47 732.977 30 739 163.5 c 256
 739 397.5 l 258
 739 488 643.222 655 442 655 c 257
40.0088 202 m 258
 40.0088 226 l 258
 40.0088 330 116.009 389 192.009 389 c 257
 192.009 349 l 256
 154.625 349 79.0088 325 79.0088 211 c 256
 79.0088 121 141.881 70 192.009 70 c 257
 192.009 30 l 256
 103.637 30 40.0088 118 40.0088 202 c 258
247.009 30 m 257
 247.009 70 l 257
 291.458 70 341.009 118 341.009 212.617 c 256
 341.009 312 289.272 349 247.009 349 c 257
 247.009 389 l 256
 320.192 389 383.009 322 383.009 226 c 258
 383.009 203 l 258
 383.813 105 319.216 30 247.009 30 c 257
40 228 m 257
 40 310 l 257
 40 467 116.653 695 389 695 c 256
 389 695 l 257
 389 655 l 257
 178.104 655 90.0088 502 82 332 c 257
 55 283 51 256 40 228 c 257
446 25 m 258
 446 276 l 257
 486 175 l 256
 486 27 l 258
 486 -61 619 -94 715 -92 c 256
 715 -132 l 257
 552 -132 446 -66 446 25 c 258
185 -124 m 257
 226 -114 l 257
 281.18 -243 428.92 -252 493 -134 c 256
 530 -155 l 257
 450.596 -298 253.452 -296 185 -124 c 257
EndSplineSet
Validated: 37
EndChar

StartChar: tml_Oo
Encoding: 118 2963 118
GlifName: tml_O_o
Width: 819
VWidth: 0
GlyphClass: 2
Flags: W
HStem: -132 123 29 122 266 123 573 122
VStem: 2 171 2 124 179 123 280 123 446 123 696 123
LayerCount: 2
Fore
SplineSet
442 655 m 257
 442 695 l 257
 679.148 695 779 494 779 398 c 258
 779 165 l 258
 779 -17 446 -16 446 166 c 258
 446 350 l 256
 486 350 l 257
 486 162 l 257
 486 47 732.977 30 739 163.5 c 256
 739 397.5 l 258
 739 488 643.222 655 442 655 c 257
182 -141 m 256
 182 -64 221.294 19 349 19 c 257
 349 -21 l 257
 246.423 -21 222 -90 222 -143.066 c 256
 222 -276 404.665 -304.886 491 -183 c 256
 498.594 -172.398 502 -166 514 -143 c 257
 549 -163 l 257
 517 -231 448 -302 345 -301 c 256
 243.861 -300 182 -226 182 -141 c 256
40.0088 202 m 258
 40.0088 226 l 258
 40.0088 330 116.009 389 192.009 389 c 257
 192.009 349 l 256
 154.625 349 79.0088 325 79.0088 211 c 256
 79.0088 121 141.881 70 192.009 70 c 257
 192.009 30 l 256
 103.637 30 40.0088 118 40.0088 202 c 258
247.009 30 m 257
 247.009 70 l 257
 291.458 70 341.009 118 341.009 212.617 c 256
 341.009 312 289.272 349 247.009 349 c 257
 247.009 389 l 256
 320.192 389 383.009 322 383.009 226 c 258
 383.009 203 l 258
 383.813 105 319.216 30 247.009 30 c 257
40 228 m 257
 40 310 l 257
 40 467 116.653 695 389 695 c 257
 389 655 l 257
 178.104 655 90.0088 502 82 332 c 257
 55 283 51 256 40 228 c 257
446 25 m 258
 446 276 l 257
 486 175 l 256
 486 27 l 258
 486 -61 619 -94 715 -92 c 256
 715 -132 l 257
 552 -132 446 -66 446 25 c 258
EndSplineSet
Validated: 37
PickledDataWithLists: "(dp1
S'com.fontlab.hintData'
p2
(dp3
S'vhints'
p4
(lp5
(dp6
S'position'
p7
L2L
sS'width'
p8
L171L
sa(dp9
g7
L2L
sg8
L124L
sa(dp10
g7
L179L
sg8
L123L
sa(dp11
g7
L280L
sg8
L123L
sa(dp12
g7
L446L
sg8
L123L
sa(dp13
g7
L696L
sg8
L123L
sasS'hhints'
p14
(lp15
(dp16
g7
L-132L
sg8
L123L
sa(dp17
g7
L29L
sg8
L122L
sa(dp18
g7
L266L
sg8
L123L
sa(dp19
g7
L573L
sg8
L122L
sass."
EndChar

StartChar: tml_PI
Encoding: 119 -1 119
GlifName: tml_P_I_
Width: 679
VWidth: 0
GlyphClass: 2
Flags: HW
LayerCount: 2
Fore
SplineSet
486 739 m 257
 486 779 l 257
 616 779 639 692 639 597 c 258
 639 80 l 257
 598 80 l 257
 598 594 l 258
 598 655 596 739 486 739 c 257
399 560 m 257
 399 595 l 256
 324 595 324 740.1 432 740 c 256
 432 740 l 256
 432 779 l 257
 432 779 l 257
 271.654 778.519 270.95 559.966 399 560 c 257
EndSplineSet
Refer: 123 2986 N 1 0 0 1 -30 0 2
Validated: 524325
EndChar

StartChar: tml_PIi
Encoding: 120 -1 120
GlifName: tml_P_I_i
Width: 684
VWidth: 0
GlyphClass: 2
Flags: HW
LayerCount: 2
Fore
SplineSet
492 896 m 257
 308 896 285 657 439 595 c 257
 405 566 l 257
 212 674 293 936 491 936 c 257
 692 936 684 689 537 689 c 256
 492 689 458 716 446 739 c 257
 474 772 l 256
 474 756 500 729.289 536 729.289 c 256
 566 729.289 604 749 604 808 c 256
 604 858 549 896 492 896 c 257
EndSplineSet
Refer: 123 2986 N 1 0 0 1 -30 0 2
Validated: 524325
EndChar

StartChar: tml_PU
Encoding: 121 -1 121
GlifName: tml_P_U_
Width: 550
VWidth: 0
GlyphClass: 2
Flags: HW
LayerCount: 2
Fore
SplineSet
76 24 m 257
 76 597 l 257
 116 597 l 257
 116 24 l 257
 76 24 l 257
286 0 m 257
 286 40 l 257
 429 40 l 257
 429 596 l 257
 469 596 l 257
 469 -199 l 257
 429 -199 l 257
 429 0 l 257
 286 0 l 257
76 0 m 257
 76 40 l 257
 232 40 l 257
 232 0 l 257
 76 0 l 257
EndSplineSet
Validated: 5
EndChar

StartChar: tml_PUu
Encoding: 122 -1 122
GlifName: tml_P_U_u
Width: 686
VWidth: 0
GlyphClass: 2
Flags: HW
HStem: -258 93 -106 93 1 122 107 17
VStem: 13 88 82 122 82 202 174 88 537 4
LayerCount: 2
Fore
SplineSet
66 -140 m 258
 66 -78.2314453125 112.086914062 -39 167 -39 c 257
 225.475585938 -39 267 -77.958984375 267 -136 c 258
 267 -142 l 256
 226 -142 l 256
 226 -84.01171875 183.024414062 -79 167 -79 c 257
 151.396484375 -79 106 -88.05859375 106 -139 c 256
 106 -188.873046875 122 -205 163 -205 c 258
 326 -205 l 257
 326 -245 l 257
 159 -245 l 258
 108 -245 66 -222 66 -145 c 258
 66 -140 l 258
379 -205 m 256
 613 -205 l 256
 613 -2 l 256
 507 -2 l 256
 507 38 l 257
 590 38 l 258
 637 38 653 26 653 -7 c 258
 653 -180 l 258
 653 -225 631 -245 595 -245 c 258
 379 -245 l 257
 379 -205 l 256
471 7 m 257
 512 7 l 257
 512 -143 l 257
 471 -143 l 257
 471 7 l 257
EndSplineSet
Refer: 123 2986 N 1 0 0 1 43 0 2
Validated: 8912901
PickledDataWithLists: "(dp1
S'com.fontlab.hintData'
p2
(dp3
S'vhints'
p4
(lp5
(dp6
S'position'
p7
L13L
sS'width'
p8
L88L
sa(dp9
g7
L82L
sg8
L122L
sa(dp10
g7
L82L
sg8
L202L
sa(dp11
g7
L174L
sg8
L88L
sa(dp12
g7
L537L
sg8
L4L
sasS'hhints'
p13
(lp14
(dp15
g7
L-258L
sg8
L93L
sa(dp16
g7
L-106L
sg8
L93L
sa(dp17
g7
L1L
sg8
L122L
sa(dp18
g7
L107L
sg8
L17L
sass."
EndChar

StartChar: tml_Pa
Encoding: 123 2986 123
GlifName: tml_P_a
Width: 539
VWidth: 0
GlyphClass: 2
Flags: HW
HStem: 1 122 107 17
VStem: 40 202 40 122
AnchorPoint: "tml_virama" 271 0 basechar 0
LayerCount: 2
Fore
SplineSet
70 24 m 257
 70 595 l 257
 110 595 l 257
 110 24 l 257
 70 24 l 257
428 21 m 257
 428 595 l 257
 469 595 l 257
 469 21 l 257
 428 21 l 257
298 0 m 257
 298 40 l 257
 469 40 l 257
 469 0 l 257
 298 0 l 257
70 0 m 257
 70 40 l 257
 242 40 l 257
 242 0 l 257
 70 0 l 257
EndSplineSet
Validated: 8388613
PickledDataWithLists: "(dp1
S'com.fontlab.hintData'
p2
(dp3
S'vhints'
p4
(lp5
(dp6
S'position'
p7
L40L
sS'width'
p8
L202L
sa(dp9
g7
L40L
sg8
L122L
sasS'hhints'
p10
(lp11
(dp12
g7
L1L
sg8
L122L
sa(dp13
g7
L107L
sg8
L17L
sass."
EndChar

StartChar: tml_RI
Encoding: 124 -1 124
GlifName: tml_R_I_
Width: 679
VWidth: 0
GlyphClass: 2
Flags: W
LayerCount: 2
Fore
SplineSet
509 718.957 m 257
 509 758.957 l 257
 606 758.957 639 694.957 639 592.957 c 258
 639 63.957 l 257
 599 63.957 l 257
 599 589.957 l 258
 599 651.957 595 718.957 509 718.957 c 257
324 590.957 m 257
 324 590.957 l 257
 324 694.957 361 758.957 455 758.957 c 256
 455 758.957 l 257
 455 718.957 l 256
 455 718.957 l 256
 375 718.957 364 651.957 364 590.957 c 256
 324 590.957 l 257
EndSplineSet
Refer: 131 2992 N 1 0 0 1 0 0 2
Validated: 5
EndChar

StartChar: tml_RI.alt
Encoding: 125 -1 125
GlifName: tml_R_I_.alt
Width: 678
VWidth: 0
GlyphClass: 2
Flags: W
LayerCount: 2
Fore
SplineSet
508 719.957 m 257
 508 759.957 l 257
 605 759.957 638 695.957 638 593.957 c 258
 638 67.957 l 257
 598 67.957 l 257
 598 590.957 l 258
 598 652.957 594 719.957 508 719.957 c 257
323 591.957 m 257
 363 591.957 l 256
 363 652.957 374 719.957 454 719.957 c 256
 454 719.957 l 256
 454 759.957 l 257
 454 759.957 l 256
 360 759.957 323 695.957 323 591.957 c 257
 323 591.957 l 257
323 0 m 257
 363 0 l 257
 363 593 l 257
 323 593 l 257
 323 0 l 257
40 0 m 257
 40 592 l 257
 80 593 l 257
 80 0 l 257
 40 0 l 257
228 555 m 257
 459 555 l 257
 459 595 l 257
 228 595 l 257
 228 555 l 257
40 555 m 257
 40 595 l 257
 175 595 l 257
 175 555 l 257
 40 555 l 257
EndSplineSet
Validated: 5
EndChar

StartChar: tml_RIi
Encoding: 126 -1 126
GlifName: tml_R_I_i
Width: 658
VWidth: 0
GlyphClass: 2
Flags: W
LayerCount: 2
Fore
SplineSet
324 570 m 257
 324 594.344 l 256
 250 753.344 345.394 899.344 481 899.344 c 256
 655 899.344 664.69 662.344 502 662.344 c 256
 464 662.344 430 689.344 420 710.344 c 257
 446 741.344 l 256
 446 725.344 480 702.344 505 702.344 c 256
 528 702.344 577 718.344 577 777.344 c 256
 577 792.344 569 859.344 471 859.344 c 257
 388.677 858.914 291 751.344 366 593.07 c 256
 366 570 l 257
 324 570 l 257
EndSplineSet
Refer: 131 2992 N 1 0 0 1 0 0 2
Validated: 37
EndChar

StartChar: tml_RIi.alt
Encoding: 127 -1 127
GlifName: tml_R_I_i.alt
Width: 657
VWidth: 0
GlyphClass: 2
Flags: W
LayerCount: 2
Fore
SplineSet
323 570 m 257
 365 570 l 257
 365 593.07 l 256
 290 751.344 387.677 858.914 470 859.344 c 257
 568 859.344 576 792.344 576 777.344 c 256
 576 718.344 527 702.344 504 702.344 c 256
 479 702.344 445 725.344 445 741.344 c 256
 419 710.344 l 257
 429 689.344 463 662.344 501 662.344 c 256
 663.69 662.344 654 899.344 480 899.344 c 256
 344.394 899.344 249 753.344 323 594.344 c 256
 323 570 l 257
323 0 m 257
 363 0 l 257
 363 593 l 257
 323 593 l 257
 323 0 l 257
40 0 m 257
 40 592 l 257
 80 593 l 257
 80 0 l 257
 40 0 l 257
228 555 m 257
 459 555 l 257
 459 595 l 257
 228 595 l 257
 228 555 l 257
40 555 m 257
 40 595 l 257
 175 595 l 257
 175 555 l 257
 40 555 l 257
EndSplineSet
Validated: 37
EndChar

StartChar: tml_RU
Encoding: 128 -1 128
GlifName: tml_R_U_
Width: 878
VWidth: 0
GlyphClass: 2
Flags: W
HStem: -150 122 1 21<295 295 295 335 579 619 579 579> 379 122 473 122
VStem: 0 123 255 194 255 122 756 122
LayerCount: 2
Fore
SplineSet
40 69 m 258
 40 292 l 258
 40 455 154 501 239 501 c 256
 239 461 l 256
 161 461 80 417 80 287 c 258
 80 68 l 258
 80 -49 151 -98 231 -98 c 258
 434 -98 l 257
 434 -138 l 257
 234 -138 l 258
 125 -138 40 -70 40 69 c 258
489 -98 m 257
 650 -98 l 258
 721 -98 798 -45 798 24 c 258
 798 180 l 258
 798 279 707 295 675 295 c 257
 675 335 l 257
 736 329 838 302 838 184 c 258
 838 24 l 258
 838 -43 777 -138 651 -138 c 258
 489 -138 l 257
 489 -98 l 257
295 1 m 257
 295 595 l 257
 335 595 l 257
 335 1 l 257
 295 1 l 257
297 555 m 257
 297 595 l 257
 435 595 l 257
 435 555 l 257
 297 555 l 257
579 1 m 257
 579 591 l 257
 621 591 l 257
 619 1 l 257
 579 1 l 257
489 555 m 257
 489 595 l 257
 733 595 l 257
 733 555 l 257
 489 555 l 257
EndSplineSet
Validated: 5
PickledDataWithLists: "(dp1
S'com.fontlab.hintData'
p2
(dp3
S'vhints'
p4
(lp5
(dp6
S'position'
p7
L0L
sS'width'
p8
L123L
sa(dp9
g7
L255L
sg8
L194L
sa(dp10
g7
L255L
sg8
L122L
sa(dp11
g7
L756L
sg8
L122L
sasS'hhints'
p12
(lp13
(dp14
g7
L-150L
sg8
L122L
sa(dp15
g7
L1L
sg8
L21L
sa(dp16
g7
L379L
sg8
L122L
sa(dp17
g7
L473L
sg8
L122L
sass."
EndChar

StartChar: tml_RUu
Encoding: 129 -1 129
GlifName: tml_R_U_u
Width: 1063
VWidth: 0
GlyphClass: 2
Flags: W
HStem: -150 122 1 21<440 440 440 480 724 764 724 724> 321 122 473 122
VStem: 64 123 262 122 400 194 400 122 901 122
LayerCount: 2
Fore
SplineSet
145 29 m 258
 145 267 l 258
 145 334.196 174.89 404 258 404 c 258
 268 404 l 258
 343.819 404 381 335.077 381 292 c 258
 381 279 l 258
 381 226.264 329.968 172 268 172 c 257
 268 212 l 256
 321.322 212.637 341 254.69 341 284 c 256
 341 317.613 321.556 364 263 364 c 256
 206.45 364 185 329.86 185 267 c 258
 185 28 l 258
 185 -63.1145 238.686 -97 296 -97 c 258
 593 -97 l 257
 593 -137 l 257
 296 -137 l 258
 210.72 -137 145 -82.4686 145 29 c 258
648 -97 m 257
 795 -97 l 258
 847.77 -97 905 -57 905 25 c 258
 905 217 l 258
 905 284.148 842.114 295 820 295 c 257
 820 335 l 257
 866.779 330.47 945 310.086 945 221 c 258
 945 25 l 258
 945 -53 896.396 -137 796 -137 c 258
 648 -137 l 257
 648 -97 l 257
440 1 m 257
 440 595 l 257
 480 595 l 257
 480 1 l 257
 440 1 l 257
442 555 m 257
 442 595 l 257
 594 595 l 257
 594 555 l 257
 442 555 l 257
724 1 m 257
 724 591 l 257
 766 591 l 257
 764 1 l 257
 724 1 l 257
648 555 m 257
 648 595 l 257
 878 595 l 257
 878 555 l 257
 648 555 l 257
EndSplineSet
Validated: 5
PickledDataWithLists: "(dp1
S'com.fontlab.hintData'
p2
(dp3
S'vhints'
p4
(lp5
(dp6
S'position'
p7
L64L
sS'width'
p8
L123L
sa(dp9
g7
L262L
sg8
L122L
sa(dp10
g7
L400L
sg8
L194L
sa(dp11
g7
L400L
sg8
L122L
sa(dp12
g7
L901L
sg8
L122L
sasS'hhints'
p13
(lp14
(dp15
g7
L-150L
sg8
L122L
sa(dp16
g7
L1L
sg8
L21L
sa(dp17
g7
L321L
sg8
L122L
sa(dp18
g7
L473L
sg8
L122L
sass."
EndChar

StartChar: tml_RVirama.alt
Encoding: 130 -1 130
GlifName: tml_R_V_irama.alt
Width: 499
VWidth: 0
GlyphClass: 2
Flags: W
LayerCount: 2
Fore
SplineSet
40 0 m 257
 40 592 l 257
 80 593 l 257
 80 0 l 257
 40 0 l 257
40 555 m 257
 40 595 l 257
 175 595 l 257
 175 555 l 257
 40 555 l 257
193.643 725.27 m 260
 193.643 745.143 209.259 761.112 228.776 761.112 c 260
 248.295 761.112 263.91 745.143 263.91 725.27 c 260
 263.91 705.396 248.295 689.425 228.776 689.425 c 260
 209.259 689.425 193.643 705.396 193.643 725.27 c 260
323 0 m 257
 363 0 l 257
 363 593 l 257
 323 593 l 257
 323 0 l 257
228 555 m 257
 459 555 l 257
 459 595 l 257
 228 595 l 257
 228 555 l 257
EndSplineSet
Validated: 5
EndChar

StartChar: tml_Ra
Encoding: 131 2992 131
GlifName: tml_R_a
Width: 518
VWidth: 0
GlyphClass: 2
Flags: W
HStem: 0 21<40 40 40 80 364 364> 473 122
VStem: 0 178 0 122
LayerCount: 2
Fore
SplineSet
154 -177 m 257
 324 19 l 257
 324 591 l 257
 366 591 l 257
 364 0 l 256
 209 -177 l 257
 154 -177 l 257
40 0 m 257
 40 595 l 257
 80 595 l 257
 80 0 l 257
 40 0 l 257
229 555 m 257
 229 595 l 257
 478 595 l 257
 478 555 l 257
 229 555 l 257
42 555 m 257
 42 595 l 257
 175 595 l 257
 175 555 l 257
 42 555 l 257
EndSplineSet
Validated: 5
PickledDataWithLists: "(dp1
S'com.fontlab.hintData'
p2
(dp3
S'vhints'
p4
(lp5
(dp6
S'position'
p7
L0L
sS'width'
p8
L178L
sa(dp9
g7
L0L
sg8
L122L
sasS'hhints'
p10
(lp11
(dp12
g7
L0L
sg8
L21L
sa(dp13
g7
L473L
sg8
L122L
sass."
EndChar

StartChar: tml_RrAa.alt
Encoding: 132 -1 132
GlifName: tml_R_rA_a.alt
Width: 852
VWidth: 0
GlyphClass: 2
Flags: W
LayerCount: 2
Fore
SplineSet
40 40 m 258
 40 -94 134 -166 234 -166 c 258
 408 -166 l 257
 408 -126 l 257
 250 -126 l 258
 163 -126 80 -83 80 40 c 258
 80 519 l 258
 80 566 100 692 240 692 c 257
 292 692 l 257
 326 732 l 257
 239 732 l 257
 154 732 40 682 40 519 c 258
 40 40 l 258
477 -126 m 257
 668 -126 l 258
 737 -126 771 -84 771 -30 c 258
 771 132 l 258
 771 208 684 200 662 200 c 257
 662 244 l 257
 724 238 812 234 812 136 c 258
 812 -31 l 258
 812 -105 765 -166 669 -166 c 258
 477 -166 l 257
 477 -126 l 257
662 245 m 257
 674 245 l 258
 740 245 771 275 771 316 c 258
 771 467 l 258
 771 521 766 566 664 566 c 257
 664 606 l 257
 777 606 812 559 812 475 c 258
 812 336 l 258
 812 284 806 207 678 205 c 258
 662 205 l 256
 662 245 l 257
410 566.957 m 257
 410 606.957 l 257
 456 606.957 486 594.543 510 561.957 c 257
 538 597.646 571 606.957 610 606.957 c 257
 610 566.957 l 257
 565 566.957 528.59 543.143 529 450.957 c 258
 531 0.957031 l 257
 491 0.957031 l 257
 489 449.957 l 258
 488.585 543.124 462 566.957 410 566.957 c 257
243 0.957031 m 257
 243 479.957 l 258
 243 529.957 273.549 606.957 357 606.957 c 257
 357 566.957 l 257
 295.442 566.957 282.878 503.956 283 474.957 c 258
 285 0.957031 l 257
 243 0.957031 l 257
EndSplineSet
Validated: 37
EndChar

StartChar: tml_RrI
Encoding: 133 -1 133
GlifName: tml_R_rI_
Width: 804
VWidth: 0
GlyphClass: 2
Flags: W
LayerCount: 2
Fore
SplineSet
40 -256 m 257
 40 -95.1494 112.976 -76 172 -76 c 258
 460 -76 l 258
 528.25 -76 574.212 -20.4697 574 64 c 258
 574 460 l 258
 574 573.898 511.611 568 465 568 c 256
 399 568 355.59 542.186 356 450 c 258
 358 0 l 257
 318 0 l 257
 316 449 l 258
 315.585 542.167 289 566 237 566 c 257
 237 606 l 257
 283 606 313 593.586 337 561 c 257
 365 596.689 441 609 465 609 c 256
 567.982 609 614 561.138 614 475 c 258
 614 64 l 258
 614 -22.3018 570.632 -114.356 459 -116 c 258
 165 -116 l 258
 112.435 -116 80 -145.109 80 -256 c 257
 40 -256 l 257
449 594.957 m 257
 449 594.957 l 257
 449 698.957 486 762.957 580 762.957 c 256
 580 762.957 l 257
 580 722.957 l 256
 580 722.957 l 256
 500 722.957 489 655.957 489 594.957 c 256
 449 594.957 l 257
70 0 m 257
 70 479 l 258
 70 529 100.549 606 184 606 c 257
 184 566 l 257
 122.442 566 109.878 502.999 110 474 c 258
 112 0 l 257
 70 0 l 257
634 722.957 m 257
 634 762.957 l 257
 731 762.957 764 698.957 764 596.957 c 258
 764 67.957 l 257
 724 67.957 l 257
 724 593.957 l 258
 724 655.957 720 722.957 634 722.957 c 257
EndSplineSet
Validated: 37
EndChar

StartChar: tml_RrIi
Encoding: 134 -1 134
GlifName: tml_R_rI_i
Width: 783
VWidth: 0
GlyphClass: 2
Flags: W
LayerCount: 2
Fore
SplineSet
449 582.93 m 257
 449 607.273 l 256
 375 766.273 470.394 912.273 606 912.273 c 256
 780 912.273 789.69 675.273 627 675.273 c 256
 589 675.273 555 702.273 545 723.273 c 257
 571 754.273 l 256
 571 738.273 605 715.273 630 715.273 c 256
 653 715.273 702 731.273 702 790.273 c 256
 702 805.273 694 872.273 596 872.273 c 257
 513.677 871.844 414 764.273 489 606 c 256
 490 582.93 l 257
 449 582.93 l 257
40 -256 m 257
 40 -95.1494 112.976 -76 172 -76 c 258
 460 -76 l 258
 528.25 -76 574.212 -20.4697 574 64 c 258
 574 460 l 258
 574 573.898 511.611 568 465 568 c 256
 399 568 355.59 542.186 356 450 c 258
 358 0 l 257
 318 0 l 257
 316 449 l 258
 315.585 542.167 289 566 237 566 c 257
 237 606 l 257
 283 606 313 593.586 337 561 c 257
 365 596.689 441 609 465 609 c 256
 567.982 609 614 561.138 614 475 c 258
 614 64 l 258
 614 -22.3018 570.632 -114.356 459 -116 c 258
 165 -116 l 258
 112.435 -116 80 -145.109 80 -256 c 257
 40 -256 l 257
70 0 m 257
 70 479 l 258
 70 529 100.549 606 184 606 c 257
 184 566 l 257
 122.442 566 109.878 502.999 110 474 c 258
 112 0 l 257
 70 0 l 257
EndSplineSet
Validated: 37
EndChar

StartChar: tml_RrU
Encoding: 135 -1 135
GlifName: tml_R_rU_
Width: 899
VWidth: 0
GlyphClass: 2
Flags: W
HStem: -257 94 -120 93 -1 21 494 117
VStem: 36 129 287 122 563 122 738 122
LayerCount: 2
Fore
SplineSet
78 -136 m 258
 78 -92 122.003 -57 182 -57 c 258
 741 -57 l 257
 741 583 l 256
 781 583 l 256
 781 -97 l 257
 182 -97 l 258
 94.0039 -97 94.0029 -194 195 -194 c 258
 329 -194 l 257
 329 -234 l 257
 188 -234 l 258
 125.002 -234 78 -192 78 -154 c 258
 78 -136 l 258
383 -234 m 257
 383 -194 l 257
 512 -194 l 258
 567.522 -194 605 -161 605 -56 c 258
 605 62 l 257
 605 460 l 258
 605 560 535.784 566 521 566 c 257
 521 606 l 257
 605.921 606 645 530 645 475 c 258
 645 62 l 257
 645 -56 l 258
 645 -122 629.74 -234 513 -234 c 258
 383 -234 l 257
271 566 m 257
 271 606 l 257
 316.54 606 346.24 595.241 370 567 c 257
 398 597.931 431 606 470 606 c 257
 470 566 l 257
 444 566 388.708 545.524 389 476 c 258
 391 0 l 257
 351 0 l 257
 349 475 l 258
 348.686 549.463 305.013 566 271 566 c 257
103 0 m 257
 103 479 l 258
 103 547 144.549 606 217 606 c 257
 217 566 l 257
 155.442 566 142.878 502.999 143 474 c 258
 145 0 l 257
 103 0 l 257
EndSplineSet
Validated: 37
PickledDataWithLists: "(dp1
S'com.fontlab.hintData'
p2
(dp3
S'vhints'
p4
(lp5
(dp6
S'position'
p7
L36L
sS'width'
p8
L129L
sa(dp9
g7
L287L
sg8
L122L
sa(dp10
g7
L563L
sg8
L122L
sa(dp11
g7
L738L
sg8
L122L
sasS'hhints'
p12
(lp13
(dp14
g7
L-257L
sg8
L94L
sa(dp15
g7
L-120L
sg8
L93L
sa(dp16
g7
L-1L
sg8
L21L
sa(dp17
g7
L494L
sg8
L117L
sass."
EndChar

StartChar: tml_RrUu
Encoding: 136 -1 136
GlifName: tml_R_rU_u
Width: 1191
VWidth: 0
GlyphClass: 2
Flags: W
HStem: -257 94 -120 93 -1 21 474 122 474 109 494 117
VStem: -2 129 249 122 526 122 701 179 701 122
LayerCount: 2
Fore
SplineSet
1027 1 m 257
 1027 594 l 257
 1067 594 l 257
 1067 1 l 257
 1027 1 l 257
911 556 m 257
 911 596 l 257
 1151 596 l 257
 1151 556 l 257
 911 556 l 257
703 556 m 257
 703 596 l 257
 857 596 l 257
 857 556 l 257
 703 556 l 257
EndSplineSet
Refer: 135 -1 N 1 0 0 1 -38 0 2
Validated: 5
PickledDataWithLists: "(dp1
S'com.fontlab.hintData'
p2
(dp3
S'vhints'
p4
(lp5
(dp6
S'position'
p7
L-2L
sS'width'
p8
L129L
sa(dp9
g7
L249L
sg8
L122L
sa(dp10
g7
L526L
sg8
L122L
sa(dp11
g7
L701L
sg8
L179L
sa(dp12
g7
L701L
sg8
L122L
sasS'hhints'
p13
(lp14
(dp15
g7
L-257L
sg8
L94L
sa(dp16
g7
L-120L
sg8
L93L
sa(dp17
g7
L-1L
sg8
L21L
sa(dp18
g7
L474L
sg8
L122L
sa(dp19
g7
L474L
sg8
L109L
sa(dp20
g7
L494L
sg8
L117L
sass."
EndChar

StartChar: tml_Rra
Encoding: 137 2993 137
GlifName: tml_R_ra
Width: 654
VWidth: 0
GlyphClass: 2
Flags: HW
HStem: -155 122 0 21<70 70 70 112 318 318 318 358> 483 123
VStem: 0 122 26 129 277 122 530 125
AnchorPoint: "tml_virama" 371 0 basechar 0
LayerCount: 2
Fore
SplineSet
40 -256 m 257
 40 -95.1494 112.976 -76 172 -76 c 258
 460 -76 l 258
 528.25 -76 574.212 -20.4697 574 64 c 258
 574 460 l 258
 574 560 503.258 566 488 566 c 257
 488 606 l 257
 574.817 606 614 530 614 475 c 258
 614 64 l 258
 614 -22.3018 570.632 -114.356 459 -116 c 258
 165 -116 l 258
 112.435 -116 80 -145.109 80 -256 c 257
 40 -256 l 257
70 0 m 257
 70 479 l 258
 70 529 100.549 606 184 606 c 257
 184 566 l 257
 122.442 566 109.878 502.999 110 474 c 258
 112 0 l 257
 70 0 l 257
237 566 m 257
 237 606 l 257
 283 606 313 593.586 337 561 c 257
 365 596.689 398 606 437 606 c 257
 437 566 l 257
 392 566 355.59 542.186 356 450 c 258
 358 0 l 257
 318 0 l 257
 316 449 l 258
 315.585 542.167 289 566 237 566 c 257
EndSplineSet
Validated: 8912929
PickledDataWithLists: "(dp1
S'com.fontlab.hintData'
p2
(dp3
S'vhints'
p4
(lp5
(dp6
S'position'
p7
L0L
sS'width'
p8
L122L
sa(dp9
g7
L26L
sg8
L129L
sa(dp10
g7
L277L
sg8
L122L
sa(dp11
g7
L530L
sg8
L125L
sasS'hhints'
p12
(lp13
(dp14
g7
L-155L
sg8
L122L
sa(dp15
g7
L0L
sg8
L21L
sa(dp16
g7
L483L
sg8
L123L
sass."
EndChar

StartChar: tml_Rupee
Encoding: 138 3065 138
GlifName: tml_R_upee
Width: 858
VWidth: 0
GlyphClass: 2
Flags: HW
LayerCount: 2
Fore
SplineSet
467 680.429529822 m 4
 479.941014548 687.600768491 490.414148472 700.896776398 493 719 c 260
 500.571 772 431 794.876 378 746 c 260
 367 735.856 345.225 702.415 345 635 c 261
 305 635 l 260
 305 750 369 814 433 814 c 260
 494 814 533 786 533 719 c 260
 533 652 467 638.294381055 467 638.294381055 c 5
 467 638.294381055 467 680 467 680.429529822 c 4
428 677.740817693 m 4
 429 677 428 635.810821483 428 635.810821483 c 5
 428 635.810821483 363 643 363 724 c 260
 363 813 426 881 494 881 c 260
 567 881 624 835 624 695 c 260
 722 695 l 260
 722 655 l 260
 583 655 l 261
 589 723 588 841 493 841 c 260
 422 841 403.51 753.995 403 728 c 260
 402.457319656 700.33104977 413.475507054 684.230725065 428 677.740817693 c 4
484 544 m 257
 484 595 l 257
 713 595 l 257
 713 544 l 257
 484 544 l 257
484 -137 m 257
 641 -137 l 258
 714 -137 778 -78 778 -15 c 258
 778 222 l 258
 778 319 676 332 655 332 c 257
 655 372 l 257
 716 366 818 339 818 221 c 258
 818 -15 l 258
 818 -84 758 -177 632 -177 c 258
 484 -177 l 257
 484 -137 l 257
40 30 m 258
 40 534 l 258
 40 660 108.764 675 210 675 c 258
 345 675 l 256
 346 635 l 256
 208 635 l 258
 123.912 635 80 627 80 533 c 258
 80 29 l 258
 81.6377 -83 143.607 -137 242 -137 c 258
 430 -137 l 257
 430 -177 l 257
 234 -177 l 258
 125 -177 40 -109 40 30 c 258
559 0 m 257
 559 590 l 257
 602 591 l 257
 600 1 l 257
 559 0 l 257
277 1 m 257
 277 595 l 257
 323 594 l 257
 323 0 l 257
 277 1 l 257
279 544 m 257
 279 595 l 257
 431 595 l 257
 431 544 l 257
 279 544 l 257
EndSplineSet
Validated: 37
EndChar

StartChar: tml_SI
Encoding: 139 -1 139
GlifName: tml_S_I_
Width: 1275
VWidth: 0
GlyphClass: 2
Flags: W
LayerCount: 2
Fore
SplineSet
671 566 m 257
 671 606 l 257
 783 606 807 507 807 405 c 258
 807 109 l 258
 807 72 846 40 888 40 c 257
 888 0 l 257
 825 0 766 49.002 766 107 c 258
 766 397 l 258
 766 458.004 767 566 671 566 c 257
942 0 m 257
 1052 0 1108 82 1108 167 c 258
 1108 426 l 258
 1108 543 1055 597 935 596 c 257
 935 556 l 257
 1060 556 1068 490 1068 424 c 257
 1068 167 l 257
 1068 116 1039 40 942 40 c 257
 942 0 l 257
40 172 m 258
 40 196 l 258
 40 300 116 359 192 359 c 257
 192 319 l 256
 154.616 319 79 295 79 181 c 256
 79 91 141.872 40 192 40 c 257
 192 0 l 256
 103.628 0 40 88 40 172 c 258
247 0 m 257
 247 40 l 257
 291.449 40 341 88 341 182.617 c 256
 341 282 289.264 319 247 319 c 257
 247 359 l 256
 320.184 359 383 292 383 196 c 258
 383 173 l 258
 383.805 75 319.207 0 247 0 c 257
316.991 565 m 257
 316.991 605 l 257
 478.991 605 519.991 454 519.991 355 c 257
 519.991 0 l 257
 479.991 0 l 257
 479.991 354 l 257
 479.991 472 429.991 565 316.991 565 c 257
936 556 m 257
 950 592 l 256
 898 592 875 737.1 1028 737 c 256
 1028 737 l 256
 1028 777 l 257
 1028 777 l 257
 818.654 776.519 846.95 555.966 936 556 c 257
1082 736 m 257
 1082 777 l 257
 1212 777 1235 689 1235 594 c 258
 1235 77 l 257
 1194 77 l 257
 1194 591 l 258
 1194 652 1192 736 1082 736 c 257
40 204 m 257
 40 302 l 257
 40 468.761 125.239 605 263 605 c 257
 263 565 l 257
 148.521 565 81.6709 443.391 80 306 c 256
 40 204 l 257
479.991 325 m 257
 479.991 440 485.991 605 616.991 605 c 257
 616.991 565 l 257
 532.991 565 519.991 454 519.991 326 c 257
 479.991 325 l 257
EndSplineSet
Validated: 37
EndChar

StartChar: tml_SIi
Encoding: 140 -1 140
GlifName: tml_S_I_i
Width: 1249
VWidth: 0
GlyphClass: 2
Flags: W
LayerCount: 2
Fore
SplineSet
993.994 541 m 257
 1071.99 513 1067 450 1067 424 c 258
 1067 123 l 258
 1067 61 1036 0 942 0 c 257
 942 40 l 257
 969 40 1027 46 1027 123 c 257
 1027 423 l 258
 1026.22 445.874 1030.8 476.6 981.994 501 c 256
 941.994 521 887.994 562 874 621 c 256
 845.611 740.688 910.541 874 1056 874 c 256
 1260.99 874 1245 627.486 1099 629 c 256
 1058 629.425 1026.99 652 1014.99 675 c 257
 1040.99 707 l 256
 1040.99 691 1064 669 1102 669 c 256
 1132 669 1169 693 1169 746 c 256
 1169 799 1120 835 1063 835 c 257
 901 849 848.994 599 993.994 541 c 257
671 566 m 257
 671 606 l 257
 783 606 807 507 807 405 c 258
 807 109 l 258
 807 72 846 40 888 40 c 257
 888 0 l 257
 825 0 766 49.002 766 107 c 258
 766 397 l 258
 766 458.004 767 566 671 566 c 257
40 172 m 258
 40 196 l 258
 40 300 116 359 192 359 c 257
 192 319 l 256
 154.616 319 79 295 79 181 c 256
 79 91 141.872 40 192 40 c 257
 192 0 l 256
 103.628 0 40 88 40 172 c 258
247 0 m 257
 247 40 l 257
 291.449 40 341 88 341 182.617 c 256
 341 282 289.264 319 247 319 c 257
 247 359 l 256
 320.184 359 383 292 383 196 c 258
 383 173 l 258
 383.805 75 319.207 0 247 0 c 257
316.991 565 m 257
 316.991 605 l 257
 478.991 605 519.991 454 519.991 355 c 257
 519.991 0 l 257
 479.991 0 l 257
 479.991 354 l 257
 479.991 472 429.991 565 316.991 565 c 257
40 204 m 257
 40 302 l 257
 40 468.761 125.239 605 263 605 c 257
 263 565 l 257
 148.521 565 81.6709 443.391 80 306 c 256
 40 204 l 257
479.991 325 m 257
 479.991 440 485.991 605 616.991 605 c 257
 616.991 565 l 257
 532.991 565 519.991 454 519.991 326 c 257
 479.991 325 l 257
EndSplineSet
Validated: 37
EndChar

StartChar: tml_SU
Encoding: 141 -1 141
GlifName: tml_S_U_
Width: 1460
VWidth: 0
GlyphClass: 2
Flags: W
LayerCount: 2
Fore
SplineSet
934 556.727 m 257
 934 596.727 l 257
 1255 596.727 l 258
 1370 596.727 1420 545.727 1420 478.727 c 258
 1420 471.727 l 258
 1420 412.727 1368 358.727 1313 358.727 c 258
 1301 358.727 l 258
 1232 358.727 1190 421.727 1190 471.727 c 257
 1230 471.727 l 256
 1230 451.727 1247 398.727 1306 398.727 c 256
 1361 398.727 1380 452.727 1380 470.727 c 256
 1380 525.727 1348 556.727 1251 556.727 c 258
 934 556.727 l 257
671 566 m 257
 671 606 l 257
 783 606 807 507 807 405 c 258
 807 109 l 258
 807 72 846 40 888 40 c 257
 888 0 l 257
 825 0 766 49.002 766 107 c 258
 766 397 l 258
 766 458.004 767 566 671 566 c 257
942 0 m 257
 942 40 l 257
 1039 40 1068 116 1068 167 c 257
 1068 424 l 257
 1068 490 1060 556 935 556 c 257
 935 596 l 257
 1055 597 1108 543 1108 426 c 258
 1108 167 l 258
 1108 82 1052 0 942 0 c 257
40 172 m 258
 40 196 l 258
 40 300 116 359 192 359 c 257
 192 319 l 256
 154.616 319 79 295 79 181 c 256
 79 91 141.872 40 192 40 c 257
 192 0 l 256
 103.628 0 40 88 40 172 c 258
247 0 m 257
 247 40 l 257
 291.449 40 341 88 341 182.617 c 256
 341 282 289.264 319 247 319 c 257
 247 359 l 256
 320.184 359 383 292 383 196 c 258
 383 173 l 258
 383.805 75 319.207 0 247 0 c 257
316.991 565 m 257
 316.991 605 l 257
 478.991 605 519.991 454 519.991 355 c 257
 519.991 0 l 257
 479.991 0 l 257
 479.991 354 l 257
 479.991 472 429.991 565 316.991 565 c 257
40 204 m 257
 40 302 l 257
 40 468.761 125.239 605 263 605 c 257
 263 565 l 257
 148.521 565 81.6709 443.391 80 306 c 256
 40 204 l 257
479.991 325 m 257
 479.991 440 485.991 605 616.991 605 c 257
 616.991 565 l 257
 532.991 565 519.991 454 519.991 326 c 257
 479.991 325 l 257
EndSplineSet
Validated: 37
EndChar

StartChar: tml_SUu
Encoding: 142 -1 142
GlifName: tml_S_U_u
Width: 1609
VWidth: 0
GlyphClass: 2
Flags: W
LayerCount: 2
Fore
SplineSet
935 556.727 m 257
 935 596.727 l 257
 1253 596.727 l 258
 1368 596.727 1418 545.727 1418 478.727 c 258
 1418 471.727 l 258
 1418 412.727 1366 358.727 1311 358.727 c 258
 1299 358.727 l 258
 1230 358.727 1188 421.727 1188 471.727 c 257
 1228 471.727 l 256
 1228 451.727 1245 398.727 1304 398.727 c 256
 1359 398.727 1378 452.727 1378 470.727 c 256
 1378 525.727 1346 556.727 1249 556.727 c 258
 935 556.727 l 257
1185 593.727 m 256
 1185 735.727 1262 793.727 1377 793.727 c 256
 1480 793.727 1569 742.727 1569 637.727 c 258
 1569 313.727 l 258
 1569 235.727 1532 188.727 1431 188.727 c 258
 1372 188.727 l 256
 1372 228.727 l 256
 1431 228.727 l 258
 1477 228.727 1529 231.727 1529 313.727 c 258
 1529 637.727 l 258
 1529 694.727 1487 753.727 1377 753.727 c 256
 1270 753.727 1225 695.727 1225 593.727 c 257
 1185 593.727 l 256
671 566 m 257
 671 606 l 257
 783 606 807 507 807 405 c 258
 807 109 l 258
 807 72 846 40 888 40 c 257
 888 0 l 257
 825 0 766 49.002 766 107 c 258
 766 397 l 258
 766 458.004 767 566 671 566 c 257
942 0 m 257
 942 40 l 257
 1039 40 1068 116 1068 167 c 257
 1068 424 l 257
 1068 490 1060 556 935 556 c 257
 935 596 l 257
 1055 597 1108 543 1108 426 c 258
 1108 167 l 258
 1108 82 1052 0 942 0 c 257
40 172 m 258
 40 196 l 258
 40 300 116 359 192 359 c 257
 192 319 l 256
 154.616 319 79 295 79 181 c 256
 79 91 141.872 40 192 40 c 257
 192 0 l 256
 103.628 0 40 88 40 172 c 258
247 0 m 257
 247 40 l 257
 291.449 40 341 88 341 182.617 c 256
 341 282 289.264 319 247 319 c 257
 247 359 l 256
 320.184 359 383 292 383 196 c 258
 383 173 l 258
 383.805 75 319.207 0 247 0 c 257
316.991 565 m 257
 316.991 605 l 257
 478.991 605 519.991 454 519.991 355 c 257
 519.991 0 l 257
 479.991 0 l 257
 479.991 354 l 257
 479.991 472 429.991 565 316.991 565 c 257
40 204 m 257
 40 302 l 257
 40 468.761 125.239 605 263 605 c 257
 263 565 l 257
 148.521 565 81.6709 443.391 80 306 c 256
 40 204 l 257
479.991 325 m 257
 479.991 440 485.991 605 616.991 605 c 257
 616.991 565 l 257
 532.991 565 519.991 454 519.991 326 c 257
 479.991 325 l 257
EndSplineSet
Validated: 37
EndChar

StartChar: tml_Sa
Encoding: 143 3000 143
GlifName: tml_S_a
Width: 1167
VWidth: 0
GlyphClass: 2
Flags: HW
HStem: 0 122 237 123 484 121
VStem: 41 171 41 131 41 124 313 123 762 122 1021 122
AnchorPoint: "tml_virama" 531 0 basechar 0
LayerCount: 2
Fore
SplineSet
707 566 m 257
 707 606 l 257
 819 606 843 507 843 405 c 258
 843 109 l 258
 843 72 882 40 924 40 c 257
 924 0 l 257
 861 0 802 49.002 802 107 c 258
 802 397 l 258
 802 458.004 803 566 707 566 c 257
978 0 m 257
 978 40 l 257
 1075 40 1104 116 1104 167 c 257
 1104 424 l 257
 1104 490 1096 556 971 556 c 257
 971 596 l 257
 1091 597 1144 543 1144 426 c 258
 1144 167 l 258
 1144 82 1088 0 978 0 c 257
76 172 m 258
 76 196 l 258
 76 300 152 359 228 359 c 257
 228 319 l 256
 190.616 319 115 295 115 181 c 256
 115 91 177.872 40 228 40 c 257
 228 0 l 256
 139.628 0 76 88 76 172 c 258
283 0 m 257
 283 40 l 257
 327.449 40 377 88 377 182.617 c 256
 377 282 325.264 319 283 319 c 257
 283 359 l 256
 356.184 359 419 292 419 196 c 258
 419 173 l 258
 419.805 75 355.207 0 283 0 c 257
352.991 565 m 257
 352.991 605 l 257
 514.991 605 555.991 454 555.991 355 c 257
 555.991 0 l 257
 515.991 0 l 257
 515.991 354 l 257
 515.991 472 465.991 565 352.991 565 c 257
76 204 m 257
 76 302 l 257
 76 468.761 161.239 605 299 605 c 257
 299 565 l 257
 184.521 565 117.671 443.391 116 306 c 256
 76 204 l 257
515.991 325 m 257
 515.991 440 521.991 605 652.991 605 c 257
 652.991 565 l 257
 568.991 565 555.991 454 555.991 326 c 257
 515.991 325 l 257
EndSplineSet
Validated: 8912933
PickledDataWithLists: "(dp1
S'com.fontlab.hintData'
p2
(dp3
S'vhints'
p4
(lp5
(dp6
S'position'
p7
L41L
sS'width'
p8
L171L
sa(dp9
g7
L41L
sg8
L131L
sa(dp10
g7
L41L
sg8
L124L
sa(dp11
g7
L313L
sg8
L123L
sa(dp12
g7
L762L
sg8
L122L
sa(dp13
g7
L1021L
sg8
L122L
sasS'hhints'
p14
(lp15
(dp16
g7
L0L
sg8
L122L
sa(dp17
g7
L237L
sg8
L123L
sa(dp18
g7
L484L
sg8
L121L
sass."
EndChar

StartChar: tml_ShI
Encoding: 145 -1 145
GlifName: tml_S_hI_
Width: 982
VWidth: 0
GlyphClass: 2
Flags: W
LayerCount: 2
Fore
SplineSet
40 132 m 258
 40 595 l 257
 80 595 l 256
 80 136 l 258
 80 62.6738 114.547 40 164 40 c 257
 164 0 l 257
 159 0 l 258
 76.71 0 40 61.2861 40 132 c 258
218 0 m 257
 218 40 l 257
 264.548 40 303 70.7725 303 130 c 257
 303 582 l 257
 343 582 l 257
 343 126 l 257
 343 80.25 310.23 0 223 0 c 258
 218 0 l 257
467 132 m 258
 467 595 l 257
 507 595 l 256
 507 136 l 258
 507 72.2188 533.892 40 589 40 c 257
 589 0 l 257
 585 0 l 258
 512.003 0 467 49 467 132 c 258
643 0 m 257
 643 40 l 257
 689.548 40 728 73.2119 728 132 c 257
 728 582 l 257
 768 582 l 257
 768 128 l 257
 768 62.5234 720.972 0 646 0 c 258
 643 0 l 257
627 592.727 m 257
 627 592.727 l 257
 627 696.727 664 760.727 758 760.727 c 256
 758 760.727 l 257
 758 720.727 l 256
 758 720.727 l 256
 678 720.727 667 653.727 667 592.727 c 256
 627 592.727 l 257
812 720.727 m 257
 812 760.727 l 257
 909 760.727 942 696.727 942 594.727 c 258
 942 65.7266 l 257
 902 65.7266 l 257
 902 591.727 l 258
 902 653.727 898 720.727 812 720.727 c 257
303 555 m 257
 303 595 l 257
 768 595 l 257
 768 555 l 257
 303 555 l 257
EndSplineSet
Validated: 5
EndChar

StartChar: tml_ShIi
Encoding: 146 -1 146
GlifName: tml_S_hI_i
Width: 1013
VWidth: 0
GlyphClass: 2
Flags: W
LayerCount: 2
Fore
SplineSet
821 896 m 257
 637 896 614 657 768 595 c 257
 734 566 l 257
 541 674 622 936 820 936 c 257
 1021 936 1013 689 866 689 c 256
 821 689 787 716 775 739 c 257
 803 772 l 256
 803 756 829 729.289 865 729.289 c 256
 895 729.289 933 749 933 808 c 256
 933 858 878 896 821 896 c 257
40 132 m 258
 40 595 l 257
 80 595 l 256
 80 136 l 258
 80 62.6738 114.547 40 164 40 c 257
 164 0 l 257
 159 0 l 258
 76.71 0 40 61.2861 40 132 c 258
218 0 m 257
 218 40 l 257
 264.548 40 303 70.7725 303 130 c 257
 303 582 l 257
 343 582 l 257
 343 126 l 257
 343 80.25 310.23 0 223 0 c 258
 218 0 l 257
467 132 m 258
 467 595 l 257
 507 595 l 256
 507 136 l 258
 507 72.2188 533.892 40 589 40 c 257
 589 0 l 257
 585 0 l 258
 512.003 0 467 49 467 132 c 258
643 0 m 257
 643 40 l 257
 689.548 40 728 73.2119 728 132 c 257
 728 582 l 257
 768 582 l 257
 768 128 l 257
 768 62.5234 720.972 0 646 0 c 258
 643 0 l 257
303 555 m 257
 303 595 l 257
 768 595 l 257
 768 555 l 257
 303 555 l 257
EndSplineSet
Validated: 37
EndChar

StartChar: tml_ShU
Encoding: 147 -1 147
GlifName: tml_S_hU_
Width: 1217
VWidth: 0
GlyphClass: 2
Flags: W
LayerCount: 2
Fore
SplineSet
728 554.957 m 257
 728 594.957 l 257
 1012 594.957 l 258
 1127 594.957 1177 543.957 1177 476.957 c 258
 1177 469.957 l 258
 1177 410.957 1125 356.957 1070 356.957 c 258
 1058 356.957 l 258
 989 356.957 947 419.957 947 469.957 c 257
 987 469.957 l 256
 987 449.957 1004 396.957 1063 396.957 c 256
 1118 396.957 1137 450.957 1137 468.957 c 256
 1137 523.957 1105 554.957 1008 554.957 c 258
 728 554.957 l 257
40 132 m 258
 40 595 l 257
 80 595 l 256
 80 136 l 258
 80 62.6738 114.547 40 164 40 c 257
 164 0 l 257
 159 0 l 258
 76.71 0 40 61.2861 40 132 c 258
218 0 m 257
 218 40 l 257
 264.548 40 303 70.7725 303 130 c 257
 303 582 l 257
 343 582 l 257
 343 126 l 257
 343 80.25 310.23 0 223 0 c 258
 218 0 l 257
467 132 m 258
 467 595 l 257
 507 595 l 256
 507 136 l 258
 507 72.2188 533.892 40 589 40 c 257
 589 0 l 257
 585 0 l 258
 512.003 0 467 49 467 132 c 258
643 0 m 257
 643 40 l 257
 689.548 40 728 73.2119 728 132 c 257
 728 582 l 257
 768 582 l 257
 768 128 l 257
 768 62.5234 720.972 0 646 0 c 258
 643 0 l 257
303 555 m 257
 303 595 l 257
 768 595 l 257
 768 555 l 257
 303 555 l 257
EndSplineSet
Validated: 5
EndChar

StartChar: tml_ShUu
Encoding: 148 -1 148
GlifName: tml_S_hU_u
Width: 1322
VWidth: 0
GlyphClass: 2
Flags: W
LayerCount: 2
Fore
SplineSet
728 555 m 257
 728 595 l 257
 966 595 l 258
 1081 595 1131 544 1131 477 c 258
 1131 470 l 258
 1131 411 1079 357 1024 357 c 258
 1012 357 l 258
 943 357 901 420 901 470 c 257
 941 470 l 256
 941 450 958 397 1017 397 c 256
 1072 397 1091 451 1091 469 c 256
 1091 524 1059 555 962 555 c 258
 728 555 l 257
898 592 m 256
 898 734 975 792 1090 792 c 256
 1193 792 1282 741 1282 636 c 258
 1282 312 l 258
 1282 234 1245 187 1144 187 c 258
 1085 187 l 256
 1085 227 l 256
 1144 227 l 258
 1190 227 1242 230 1242 312 c 258
 1242 636 l 258
 1242 693 1200 752 1090 752 c 256
 983 752 938 694 938 592 c 257
 898 592 l 256
40 132 m 258
 40 595 l 257
 80 595 l 256
 80 136 l 258
 80 62.6738 114.547 40 164 40 c 257
 164 0 l 257
 159 0 l 258
 76.71 0 40 61.2861 40 132 c 258
218 0 m 257
 218 40 l 257
 264.548 40 303 70.7725 303 130 c 257
 303 582 l 257
 343 582 l 257
 343 126 l 257
 343 80.25 310.23 0 223 0 c 258
 218 0 l 257
467 132 m 258
 467 595 l 257
 507 595 l 256
 507 136 l 258
 507 72.2188 533.892 40 589 40 c 257
 589 0 l 257
 585 0 l 258
 512.003 0 467 49 467 132 c 258
643 0 m 257
 643 40 l 257
 689.548 40 728 73.2119 728 132 c 257
 728 582 l 257
 768 582 l 257
 768 128 l 257
 768 62.5234 720.972 0 646 0 c 258
 643 0 l 257
303 555 m 257
 303 595 l 257
 768 595 l 257
 768 555 l 257
 303 555 l 257
EndSplineSet
Validated: 5
EndChar

StartChar: tml_Sha
Encoding: 149 2998 149
GlifName: tml_S_ha
Width: 852
VWidth: 0
GlyphClass: 2
Flags: HW
AnchorPoint: "tml_virama" 561 0 basechar 0
LayerCount: 2
Fore
SplineSet
58 132 m 258
 58 595 l 257
 98 595 l 256
 98 136 l 258
 98 62.673828125 132.546875 40 182 40 c 257
 182 0 l 257
 177 0 l 258
 94.7099609375 0 58 61.2861328125 58 132 c 258
236 0 m 257
 236 40 l 257
 282.547851562 40 321 70.7724609375 321 130 c 257
 321 582 l 257
 361 582 l 257
 361 126 l 257
 361 80.25 328.231445312 0 241 0 c 258
 236 0 l 257
485 132 m 258
 485 595 l 257
 525 595 l 256
 525 136 l 258
 525 72.21875 551.890625 40 607 40 c 257
 607 0 l 257
 603 0 l 258
 530.002929688 0 485 49 485 132 c 258
661 0 m 257
 661 40 l 257
 707.547851562 40 746 73.2119140625 746 132 c 257
 746 582 l 257
 786 582 l 257
 786 128 l 257
 786 62.5234375 738.971679688 0 664 0 c 258
 661 0 l 257
321 555 m 257
 321 595 l 257
 786 595 l 257
 786 555 l 257
 321 555 l 257
EndSplineSet
Validated: 524293
EndChar

StartChar: tml_Shree
Encoding: 150 -1 150
GlifName: tml_S_hree
Width: 1149
VWidth: 0
GlyphClass: 2
Flags: W
LayerCount: 2
Fore
SplineSet
40 -256 m 257
 40 -135.564 76.0059 -85 156 -85 c 256
 243.054 -85 745.785 -85 830 -85 c 256
 897.331 -85 945.852 -23.8916 944.916 69 c 258
 941 458 l 257
 941 558 868.787 564 832 564 c 257
 778 564 726.628 542.033 727 457 c 258
 729 0 l 257
 689 0 l 257
 687 456 l 258
 686.623 542 650 564 608 564 c 257
 608 604 l 257
 654 604 684 591.862 708 560 c 257
 744 590.896 797 604 831 604 c 257
 940.439 604 983 543 983 473 c 257
 984 63 l 257
 984 -35.3115 931.679 -123.275 831 -125 c 258
 150 -125 l 258
 104.064 -125 80 -154.654 80 -256 c 257
 40 -256 l 257
815 571.756 m 257
 815 596.1 l 256
 741 755.1 836.394 901.1 972 901.1 c 256
 1146 901.1 1155.69 664.1 993 664.1 c 256
 955 664.1 921 691.1 911 712.1 c 257
 937 743.1 l 256
 937 727.1 971 704.1 996 704.1 c 256
 1019 704.1 1068 720.1 1068 779.1 c 256
 1068 794.1 1060 861.1 962 861.1 c 257
 879.677 860.67 782 753.1 857 594.826 c 256
 857 571.756 l 257
 815 571.756 l 257
440 0 m 257
 440 477 l 258
 440 527 470.549 604 554 604 c 257
 554 564 l 257
 492.158 564 478.877 500.999 479 472 c 258
 481 0 l 257
 440 0 l 257
80 24 m 257
 80 595 l 257
 120 595 l 257
 120 24 l 257
 80 24 l 257
80 0 m 257
 80 40 l 257
 252 40 l 257
 252 0 l 257
 80 0 l 257
308 0 m 257
 308 40 l 257
 479 40 l 257
 479 0 l 257
 308 0 l 257
EndSplineSet
Validated: 37
EndChar

StartChar: tml_Six
Encoding: 151 3052 151
GlifName: tml_S_ix
Width: 1037
VWidth: 0
GlyphClass: 2
Flags: W
LayerCount: 2
Fore
SplineSet
40 172 m 258
 40 196 l 258
 40 259 72 371 246 371 c 258
 997 371 l 257
 997 331 l 257
 239 331 l 258
 184 331 79.9854 313 80 188 c 256
 80.0127 58 167.632 39 230 39 c 257
 230 -1 l 257
 56.5215 0 40 128 40 172 c 258
283 -1 m 257
 283 39 l 257
 377.637 39 422.632 98 423 187 c 258
 423 588 l 257
 463 588 l 257
 463 191 l 258
 463 95 420.261 -1 283 -1 c 257
165 348 m 257
 165 586 l 257
 206 586 l 257
 205 348 l 257
 165 348 l 257
165 555 m 257
 165 595 l 257
 288 595 l 257
 288 555 l 257
 165 555 l 257
342 555 m 257
 342 595 l 257
 610 595 l 257
 610 555 l 257
 342 555 l 257
695 2 m 257
 695 342 l 257
 736 342 l 257
 735 2 l 257
 695 2 l 257
900 2 m 257
 900 342 l 257
 941 342 l 257
 940 2 l 257
 900 2 l 257
EndSplineSet
Validated: 37
EndChar

StartChar: tml_SsI
Encoding: 152 -1 152
GlifName: tml_S_sI_
Width: 1306
VWidth: 0
GlyphClass: 2
Flags: W
LayerCount: 2
Fore
SplineSet
830 567 m 257
 784.447 567 701 570 701 435 c 258
 701 317 l 258
 701 201 766.83 197 803 197 c 257
 803 158 l 257
 721.409 158 661 191 661 334 c 258
 661 433 l 258
 661 570 718.409 607 830 607 c 257
 947.669 607 996 561 996 413 c 258
 996 123 l 257
 956 123 l 257
 956 413 l 258
 956 557 897.426 567 830 567 c 257
314 565 m 257
 314 605 l 257
 476 605 530 466 531 355 c 257
 531 40 l 257
 802 40 l 257
 802 0 l 257
 417 0 l 257
 417 40 l 257
 484 40 490 40 490 76 c 258
 490 354 l 257
 489 473 431 565 314 565 c 257
40 172 m 258
 40 196 l 258
 40 300 116 359 192 359 c 257
 192 319 l 256
 154.616 319 79 295 79 181 c 256
 79 91 141.872 40 192 40 c 257
 192 0 l 256
 103.628 0 40 88 40 172 c 258
247 0 m 257
 247 40 l 257
 291.449 40 341 88 341 182.617 c 256
 341 282 289.264 319 247 319 c 257
 247 359 l 256
 320.184 359 383 292 383 196 c 258
 383 173 l 258
 383.805 75 319.207 0 247 0 c 257
812 600.1 m 257
 812 600.1 l 257
 812 704.1 864 779.1 1004 779.1 c 256
 1004 779.1 l 257
 1004 739.1 l 256
 1004 739.1 l 256
 873 739.1 852 661.1 852 600.1 c 256
 812 600.1 l 257
1059 739.1 m 257
 1059 779.1 l 257
 1204 779.1 1266 703.1 1266 602.1 c 258
 1266 89.0996 l 257
 1226 89.0996 l 257
 1226 599.1 l 258
 1226 664.1 1196 739.1 1059 739.1 c 257
40 204 m 257
 40 302 l 257
 40 468.761 125.239 605 263 605 c 257
 263 565 l 257
 148.521 565 81.6709 443.391 80 306 c 256
 40 204 l 257
956 83 m 257
 996 83 l 257
 996 -178 l 257
 956 -178 l 257
 956 83 l 257
856 1 m 257
 856 41 l 257
 1132 41 l 257
 1132 0 l 257
 856 1 l 257
856 158 m 257
 856 198 l 257
 1132 198 l 256
 1132 158 l 257
 856 158 l 257
1092 0 m 257
 1092 198 l 257
 1132 198 l 257
 1132 0 l 257
 1092 0 l 257
EndSplineSet
Validated: 37
EndChar

StartChar: tml_SsIi
Encoding: 153 -1 153
GlifName: tml_S_sI_i
Width: 1172
VWidth: 0
GlyphClass: 2
Flags: W
LayerCount: 2
Fore
SplineSet
830 567 m 257
 784.447 567 701 570 701 435 c 258
 701 317 l 258
 701 201 766.83 197 803 197 c 257
 803 158 l 257
 721.409 158 661 191 661 334 c 258
 661 433 l 258
 661 570 718.409 607 830 607 c 257
 947.669 607 996 561 996 413 c 258
 996 123 l 257
 956 123 l 257
 956 413 l 258
 956 557 897.426 567 830 567 c 257
815 578.656 m 257
 815 603 l 256
 741 762 836.394 908 972 908 c 256
 1146 908 1155.69 671 993 671 c 256
 955 671 921 698 911 719 c 257
 937 750 l 256
 937 734 971 711 996 711 c 256
 1019 711 1068 727 1068 786 c 256
 1068 801 1060 868 962 868 c 257
 879.677 867.57 782 760 857 601.727 c 256
 857 578.656 l 257
 815 578.656 l 257
314 565 m 257
 314 605 l 257
 476 605 530 466 531 355 c 257
 531 40 l 257
 802 40 l 257
 802 0 l 257
 417 0 l 257
 417 40 l 257
 484 40 490 40 490 76 c 258
 490 354 l 257
 489 473 431 565 314 565 c 257
40 172 m 258
 40 196 l 258
 40 300 116 359 192 359 c 257
 192 319 l 256
 154.616 319 79 295 79 181 c 256
 79 91 141.872 40 192 40 c 257
 192 0 l 256
 103.628 0 40 88 40 172 c 258
247 0 m 257
 247 40 l 257
 291.449 40 341 88 341 182.617 c 256
 341 282 289.264 319 247 319 c 257
 247 359 l 256
 320.184 359 383 292 383 196 c 258
 383 173 l 258
 383.805 75 319.207 0 247 0 c 257
40 204 m 257
 40 302 l 257
 40 468.761 125.239 605 263 605 c 257
 263 565 l 257
 148.521 565 81.6709 443.391 80 306 c 256
 40 204 l 257
956 83 m 257
 996 83 l 257
 996 -178 l 257
 956 -178 l 257
 956 83 l 257
856 1 m 257
 856 41 l 257
 1132 41 l 257
 1132 0 l 257
 856 1 l 257
856 158 m 257
 856 198 l 257
 1132 198 l 256
 1132 158 l 257
 856 158 l 257
1092 0 m 257
 1092 198 l 257
 1132 198 l 257
 1132 0 l 257
 1092 0 l 257
EndSplineSet
Validated: 37
EndChar

StartChar: tml_SsU
Encoding: 154 -1 154
GlifName: tml_S_sU_
Width: 1382
VWidth: 0
GlyphClass: 2
Flags: W
LayerCount: 2
Fore
SplineSet
856 566.727 m 257
 856 606.727 l 257
 1177 606.727 l 258
 1292 606.727 1342 555.727 1342 488.727 c 258
 1342 481.727 l 258
 1342 422.727 1290 368.727 1235 368.727 c 258
 1223 368.727 l 258
 1154 368.727 1112 431.727 1112 481.727 c 257
 1152 481.727 l 256
 1152 461.727 1169 408.727 1228 408.727 c 256
 1283 408.727 1302 462.727 1302 480.727 c 256
 1302 535.727 1270 566.727 1173 566.727 c 258
 856 566.727 l 257
247 0 m 257
 247 40 l 257
 291.449 40 341 88 341 182.617 c 256
 341 282 289.264 319 247 319 c 257
 247 359 l 256
 320.184 359 383 292 383 196 c 258
 383 173 l 258
 383.805 75 319.207 0 247 0 c 257
40 172 m 258
 40 196 l 258
 40 300 116 359 192 359 c 257
 192 319 l 256
 154.616 319 79 295 79 181 c 256
 79 91 141.872 40 192 40 c 257
 192 0 l 256
 103.628 0 40 88 40 172 c 258
40 204 m 257
 40 302 l 257
 40 468.761 125.239 605 263 605 c 257
 263 565 l 257
 148.521 565 81.6709 443.391 80 306 c 256
 40 204 l 257
314 565 m 257
 314 605 l 257
 476 605 530 466 531 355 c 257
 531 40 l 257
 802 40 l 257
 802 0 l 257
 417 0 l 257
 417 40 l 257
 484 40 490 40 490 76 c 258
 490 354 l 257
 489 473 431 565 314 565 c 257
856 567 m 257
 856 607 l 257
 935.669 607 996 561 996 413 c 258
 996 123 l 257
 956 123 l 257
 956 413 l 258
 956 557 896.426 567 856 567 c 257
956 83 m 257
 996 83 l 257
 996 -178 l 257
 956 -178 l 257
 956 83 l 257
856 158 m 257
 856 198 l 257
 1132 198 l 256
 1132 158 l 257
 856 158 l 257
661 334 m 258
 661 433 l 258
 661 570 721.409 607 803 607 c 257
 803 567 l 257
 770.447 567 701 570 701 435 c 258
 701 317 l 258
 701 201 766.83 197 803 197 c 257
 803 158 l 257
 721.409 158 661 191 661 334 c 258
1092 0 m 257
 1092 198 l 257
 1132 198 l 257
 1132 0 l 257
 1092 0 l 257
856 1 m 257
 856 41 l 257
 1132 41 l 257
 1132 0 l 257
 856 1 l 257
EndSplineSet
Validated: 37
EndChar

StartChar: tml_SsUu
Encoding: 155 -1 155
GlifName: tml_S_sU_u
Width: 1530
VWidth: 0
GlyphClass: 2
Flags: W
LayerCount: 2
Fore
SplineSet
856 567.727 m 257
 856 607.727 l 257
 1174 607.727 l 258
 1289 607.727 1339 556.727 1339 489.727 c 258
 1339 482.727 l 258
 1339 423.727 1287 369.727 1232 369.727 c 258
 1220 369.727 l 258
 1151 369.727 1109 432.727 1109 482.727 c 257
 1149 482.727 l 256
 1149 462.727 1166 409.727 1225 409.727 c 256
 1280 409.727 1299 463.727 1299 481.727 c 256
 1299 536.727 1267 567.727 1170 567.727 c 258
 856 567.727 l 257
1106 604.727 m 256
 1106 746.727 1183 804.727 1298 804.727 c 256
 1401 804.727 1490 753.727 1490 648.727 c 258
 1490 324.727 l 258
 1490 246.727 1453 199.727 1352 199.727 c 258
 1293 199.727 l 256
 1293 239.727 l 256
 1352 239.727 l 258
 1398 239.727 1450 242.727 1450 324.727 c 258
 1450 648.727 l 258
 1450 705.727 1408 764.727 1298 764.727 c 256
 1191 764.727 1146 706.727 1146 604.727 c 257
 1106 604.727 l 256
314 565 m 257
 314 605 l 257
 476 605 530 466 531 355 c 257
 531 40 l 257
 802 40 l 257
 802 0 l 257
 417 0 l 257
 417 40 l 257
 484 40 490 40 490 76 c 258
 490 354 l 257
 489 473 431 565 314 565 c 257
661 334 m 258
 661 433 l 258
 661 570 721.409 607 803 607 c 257
 803 567 l 257
 770.447 567 701 570 701 435 c 258
 701 317 l 258
 701 201 766.83 197 803 197 c 257
 803 158 l 257
 721.409 158 661 191 661 334 c 258
40 172 m 258
 40 196 l 258
 40 300 116 359 192 359 c 257
 192 319 l 256
 154.616 319 79 295 79 181 c 256
 79 91 141.872 40 192 40 c 257
 192 0 l 256
 103.628 0 40 88 40 172 c 258
247 0 m 257
 247 40 l 257
 291.449 40 341 88 341 182.617 c 256
 341 282 289.264 319 247 319 c 257
 247 359 l 256
 320.184 359 383 292 383 196 c 258
 383 173 l 258
 383.805 75 319.207 0 247 0 c 257
856 567 m 257
 856 607 l 257
 935.669 607 996 561 996 413 c 258
 996 123 l 257
 956 123 l 257
 956 413 l 258
 956 557 896.426 567 856 567 c 257
40 204 m 257
 40 302 l 257
 40 468.761 125.239 605 263 605 c 257
 263 565 l 257
 148.521 565 81.6709 443.391 80 306 c 256
 40 204 l 257
956 83 m 257
 996 83 l 257
 996 -178 l 257
 956 -178 l 257
 956 83 l 257
856 1 m 257
 856 41 l 257
 1132 41 l 257
 1132 0 l 257
 856 1 l 257
856 158 m 257
 856 198 l 257
 1132 198 l 256
 1132 158 l 257
 856 158 l 257
1092 0 m 257
 1092 198 l 257
 1132 198 l 257
 1132 0 l 257
 1092 0 l 257
EndSplineSet
Validated: 37
EndChar

StartChar: tml_Ssa
Encoding: 156 2999 156
GlifName: tml_S_sa
Width: 1258
VWidth: 0
GlyphClass: 2
Flags: HW
HStem: 0 123<956 1132 956 1092> 237 123 483 122
VStem: 40 172 40 125 314 122 487 121 669 123 962 122
AnchorPoint: "tml_virama" 621 0 basechar 0
LayerCount: 2
Fore
SplineSet
247 0 m 257
 247 40 l 257
 291.449 40 341 88 341 182.617 c 256
 341 282 289.264 319 247 319 c 257
 247 359 l 256
 320.184 359 383 292 383 196 c 258
 383 173 l 258
 383.805 75 319.207 0 247 0 c 257
40 172 m 258
 40 196 l 258
 40 300 116 359 192 359 c 257
 192 319 l 256
 154.616 319 79 295 79 181 c 256
 79 91 141.872 40 192 40 c 257
 192 0 l 256
 103.628 0 40 88 40 172 c 258
40 204 m 257
 40 302 l 257
 40 468.761 125.239 605 263 605 c 257
 263 565 l 257
 148.521 565 81.6709 443.391 80 306 c 256
 40 204 l 257
314 565 m 257
 314 605 l 257
 476 605 530 466 531 355 c 257
 531 40 l 257
 802 40 l 257
 802 0 l 257
 417 0 l 257
 417 40 l 257
 484 40 490 40 490 76 c 258
 490 354 l 257
 489 473 431 565 314 565 c 257
856 567 m 257
 856 607 l 257
 935.669 607 996 561 996 413 c 258
 996 123 l 257
 956 123 l 257
 956 413 l 258
 956 557 896.426 567 856 567 c 257
956 83 m 257
 996 83 l 257
 996 -178 l 257
 956 -178 l 257
 956 83 l 257
856 158 m 257
 856 198 l 257
 1132 198 l 256
 1132 158 l 257
 856 158 l 257
661 334 m 258
 661 433 l 258
 661 570 721.409 607 803 607 c 257
 803 567 l 257
 770.447 567 701 570 701 435 c 258
 701 317 l 258
 701 201 766.83 197 803 197 c 257
 803 158 l 257
 721.409 158 661 191 661 334 c 258
1092 0 m 257
 1092 198 l 257
 1132 198 l 257
 1132 0 l 257
 1092 0 l 257
856 1 m 257
 856 41 l 257
 1132 41 l 257
 1132 0 l 257
 856 1 l 257
EndSplineSet
Validated: 8912933
PickledDataWithLists: "(dp1
S'com.fontlab.hintData'
p2
(dp3
S'vhints'
p4
(lp5
(dp6
S'position'
p7
L40L
sS'width'
p8
L172L
sa(dp9
g7
L40L
sg8
L125L
sa(dp10
g7
L314L
sg8
L122L
sa(dp11
g7
L487L
sg8
L121L
sa(dp12
g7
L669L
sg8
L123L
sa(dp13
g7
L962L
sg8
L122L
sasS'hhints'
p14
(lp15
(dp16
g7
L0L
sg8
L123L
sa(dp17
g7
L237L
sg8
L123L
sa(dp18
g7
L483L
sg8
L122L
sass."
EndChar

StartChar: tml_TI
Encoding: 157 -1 157
GlifName: tml_T_I_
Width: 864
VWidth: 0
GlyphClass: 2
Flags: HW
LayerCount: 2
Fore
SplineSet
644 727 m 257
 644 767 l 257
 779 767 824 697 824 594 c 258
 824 68 l 257
 784 68 l 257
 784 591 l 258
 784 640 781 727 644 727 c 257
423 592 m 257
 423 592 l 257
 423 696 466 767 590 767 c 256
 590 767 l 257
 590 727 l 256
 590 727 l 256
 475 727 463 653 463 592 c 256
 423 592 l 257
EndSplineSet
Refer: 163 2980 N 1 0 0 1 0 0 2
Validated: 524293
EndChar

StartChar: tml_TI.alt
Encoding: 158 -1 158
GlifName: tml_T_I_.alt
Width: 868
VWidth: 0
GlyphClass: 2
Flags: HW
LayerCount: 2
Fore
SplineSet
420.374 809 m 257
 420.374 809 l 257
 420.374 770 l 256
 420.374 770 l 257
 251.672 771.1 46.6719 641 132.672 338 c 257
 99.6719 304 l 257
 -1.32812 602 165.672 809 420.374 809 c 257
474.374 770 m 257
 474.374 809 l 257
 674.374 809 827.374 709 828.374 429 c 258
 828.374 68 l 257
 787.374 68 l 257
 787.374 426 l 258
 787.374 736 576.374 770 474.374 770 c 257
EndSplineSet
Refer: 163 2980 N 1 0 0 1 0.000475 0 2
Validated: 524325
EndChar

StartChar: tml_TIi
Encoding: 159 -1 159
GlifName: tml_T_I_i
Width: 757
VWidth: 0
GlyphClass: 2
Flags: HW
LayerCount: 2
Fore
SplineSet
423 470.656 m 257
 423 594 l 256
 349 753 444.394 899 580 899 c 256
 754 899 763.69 662 601 662 c 256
 563 662 529 689 519 710 c 257
 545 741 l 256
 545 725 579 702 604 702 c 256
 627 702 676 718 676 777 c 256
 676 792 668 859 570 859 c 257
 487.677 858.57 388 751 463 592.727 c 256
 463 470.656 l 257
 423 470.656 l 257
EndSplineSet
Refer: 163 2980 N 1 0 0 1 0 0 2
Validated: 524325
EndChar

StartChar: tml_TIi.alt
Encoding: 160 -1 160
GlifName: tml_T_I_i.alt
Width: 732
VWidth: 0
GlyphClass: 2
Flags: HW
LayerCount: 2
Fore
SplineSet
88.9736 315 m 257
 18.9736 541 62.7158 770.864 221.974 855 c 256
 327.974 911 463.146 920 574.593 888.79 c 257
 658.882 864.126 692.84 806.319 692.651 752 c 256
 692.405 681.328 634.358 616.561 554.155 638.375 c 256
 510.732 650.186 485.011 685.162 479.468 710.506 c 257
 515.146 735 l 256
 510.947 719.562 539.678 683.538 563.764 677.515 c 256
 589.765 671.012 634.554 678.688 650.038 735.62 c 256
 663.16 783.867 620.062 834.97 565.06 849.93 c 257
 447.974 886 308.079 854.391 244.974 823 c 256
 111.63 756.671 63.457 563.023 120.974 346 c 257
 88.9736 315 l 257
EndSplineSet
Refer: 163 2980 N 1 0 0 1 -0.000267188 0 2
Validated: 524325
EndChar

